<svg width="23" height="22" viewBox="0 0 23 22" fill="none" xmlns="http://www.w3.org/2000/svg">
<path d="M0.03125 2.875V6.70834C0.03125 8.29343 1.31848 9.58334 2.90026 9.58334H22.9833V7.66667C22.4564 7.66667 22.027 7.23734 22.027 6.70834V2.875C22.027 2.346 22.4564 1.91667 22.9833 1.91667V0H2.90026C1.31848 0 0.03125 1.28992 0.03125 2.875ZM3.8566 3.83334H18.2016V5.75001H3.8566V3.83334Z" fill="white"/>
<path d="M20.1143 11.5H0.03125V13.4167C0.558192 13.4167 0.987587 13.846 0.987587 14.375V18.2083C0.987587 18.7373 0.558192 19.1667 0.03125 19.1667V21.0833H20.1143C21.6961 21.0833 22.9833 19.7934 22.9833 18.2083V14.375C22.9833 12.7899 21.6961 11.5 20.1143 11.5ZM19.158 17.25H4.81293V15.3333H19.158V17.25Z" fill="white"/>
</svg>
