<svg width="21" height="20" viewBox="0 0 21 20" fill="none" xmlns="http://www.w3.org/2000/svg">
<path fill-rule="evenodd" clip-rule="evenodd" d="M16.38 0H4.62C2.07253 0 0 2.26353 0 5.04577V11.1007C0 13.8829 2.07253 16.1465 4.62 16.1465H16.538C16.7856 16.1465 17.0176 16.2524 17.1922 16.4421L19.4227 18.8783C19.5992 19.071 19.8358 19.1739 20.076 19.1739C20.1952 19.1739 20.3153 19.1498 20.4299 19.0973C20.7745 18.9419 21 18.5725 21 18.1648V5.04577C21 2.26353 18.9275 0 16.38 0ZM14.845 9.52288C14.2074 9.52288 13.69 8.95776 13.69 8.26144C13.69 7.56513 14.2074 7 14.845 7C15.4826 7 16 7.56513 16 8.26144C16 8.95776 15.4826 9.52288 14.845 9.52288ZM11.149 9.52288C10.5114 9.52288 9.994 8.95776 9.994 8.26144C9.994 7.56513 10.5114 7 11.149 7C11.7866 7 12.304 7.56513 12.304 8.26144C12.304 8.95776 11.7866 9.52288 11.149 9.52288ZM7.453 9.52288C6.81544 9.52288 6.298 8.95776 6.298 8.26144C6.298 7.56513 6.81544 7 7.453 7C8.09056 7 8.608 7.56513 8.608 8.26144C8.608 8.95776 8.09056 9.52288 7.453 9.52288Z" fill="#7E7A7A"/>
</svg>
