<svg width="23" height="22" viewBox="0 0 23 22" fill="none" xmlns="http://www.w3.org/2000/svg">
<path d="M5.62 0.5H17.38C20.2442 0.5 22.5 3.02979 22.5 6.04577V19.1648C22.5 19.7478 22.1782 20.307 21.6381 20.5519C21.455 20.6358 21.2634 20.6739 21.076 20.6739C20.6909 20.6739 20.322 20.5086 20.054 20.2159L20.4227 19.8783L20.054 20.2159L17.8243 17.7807C17.8242 17.7806 17.8241 17.7804 17.8239 17.7803C17.738 17.6872 17.637 17.6465 17.538 17.6465H5.62C2.75581 17.6465 0.5 15.1167 0.5 12.1007V6.04577C0.5 3.02979 2.75581 0.5 5.62 0.5Z" stroke="#A9A9A9"/>
<path d="M15.7685 10.8272C15.0755 10.8272 14.5131 10.2621 14.5131 9.56576C14.5131 8.86945 15.0755 8.30432 15.7685 8.30432C16.4615 8.30432 17.0239 8.86945 17.0239 9.56576C17.0239 10.2621 16.4615 10.8272 15.7685 10.8272Z" fill="white"/>
<path d="M11.7511 10.8272C11.0581 10.8272 10.4957 10.2621 10.4957 9.56576C10.4957 8.86945 11.0581 8.30432 11.7511 8.30432C12.4441 8.30432 13.0065 8.86945 13.0065 9.56576C13.0065 10.2621 12.4441 10.8272 11.7511 10.8272Z" fill="white"/>
<path d="M7.73371 10.8272C7.04071 10.8272 6.47827 10.2621 6.47827 9.56576C6.47827 8.86945 7.04071 8.30432 7.73371 8.30432C8.42671 8.30432 8.98914 8.86945 8.98914 9.56576C8.98914 10.2621 8.42671 10.8272 7.73371 10.8272Z" fill="white"/>
</svg>
