<svg width="32" height="32" viewBox="0 0 32 32" fill="none" xmlns="http://www.w3.org/2000/svg">
<rect width="32" height="32" rx="10" fill="#434547" fill-opacity="0.51"/>
<path d="M22 16.5C22 17.1757 21.4522 17.7235 20.7765 17.7235H16.851V21.649C16.851 22.3951 16.2461 23 15.5 23C14.7539 23 14.149 22.3951 14.149 21.649V17.7235H10.2235C9.54779 17.7235 9 17.1757 9 16.5C9 15.8243 9.54779 15.2765 10.2235 15.2765H14.149V11.351C14.149 10.6049 14.7539 10 15.5 10C16.2461 10 16.851 10.6049 16.851 11.351V15.2765H20.7765C21.4522 15.2765 22 15.8243 22 16.5Z" fill="white"/>
</svg>
