<svg width="27" height="26" viewBox="0 0 27 26" fill="none" xmlns="http://www.w3.org/2000/svg">
<path d="M4.04156 6.74999C3.29753 6.74999 2.69437 7.35441 2.69437 8.09999V21.6C2.69437 22.3456 3.29753 22.95 4.04156 22.95H22.9022C23.6462 22.95 24.2494 22.3456 24.2494 21.6V8.09999C24.2494 7.35441 23.6462 6.74999 22.9022 6.74999H4.04156ZM4.04156 4.04999H22.9022C25.1343 4.04999 26.9437 5.86324 26.9437 8.09999V21.6C26.9437 23.8368 25.1343 25.65 22.9022 25.65H4.04156C1.80947 25.65 0 23.8368 0 21.6V8.09999C0 5.86324 1.80947 4.04999 4.04156 4.04999Z" fill="#7E7A7A"/>
<path d="M24.2494 8.1C24.2494 7.35441 23.6462 6.75 22.9022 6.75H4.04156C3.29753 6.75 2.69437 7.35441 2.69437 8.1V8.52651L13.4719 12.7265L24.2494 8.52651V8.1ZM4.04156 4.04999H22.9022C25.1343 4.04999 26.9437 5.86324 26.9437 8.1V9.45001C26.9437 10.0068 26.6027 10.5064 26.0848 10.7082L13.9602 15.4332C13.6461 15.5556 13.2977 15.5556 12.9836 15.4332L0.858904 10.7082C0.341084 10.5064 0 10.0068 0 9.45001V8.1C0 5.86324 1.80947 4.04999 4.04156 4.04999Z" fill="#7E7A7A"/>
<path d="M16.1663 4.05C16.1663 3.30442 15.5631 2.7 14.8191 2.7H12.1247C11.3807 2.7 10.7775 3.30442 10.7775 4.05H16.1663ZM12.1247 0H14.8191C17.0512 0 18.8606 1.81325 18.8606 4.05V6.75H8.08313V4.05C8.08313 1.81325 9.8926 0 12.1247 0Z" fill="#7E7A7A"/>
<path d="M12.7982 12.825V14.175H14.1454V12.825H12.7982ZM12.1246 11.475H14.819C15.191 11.475 15.4926 11.7772 15.4926 12.15V14.85C15.4926 15.2228 15.191 15.525 14.819 15.525H12.1246C11.7526 15.525 11.451 15.2228 11.451 14.85V12.15C11.451 11.7772 11.7526 11.475 12.1246 11.475Z" fill="#7E7A7A"/>
</svg>
