<svg width="18" height="20" viewBox="0 0 18 20" fill="none" xmlns="http://www.w3.org/2000/svg">
<path d="M17.2055 13.397L16.0995 11.551C15.7035 10.891 15.4955 10.1359 15.4955 9.36694V6.73999C15.4955 3.02399 12.4695 0 8.75053 0C5.03153 0 2.00552 3.02299 2.00552 6.73999V9.36694C2.00552 10.1359 1.79652 10.891 1.40152 11.551L0.295528 13.397C-0.089472 14.038 -0.098473 14.81 0.269527 15.46C0.638527 16.112 1.30552 16.501 2.05452 16.501H6.03453C6.02653 16.585 6.00152 16.666 6.00152 16.751C6.00152 18.268 7.23452 19.501 8.75152 19.501C10.2685 19.501 11.5015 18.268 11.5015 16.751C11.5015 16.666 11.4765 16.585 11.4685 16.501H15.4485C16.1975 16.501 16.8655 16.1119 17.2335 15.4609C17.6005 14.8099 17.5905 14.038 17.2055 13.397ZM9.99952 16.751C9.99952 17.44 9.43852 18.001 8.74952 18.001C8.06052 18.001 7.49952 17.44 7.49952 16.751C7.49952 16.666 7.51553 16.583 7.53253 16.501H9.96652C9.98352 16.583 9.99952 16.666 9.99952 16.751ZM15.9265 14.7209C15.8785 14.8049 15.7375 15 15.4465 15H2.05252C1.76252 15 1.62052 14.8049 1.57252 14.7209C1.52552 14.6369 1.43052 14.416 1.57952 14.168L2.68553 12.322C3.22153 11.429 3.50352 10.4069 3.50352 9.36694V6.73999C3.50352 3.85099 5.85652 1.5 8.74852 1.5C11.6405 1.5 13.9935 3.85099 13.9935 6.73999V9.36694C13.9935 10.4069 14.2765 11.429 14.8115 12.322L15.9175 14.168C16.0675 14.416 15.9735 14.6369 15.9265 14.7209Z" fill="white"/>
</svg>
