<svg width="14" height="10" viewBox="0 0 14 10" fill="none" xmlns="http://www.w3.org/2000/svg">
<path d="M11.0833 6.16634V1.49967C11.0833 0.858008 10.5583 0.333008 9.91665 0.333008H1.74998C1.10831 0.333008 0.583313 0.858008 0.583313 1.49967V6.16634C0.583313 6.80801 1.10831 7.33301 1.74998 7.33301H9.91665C10.5583 7.33301 11.0833 6.80801 11.0833 6.16634ZM9.91665 6.16634H1.74998V1.49967H9.91665V6.16634ZM5.83331 2.08301C4.86498 2.08301 4.08331 2.86467 4.08331 3.83301C4.08331 4.80134 4.86498 5.58301 5.83331 5.58301C6.80165 5.58301 7.58331 4.80134 7.58331 3.83301C7.58331 2.86467 6.80165 2.08301 5.83331 2.08301ZM13.4166 2.08301V8.49967C13.4166 9.14134 12.8916 9.66634 12.25 9.66634H2.33331C2.33331 9.08301 2.33331 9.14134 2.33331 8.49967H12.25V2.08301C12.8916 2.08301 12.8333 2.08301 13.4166 2.08301Z" fill="white"/>
</svg>
