<svg width="16" height="20" viewBox="0 0 16 20" fill="none" xmlns="http://www.w3.org/2000/svg">
<rect x="5" y="5" width="6" height="1" fill="white"/>
<rect x="5" y="8" width="6" height="1" fill="white"/>
<rect x="5" y="11" width="6" height="1" fill="white"/>
<path d="M10.75 0H4.75C2.131 0 0 2.131 0 4.75V17.748C0 18.401 0.358988 18.995 0.937988 19.298C1.51799 19.601 2.21001 19.558 2.74701 19.186L7.60599 15.819C7.69199 15.76 7.80599 15.76 7.89099 15.819L12.754 19.186C13.053 19.393 13.4 19.498 13.75 19.498C14.028 19.498 14.307 19.432 14.562 19.297C15.141 18.994 15.5 18.3999 15.5 17.7469V4.75C15.5 2.131 13.369 0 10.75 0ZM14 17.748C14 17.88 13.916 17.944 13.866 17.97C13.817 17.997 13.717 18.03 13.607 17.954L8.74399 14.587C8.44599 14.38 8.09699 14.277 7.74799 14.277C7.39899 14.277 7.04901 14.381 6.75101 14.587L1.892 17.953C1.784 18.027 1.684 17.995 1.634 17.969C1.584 17.943 1.5 17.879 1.5 17.748V4.75C1.5 2.958 2.958 1.5 4.75 1.5H10.75C12.542 1.5 14 2.958 14 4.75V17.748Z" fill="white"/>
</svg>
