<svg width="14" height="14" viewBox="0 0 14 14" fill="none" xmlns="http://www.w3.org/2000/svg">
<path d="M12.6232 2.97559H1.19467C0.953619 2.97559 0.769287 3.15992 0.769287 3.40097C0.769287 3.64202 0.953619 3.82635 1.19467 3.82635H1.84692L2.93873 12.5183C3.02381 13.1564 3.56262 13.6385 4.21487 13.6385H9.63139C10.2836 13.6385 10.8225 13.1564 10.9075 12.5183L11.9993 3.82635H12.6516C12.8926 3.82635 13.077 3.64202 13.077 3.40097C13.077 3.15992 12.8643 2.97559 12.6232 2.97559ZM4.89548 11.7526C4.8813 11.7526 4.86712 11.7526 4.86712 11.7526C4.66861 11.7526 4.49846 11.5966 4.48428 11.3981L4.00218 5.68385C3.988 5.47116 4.14398 5.28682 4.35667 5.27264C4.56936 5.25846 4.75369 5.41444 4.76787 5.62713L5.24997 11.3414C5.26415 11.5541 5.10817 11.7384 4.89548 11.7526ZM7.2918 11.3698C7.2918 11.5825 7.12164 11.7526 6.90895 11.7526C6.69626 11.7526 6.52611 11.5825 6.52611 11.3698V5.65549C6.52611 5.4428 6.69626 5.27264 6.90895 5.27264C7.12164 5.27264 7.2918 5.4428 7.2918 5.65549V11.3698ZM9.33362 11.3981C9.31945 11.5966 9.14929 11.7526 8.95078 11.7526C8.9366 11.7526 8.92242 11.7526 8.92242 11.7526C8.70973 11.7384 8.55376 11.5541 8.56794 11.3414L9.05004 5.62713C9.06422 5.41444 9.24855 5.25846 9.46124 5.27264C9.67393 5.28682 9.8299 5.47116 9.81572 5.68385L9.33362 11.3981Z" fill="white"/>
<path d="M1.19467 2.39464H12.6374C12.8785 2.39464 13.0628 2.2103 13.0628 1.96926C13.0628 1.72821 12.8785 1.54387 12.6374 1.54387H8.53958V1.37372C8.53958 0.707292 8.00077 0.154297 7.32016 0.154297H6.49775C5.83132 0.154297 5.27833 0.693113 5.27833 1.37372V1.54387H1.19467C0.953619 1.54387 0.769287 1.72821 0.769287 1.96926C0.769287 2.2103 0.953619 2.39464 1.19467 2.39464ZM6.12909 1.3879C6.12909 1.18939 6.28506 1.03342 6.48357 1.03342H7.30598C7.50449 1.03342 7.66046 1.18939 7.66046 1.3879V1.55805H6.12909V1.3879Z" fill="white"/>
</svg>
