<svg width="21" height="22" viewBox="0 0 21 22" fill="none" xmlns="http://www.w3.org/2000/svg">
<path d="M18.5625 2.19266H18.375C18.1875 1.44244 17.625 0.973503 16.875 0.973503C16.125 0.973503 15.4688 1.53621 15.375 2.19266H13.9688C13.7813 1.44244 13.2187 0.973503 12.4687 0.973503C11.7187 0.973503 11.0625 1.53621 10.9687 2.19266H9.56249C9.37499 1.44244 8.8125 0.973503 8.0625 0.973503C7.3125 0.973503 6.65625 1.53621 6.5625 2.19266H5.4375C5.25 1.44244 4.6875 0.973503 3.9375 0.973503C3.1875 0.973503 2.53125 1.53621 2.4375 2.19266H2.25001C1.03126 2.19266 0 3.22417 0 4.44328V5.2873V19.1663C0 20.3855 1.03126 21.417 2.25001 21.417H18.75C19.9687 21.417 21 20.3855 21 19.1663V5.38105V4.53709C20.8125 3.22421 19.7812 2.19266 18.5625 2.19266ZM16.875 1.62996C17.25 1.62996 17.625 1.91132 17.7188 2.19266H16.0312C16.125 1.81755 16.5 1.62996 16.875 1.62996ZM12.375 1.62996C12.75 1.62996 13.125 1.91132 13.2188 2.19266H11.5312C11.625 1.81755 12 1.62996 12.375 1.62996ZM7.96875 1.62996C8.34375 1.62996 8.71876 1.91132 8.8125 2.19266H7.125C7.21875 1.81755 7.5 1.62996 7.96875 1.62996ZM3.84375 1.62996C4.21875 1.62996 4.59375 1.91132 4.6875 2.19266H3C3.09375 1.81755 3.375 1.62996 3.84375 1.62996ZM0.46875 4.44328C0.46875 3.50551 1.21875 2.84905 2.0625 2.84905H2.25001C2.43751 3.59927 3 4.0682 3.75 4.0682C3.9375 4.0682 4.03125 3.8806 4.03125 3.78683C4.03125 3.59927 3.84375 3.50551 3.75 3.50551C3.375 3.50551 3 3.2242 2.90625 2.94286H4.96875H6.375C6.5625 3.69308 7.12501 4.16196 7.87501 4.16196C8.06251 4.16196 8.15624 3.97442 8.15624 3.88064C8.15624 3.69308 7.96876 3.59932 7.87501 3.59932C7.50001 3.59932 7.125 3.31795 7.03125 3.03662H9.09374H10.7812C10.9687 3.78684 11.5313 4.25571 12.2813 4.25571C12.4688 4.25571 12.5625 4.06817 12.5625 3.97439C12.5625 3.78684 12.375 3.69307 12.2813 3.69307C11.9063 3.69307 11.5312 3.41176 11.4375 3.13043H13.5H15.1875C15.375 3.88065 15.9375 4.34952 16.6875 4.34952C16.875 4.34952 16.9688 4.16198 16.9688 4.0682C16.9688 3.88065 16.7812 3.78683 16.6875 3.78683C16.3125 3.78683 15.9375 3.50552 15.8438 3.22418H17.9062H18.375C19.3125 3.22418 19.9687 3.97442 19.9687 4.81841V5.38105H0.281253V4.44328H0.46875ZM20.1562 19.1663C20.1562 20.1041 19.4062 20.7606 18.5625 20.7606H2.0625C1.125 20.7606 0.46875 20.0103 0.46875 19.1663V5.66237H20.1562V19.1663Z" fill="white"/>
<path d="M2.9999 18.9788H5.99991H8.99991H11.9999C12.1874 18.9788 12.2812 18.7913 12.2812 18.6975V16.3531H14.9999H17.9999C18.1874 16.3531 18.2812 16.1655 18.2812 16.0717V13.3522V10.6326V7.91306C18.2812 7.72551 18.0936 7.63174 17.9999 7.63174H14.9999H11.9999C11.8124 7.63174 11.7187 7.81928 11.7187 7.91306V10.2575H8.99991H5.99991H2.9999C2.8124 10.2575 2.71866 10.4451 2.71866 10.5388V13.2584V15.9779V18.6975C2.62491 18.7913 2.8124 18.9788 2.9999 18.9788ZM14.6249 10.8202V12.8833H12.2812V10.8202H14.6249ZM17.6249 12.8833H15.2812V10.8202H17.6249V12.8833ZM11.6249 15.6029H9.28116V13.5397H11.6249V15.6029ZM8.6249 15.6029H6.28115V13.5397H8.6249V15.6029ZM5.6249 15.6029H3.28115V13.5397H5.6249V15.6029ZM3.28115 16.2593H5.6249V18.3224H3.28115V16.2593ZM6.28115 16.2593H8.6249V18.3224H6.28115V16.2593ZM11.6249 18.3224H9.28116V16.2593H11.6249V18.3224ZM12.2812 13.5397H14.6249V15.6029H12.2812V13.5397ZM17.6249 15.6029H15.2812V13.5397H17.6249V15.6029ZM17.6249 10.1638H15.2812V8.10063H17.6249V10.1638ZM12.2812 8.10063H14.6249V10.1638H12.2812V8.10063ZM11.6249 12.8833H9.28116V10.8202H11.6249V12.8833ZM8.6249 12.8833H6.28115V10.8202H8.6249V12.8833ZM3.28115 10.8202H5.6249V12.8833H3.28115V10.8202Z" fill="white"/>
</svg>
