<svg width="32" height="32" viewBox="0 0 32 32" fill="none" xmlns="http://www.w3.org/2000/svg">
<rect width="32" height="32" rx="10" fill="#434547" fill-opacity="0.51"/>
<path d="M21.5 8H21V7.5C21 7.224 20.776 7 20.5 7C20.224 7 20 7.224 20 7.5V8H13V7.5C13 7.224 12.776 7 12.5 7C12.224 7 12 7.224 12 7.5V8H11.5C9.019 8 7 10.019 7 12.5V21.5C7 23.981 9.019 26 11.5 26H21.5C23.981 26 26 23.981 26 21.5V12.5C26 10.018 23.981 8 21.5 8ZM11.5 9H12V10.5C12 10.776 12.224 11 12.5 11C12.776 11 13 10.776 13 10.5V9H20V10.5C20 10.776 20.224 11 20.5 11C20.776 11 21 10.776 21 10.5V9H21.5C23.43 9 25 10.57 25 12.5V13H8V12.5C8 10.57 9.57 9 11.5 9ZM21.5 25H11.5C9.57 25 8 23.43 8 21.5V14H25V21.5C25 23.429 23.43 25 21.5 25ZM21.5 17.5C21.5 18.052 21.052 18.5 20.5 18.5C19.948 18.5 19.5 18.052 19.5 17.5C19.5 16.948 19.948 16.5 20.5 16.5C21.052 16.5 21.5 16.947 21.5 17.5ZM17.5 17.5C17.5 18.052 17.052 18.5 16.5 18.5C15.948 18.5 15.5 18.052 15.5 17.5C15.5 16.948 15.948 16.5 16.5 16.5C17.052 16.5 17.5 16.947 17.5 17.5ZM13.5 17.5C13.5 18.052 13.052 18.5 12.5 18.5C11.948 18.5 11.5 18.052 11.5 17.5C11.5 16.948 11.948 16.5 12.5 16.5C13.052 16.5 13.5 16.947 13.5 17.5ZM21.5 21.5C21.5 22.052 21.052 22.5 20.5 22.5C19.948 22.5 19.5 22.052 19.5 21.5C19.5 20.948 19.948 20.5 20.5 20.5C21.052 20.5 21.5 20.947 21.5 21.5ZM17.5 21.5C17.5 22.052 17.052 22.5 16.5 22.5C15.948 22.5 15.5 22.052 15.5 21.5C15.5 20.948 15.948 20.5 16.5 20.5C17.052 20.5 17.5 20.947 17.5 21.5ZM13.5 21.5C13.5 22.052 13.052 22.5 12.5 22.5C11.948 22.5 11.5 22.052 11.5 21.5C11.5 20.948 11.948 20.5 12.5 20.5C13.052 20.5 13.5 20.947 13.5 21.5Z" fill="white"/>
</svg>
