<svg width="15" height="13" viewBox="0 0 15 13" fill="none" xmlns="http://www.w3.org/2000/svg">
<path d="M11.6631 2.2419L10.7438 0.909982C10.3508 0.34021 9.6923 0 8.98384 0H6.01539C5.30693 0 4.64845 0.34021 4.25537 0.909982L3.33616 2.2419C1.46924 2.3979 0 3.91486 0 5.75714V9.47143C0 11.417 1.63923 13 3.65385 13H11.3462C13.3608 13 15 11.417 15 9.47143V5.75714C14.9992 3.9156 13.53 2.39864 11.6631 2.2419ZM13.8454 9.47215C13.8454 10.8034 12.7238 11.8864 11.3454 11.8864H3.65307C2.27461 11.8864 1.15307 10.8034 1.15307 9.47215V5.75787C1.15307 4.42667 2.27461 3.34358 3.65307 3.34358C3.84615 3.34358 4.02614 3.25074 4.13307 3.09548L5.21461 1.52879C5.39307 1.26953 5.69231 1.11501 6.01462 1.11501H8.98306C9.30537 1.11501 9.60461 1.26953 9.78307 1.52879L10.8646 3.09548C10.9715 3.24999 11.1515 3.34358 11.3446 3.34358C12.7231 3.34358 13.8446 4.42667 13.8446 5.75787V9.47215H13.8454ZM7.49923 4.45787C5.90846 4.45787 4.61461 5.70735 4.61461 7.24358C4.61461 8.77981 5.90846 10.0293 7.49923 10.0293C9.08999 10.0293 10.3838 8.77981 10.3838 7.24358C10.3838 5.70735 9.08999 4.45787 7.49923 4.45787ZM7.49923 8.91501C6.54461 8.91501 5.76846 8.16547 5.76846 7.24358C5.76846 6.3217 6.54461 5.57215 7.49923 5.57215C8.45384 5.57215 9.22999 6.3217 9.22999 7.24358C9.22999 8.16547 8.45384 8.91501 7.49923 8.91501ZM12.8838 5.01501C12.8838 5.42507 12.5392 5.75787 12.1146 5.75787C11.69 5.75787 11.3454 5.42507 11.3454 5.01501C11.3454 4.60495 11.69 4.27215 12.1146 4.27215C12.5392 4.27215 12.8838 4.60495 12.8838 5.01501Z" fill="white"/>
</svg>
