<svg width="25" height="22" viewBox="0 0 25 22" fill="none" xmlns="http://www.w3.org/2000/svg">
<path d="M20.4523 20.8761C20.8064 20.7717 21.0277 20.5176 21.1386 20.2701C21.2355 20.0539 21.252 19.8418 21.2529 19.7005C21.2548 19.4138 21.1899 19.0987 21.1192 18.8238C20.9729 18.2547 20.7137 17.5373 20.4735 16.8756L20.4492 16.8085C20.208 16.1443 19.9859 15.5326 19.8558 15.0619C19.8385 14.9993 19.824 14.943 19.8118 14.8927C22.215 13.5319 23.925 11.414 23.925 8.8782C23.925 6.56576 22.4947 4.59244 20.4315 3.24089C18.3603 1.88407 15.5536 1.075 12.5004 1.075C9.44679 1.075 6.63987 1.88406 4.56858 3.24088C2.50533 4.59243 1.075 6.56575 1.075 8.8782C1.075 11.1908 2.5052 13.1643 4.56846 14.516C6.63973 15.873 9.44667 16.6821 12.5004 16.6821C12.9763 16.6821 13.4465 16.6624 13.9084 16.6237M20.4523 20.8761L20.1906 19.989L20.4531 20.8759C20.4529 20.876 20.4526 20.8761 20.4523 20.8761ZM20.4523 20.8761C20.1806 20.9564 19.9317 20.9223 19.7688 20.8836C19.5968 20.8426 19.4358 20.7757 19.2972 20.7077C19.0203 20.5719 18.7232 20.3767 18.4333 20.1673C17.8497 19.7455 17.1622 19.1672 16.5069 18.6141L16.4382 18.5561C15.7917 18.0105 15.176 17.4908 14.6586 17.1061C14.39 16.9064 14.1742 16.7631 14.0133 16.6759C13.968 16.6513 13.9333 16.6346 13.9084 16.6237M13.9084 16.6237C13.9437 16.6207 13.979 16.6176 14.0142 16.6145L13.931 15.6936L14.0131 16.6146C13.9356 16.6215 13.8831 16.6113 13.8669 16.6073M13.9084 16.6237C13.8894 16.6153 13.876 16.6103 13.868 16.6077C13.8676 16.6075 13.8672 16.6074 13.8669 16.6073M13.8669 16.6073C13.8632 16.6061 13.8614 16.6056 13.8615 16.6057C13.8615 16.6058 13.8634 16.6064 13.8669 16.6073ZM19.355 15.138L19.3552 15.1379L19.355 15.138ZM19.7575 14.5812C19.7575 14.5813 19.7576 14.5832 19.7575 14.5868C19.7574 14.583 19.7574 14.5812 19.7575 14.5812Z" stroke="white" stroke-width="1.85"/>
</svg>
