<svg width="304" height="361" viewBox="0 0 304 361" fill="none" xmlns="http://www.w3.org/2000/svg">
<path d="M34.782 360.361C34.809 360.242 37.417 348.349 32.091 338.471C26.765 328.594 15.397 324.238 15.283 324.195L14.764 324L14.641 324.542C14.614 324.66 12.006 336.553 17.332 346.431C22.657 356.308 34.026 360.665 34.14 360.708L34.66 360.902L34.782 360.361ZM15.476 325.322C17.753 326.301 26.74 330.589 31.238 338.931C35.737 347.274 34.38 357.141 33.947 359.581C31.671 358.604 22.687 354.323 18.185 345.971C13.686 337.628 15.043 327.763 15.476 325.322Z" fill="#3F3D56"/>
<path d="M21.401 342.966C30.972 348.725 34.658 360.163 34.658 360.163C34.658 360.163 22.827 362.265 13.256 356.506C3.686 350.747 0 339.309 0 339.309C0 339.309 11.831 337.208 21.401 342.966Z" fill="#D0CDE1"/>
<path d="M303.676 360.127H3V360.947H303.676V360.127Z" fill="#3F3D56"/>
<path d="M154.976 211.979C153.858 211.979 152.729 211.962 151.62 211.927L151.645 211.122C153.237 211.171 154.862 211.185 156.461 211.163L156.472 211.969C155.974 211.976 155.475 211.979 154.976 211.979ZM161.321 211.792L161.273 210.988C162.867 210.894 164.482 210.762 166.072 210.595L166.156 211.396C164.554 211.564 162.927 211.698 161.321 211.792ZM146.776 211.667C145.168 211.544 143.544 211.382 141.947 211.186L142.046 210.387C143.63 210.581 145.242 210.741 146.837 210.863L146.776 211.667ZM170.969 210.78L170.848 209.984C172.432 209.743 174.028 209.464 175.59 209.154L175.747 209.944C174.173 210.257 172.565 210.538 170.969 210.78ZM137.147 210.486C135.559 210.216 133.956 209.907 132.383 209.566L132.554 208.778C134.115 209.117 135.705 209.424 137.281 209.691L137.147 210.486ZM180.484 208.889L180.29 208.107C181.845 207.722 183.408 207.297 184.937 206.844L185.166 207.617C183.625 208.074 182.05 208.502 180.484 208.889ZM127.666 208.427C126.109 208.013 124.541 207.557 123.007 207.072L123.25 206.303C124.772 206.785 126.328 207.237 127.873 207.648L127.666 208.427ZM189.785 206.129L189.52 205.368C191.029 204.844 192.546 204.277 194.031 203.682L194.33 204.431C192.834 205.029 191.305 205.601 189.785 206.129ZM118.404 205.498C116.891 204.942 115.368 204.342 113.879 203.715L114.192 202.971C115.67 203.594 117.18 204.19 118.682 204.742L118.404 205.498ZM198.782 202.529L198.448 201.795C199.897 201.137 201.354 200.434 202.777 199.706L203.144 200.424C201.709 201.157 200.242 201.865 198.782 202.529ZM207.405 198.121L207.006 197.421C208.395 196.628 209.782 195.794 211.128 194.943L211.558 195.624C210.202 196.482 208.805 197.322 207.405 198.121ZM215.594 192.939L215.133 192.279C216.441 191.364 217.747 190.407 219.013 189.433L219.505 190.072C218.228 191.053 216.912 192.018 215.594 192.939ZM92.764 191.804C91.463 190.859 90.164 189.869 88.902 188.861L89.405 188.232C90.657 189.232 91.947 190.214 93.237 191.151L92.764 191.804ZM223.281 187.03L222.762 186.414C223.981 185.385 225.195 184.312 226.369 183.226L226.916 183.818C225.733 184.912 224.51 185.993 223.281 187.03ZM85.178 185.746C83.967 184.685 82.763 183.582 81.601 182.466L82.159 181.884C83.313 182.992 84.507 184.087 85.709 185.14L85.178 185.746ZM230.402 180.442L229.829 179.876C230.953 178.737 232.065 177.558 233.133 176.372L233.732 176.911C232.656 178.107 231.535 179.294 230.402 180.442ZM78.178 179.027C77.067 177.858 75.969 176.65 74.916 175.436L75.525 174.908C76.57 176.113 77.659 177.312 78.762 178.471L78.178 179.027ZM236.898 173.232L236.275 172.72C237.291 171.484 238.291 170.209 239.248 168.928L239.894 169.411C238.929 170.701 237.921 171.987 236.898 173.232ZM71.821 171.702C70.823 170.44 69.84 169.138 68.899 167.831L69.553 167.36C70.487 168.657 71.462 169.95 72.453 171.202L71.821 171.702ZM242.712 165.456L242.045 165.004C242.944 163.68 243.824 162.318 244.661 160.955L245.348 161.376C244.504 162.75 243.617 164.123 242.712 165.456ZM66.159 163.833C65.281 162.486 64.421 161.101 63.604 159.714L64.298 159.305C65.109 160.681 65.962 162.056 66.834 163.392L66.159 163.833ZM247.795 157.179L247.09 156.789C247.864 155.389 248.615 153.951 249.325 152.515L250.047 152.872C249.333 154.319 248.575 155.768 247.795 157.179ZM252.099 148.465L251.361 148.142C252.003 146.675 252.62 145.173 253.194 143.677L253.946 143.966C253.368 145.474 252.746 146.987 252.099 148.465ZM57.11 146.726C56.492 145.243 55.901 143.726 55.352 142.217L56.109 141.941C56.654 143.439 57.241 144.945 57.854 146.416L57.11 146.726ZM255.584 139.385L254.819 139.132C255.322 137.616 255.796 136.067 256.229 134.527L257.005 134.745C256.569 136.297 256.09 137.858 255.584 139.385ZM53.799 137.619C53.32 136.083 52.869 134.514 52.46 132.955L53.24 132.75C53.646 134.297 54.093 135.855 54.569 137.379L53.799 137.619ZM258.211 130.045L257.426 129.862C257.786 128.309 258.116 126.722 258.406 125.148L259.199 125.293C258.907 126.88 258.574 128.479 258.211 130.045ZM51.338 128.233C51.002 126.659 50.698 125.055 50.434 123.466L51.229 123.334C51.491 124.911 51.793 126.503 52.126 128.065L51.338 128.233ZM259.967 120.502L259.168 120.393C259.385 118.814 259.568 117.205 259.712 115.609L260.515 115.681C260.369 117.29 260.185 118.912 259.967 120.502ZM49.75 118.662C49.56 117.067 49.404 115.442 49.286 113.832L50.09 113.773C50.206 115.371 50.362 116.983 50.55 118.567L49.75 118.662ZM260.843 110.84L260.038 110.804C260.11 109.207 260.146 107.587 260.146 105.99H260.952C260.952 107.599 260.916 109.231 260.843 110.84ZM49.042 108.986C49.014 107.998 49 106.989 49 105.99C49 105.369 49.005 104.75 49.016 104.132L49.822 104.147C49.811 104.76 49.806 105.374 49.806 105.99C49.806 106.982 49.82 107.983 49.847 108.964L49.042 108.986ZM50.013 99.3348L49.209 99.2844C49.309 97.6739 49.448 96.0474 49.621 94.4497L50.422 94.5365C50.251 96.1221 50.113 97.7363 50.013 99.3348ZM259.626 94.4175C259.465 92.8285 259.244 92.0538 259.01 90.4717L259.807 90.354C260.042 91.9481 260.244 93.165 260.407 94.7659L259.626 94.4175ZM51.05 89.7623L50.253 89.6391C50.5 88.0446 50.787 86.4375 51.106 84.8619L51.896 85.0217C51.579 86.5853 51.295 88.1802 51.05 89.7623ZM258.196 85.7259C257.889 84.1537 257.542 82.571 257.165 81.022L257.949 80.8315C258.328 82.3923 258.678 83.9872 258.987 85.5713L258.196 85.7259ZM52.959 80.3252L52.177 80.1292C52.568 78.5681 53.002 76.9941 53.465 75.4506L54.237 75.6824C53.777 77.2141 53.347 78.7761 52.959 80.3252ZM255.919 76.3703C255.469 74.8356 254.978 73.2919 254.459 71.7814L255.221 71.5193C255.745 73.0414 256.24 74.5973 256.692 76.1436L255.919 76.3703ZM55.733 71.0909L54.973 70.8237C55.508 69.3001 56.086 67.7691 56.691 66.2734L57.439 66.5757C56.838 68.0598 56.264 69.5791 55.733 71.0909ZM252.789 67.2646C252.201 65.7813 251.572 64.2926 250.918 62.8398L251.653 62.5088C252.312 63.9729 252.946 65.4729 253.539 66.9674L252.789 67.2646ZM59.35 62.1454L58.618 61.8089C59.291 60.3429 60.007 58.8727 60.747 57.4394L61.463 57.809C60.729 59.2315 60.018 60.6904 59.35 62.1454ZM248.845 58.504C248.124 57.0811 247.36 55.6552 246.574 54.2666L247.275 53.8695C248.067 55.269 248.837 56.7056 249.564 58.1396L248.845 58.504ZM63.773 53.5755L63.075 53.1733C63.879 51.7771 64.727 50.3796 65.595 49.0199L66.274 49.4536C65.412 50.8031 64.571 52.19 63.773 53.5755ZM244.111 50.1358C243.259 48.78 242.367 47.4293 241.46 46.1211L242.122 45.6618C243.036 46.9801 243.935 48.341 244.793 49.7072L244.111 50.1358ZM68.96 45.4515L68.302 44.9871C69.231 43.6693 70.202 42.3558 71.189 41.083L71.826 41.5769C70.847 42.8402 69.882 44.1437 68.96 45.4515ZM238.629 42.2306C237.657 40.9584 236.646 39.6937 235.622 38.4717L236.24 37.954C237.271 39.1855 238.291 40.4596 239.269 41.7414L238.629 42.2306ZM74.865 37.8383L74.252 37.3157C75.294 36.0909 76.381 34.8719 77.481 33.6924L78.07 34.2422C76.978 35.4128 75.9 36.6228 74.865 37.8383ZM232.447 34.8528C231.364 33.6743 230.241 32.5062 229.11 31.3814L229.678 30.8096C230.818 31.9432 231.95 33.12 233.04 34.3073L232.447 34.8528ZM81.435 30.797L80.872 30.2208C82.024 29.0933 83.216 27.9785 84.416 26.9077L84.952 27.509C83.762 28.5716 82.579 29.6779 81.435 30.797ZM225.618 28.0647C224.432 26.9885 223.207 25.9271 221.977 24.91L222.491 24.2889C223.73 25.3138 224.964 26.3833 226.159 27.4677L225.618 28.0647ZM88.615 24.3846L88.106 23.7596C89.353 22.7444 90.641 21.7432 91.935 20.7837L92.415 21.4311C91.13 22.3835 89.852 23.3771 88.615 24.3846ZM96.344 18.655L95.895 17.9863C97.229 17.0886 98.602 16.2096 99.977 15.3731L100.395 16.0618C99.031 16.8918 97.668 17.7644 96.344 18.655ZM104.56 13.6572L104.173 12.95C105.584 12.1776 107.031 11.4283 108.474 10.7224L108.828 11.4466C107.396 12.1469 105.96 12.8905 104.56 13.6572ZM201.82 11.7898C200.386 11.0753 198.917 10.385 197.454 9.73815L197.78 9.00102C199.254 9.65275 200.735 10.3484 202.18 11.0684L201.82 11.7898ZM113.192 9.43453L112.871 8.69502C114.346 8.05569 115.855 7.44253 117.355 6.87246L117.641 7.62613C116.152 8.19168 114.655 8.80011 113.192 9.43453ZM192.997 7.88922C191.505 7.31051 189.977 6.75834 188.457 6.24828L188.714 5.484C190.245 5.99818 191.784 6.55447 193.288 7.13792L192.997 7.88922ZM122.181 6.02061L121.93 5.25475C123.461 4.75257 125.024 4.27971 126.574 3.84975L126.789 4.62624C125.251 5.05305 123.701 5.52219 122.181 6.02061ZM183.858 4.82223C182.321 4.38401 180.753 3.97589 179.198 3.60929L179.383 2.82493C180.95 3.19429 182.53 3.60555 184.079 4.04693L183.858 4.82223ZM131.458 3.44577L131.278 2.66003C132.848 2.3013 134.448 1.97445 136.032 1.68873L136.175 2.48175C134.603 2.7655 133.016 3.08979 131.458 3.44577ZM174.488 2.6128C172.918 2.31821 171.32 2.05612 169.737 1.83376L169.848 1.03562C171.444 1.25975 173.055 1.52383 174.636 1.82057L174.488 2.6128ZM140.932 1.73576L140.825 0.936841C142.42 0.723927 144.043 0.544858 145.647 0.405145L145.717 1.208C144.125 1.34692 142.515 1.5244 140.932 1.73576ZM164.954 1.27333C163.367 1.12378 161.751 1.00847 160.152 0.931134L160.191 0.125917C161.802 0.204039 163.43 0.320137 165.03 0.470888L164.954 1.27333ZM150.523 0.898863L150.489 0.0936635C151.97 0.0318752 153.48 0.000394942 154.976 0L155.341 0.000587261L155.339 0.806592L154.976 0.806005C153.491 0.80638 151.993 0.837663 150.523 0.898863Z" fill="#8885AE"/>
<path d="M140.909 160.38C140.517 160.38 140.132 160.277 139.791 160.083L75.166 123.363C74.64 123.064 74.255 122.567 74.093 121.982C73.931 121.398 74.007 120.772 74.304 120.244L125.205 29.761C125.352 29.4993 125.549 29.2693 125.784 29.0841C126.02 28.8989 126.29 28.7622 126.578 28.6818C126.866 28.6014 127.167 28.5788 127.464 28.6154C127.761 28.652 128.048 28.747 128.308 28.895L192.933 65.6148C193.459 65.914 193.844 66.4105 194.006 66.9952C194.168 67.58 194.092 68.2052 193.795 68.7339L142.895 159.216C142.748 159.479 142.551 159.709 142.315 159.894C142.08 160.08 141.81 160.216 141.521 160.296C141.322 160.352 141.116 160.38 140.909 160.38Z" fill="#E6E6E6"/>
<path d="M123.358 33.4961L123.097 33.9574L191.683 72.7383L191.944 72.2769L123.358 33.4961Z" fill="white"/>
<path d="M118.664 41.7998L118.403 42.2611L186.989 81.042L187.25 80.5807L118.664 41.7998Z" fill="white"/>
<path d="M113.97 50.104L113.709 50.5653L182.295 89.3462L182.556 88.8849L113.97 50.104Z" fill="white"/>
<path d="M109.276 58.408L109.015 58.8694L177.601 97.6502L177.862 97.1889L109.276 58.408Z" fill="white"/>
<path d="M104.581 66.7117L104.321 67.173L172.906 105.954L173.167 105.493L104.581 66.7117Z" fill="white"/>
<path d="M99.887 75.0156L99.626 75.4769L168.212 114.258L168.473 113.796L99.887 75.0156Z" fill="white"/>
<path d="M95.193 83.3198L94.932 83.7811L163.518 122.562L163.779 122.101L95.193 83.3198Z" fill="white"/>
<path d="M90.499 91.6233L90.239 92.0846L158.824 130.866L159.085 130.404L90.499 91.6233Z" fill="white"/>
<path d="M85.8049 99.9272L85.5439 100.389L154.13 139.169L154.391 138.708L85.8049 99.9272Z" fill="white"/>
<path d="M81.111 108.231L80.85 108.693L149.436 147.473L149.697 147.012L81.111 108.231Z" fill="white"/>
<path d="M76.417 116.535L76.156 116.996L144.742 155.777L145.003 155.316L76.417 116.535Z" fill="white"/>
<path d="M134.865 146.678C134.473 146.677 134.088 146.575 133.747 146.38L69.122 109.661C68.596 109.361 68.21 108.865 68.049 108.28C67.887 107.695 67.963 107.07 68.26 106.541L119.161 16.0587C119.308 15.7969 119.505 15.5669 119.74 15.3817C119.976 15.1965 120.246 15.0598 120.534 14.9794C120.822 14.899 121.123 14.8764 121.42 14.913C121.717 14.9496 122.004 15.0446 122.264 15.1926L186.889 51.9124C187.415 52.2117 187.8 52.7081 187.962 53.2929C188.124 53.8776 188.048 54.5029 187.751 55.0315L136.85 145.514C136.704 145.776 136.507 146.007 136.271 146.192C136.036 146.377 135.766 146.514 135.477 146.594C135.278 146.649 135.072 146.678 134.865 146.678Z" fill="#F2F2F2"/>
<path d="M117.321 19.7441L117.06 20.2054L185.646 58.9863L185.907 58.525L117.321 19.7441Z" fill="white"/>
<path d="M112.627 28.0479L112.366 28.5093L180.952 67.2901L181.213 66.8288L112.627 28.0479Z" fill="white"/>
<path d="M107.933 36.3513L107.672 36.8126L176.258 75.5935L176.519 75.1322L107.933 36.3513Z" fill="white"/>
<path d="M103.239 44.655L102.978 45.1163L171.564 83.8972L171.825 83.4359L103.239 44.655Z" fill="white"/>
<path d="M98.5439 52.959L98.2839 53.4203L166.87 92.2012L167.13 91.7399L98.5439 52.959Z" fill="white"/>
<path d="M93.851 61.2629L93.59 61.7243L162.176 100.505L162.436 100.044L93.851 61.2629Z" fill="white"/>
<path d="M89.156 69.5669L88.896 70.0282L157.481 108.809L157.742 108.348L89.156 69.5669Z" fill="white"/>
<path d="M84.462 77.8708L84.202 78.3324L152.787 117.113L153.048 116.652L84.462 77.8708Z" fill="white"/>
<path d="M79.768 86.1748L79.507 86.6361L148.093 125.417L148.354 124.956L79.768 86.1748Z" fill="white"/>
<path d="M75.074 94.4785L74.813 94.9398L143.399 133.721L143.66 133.259L75.074 94.4785Z" fill="white"/>
<path d="M70.38 102.782L70.119 103.244L138.705 142.025L138.966 141.563L70.38 102.782Z" fill="white"/>
<path d="M128.609 14.4932H24.447V158.768H128.609C128.983 158.768 129.342 158.62 129.607 158.356C129.871 158.093 130.02 157.735 130.02 157.363V15.8984C130.02 15.5257 129.871 15.1683 129.607 14.9048C129.342 14.6412 128.983 14.4932 128.609 14.4932ZM30.325 154.786C29.814 154.786 29.313 154.635 28.888 154.352C28.463 154.069 28.131 153.667 27.936 153.196C27.74 152.725 27.689 152.207 27.788 151.707C27.888 151.208 28.135 150.749 28.496 150.388C28.858 150.028 29.319 149.783 29.821 149.683C30.322 149.584 30.842 149.635 31.315 149.83C31.788 150.025 32.192 150.355 32.476 150.779C32.76 151.202 32.912 151.701 32.912 152.21C32.912 152.548 32.845 152.883 32.715 153.196C32.585 153.509 32.394 153.793 32.154 154.032C31.914 154.271 31.629 154.461 31.315 154.59C31.001 154.72 30.665 154.786 30.325 154.786ZM30.325 141.671C29.814 141.671 29.313 141.519 28.888 141.236C28.463 140.953 28.131 140.551 27.936 140.08C27.74 139.609 27.689 139.091 27.788 138.592C27.888 138.092 28.134 137.633 28.496 137.272C28.858 136.912 29.319 136.667 29.821 136.567C30.322 136.468 30.842 136.519 31.315 136.714C31.788 136.909 32.192 137.239 32.476 137.663C32.76 138.087 32.912 138.585 32.912 139.094C32.912 139.433 32.845 139.768 32.715 140.08C32.585 140.393 32.394 140.677 32.154 140.916C31.914 141.155 31.629 141.345 31.315 141.474C31.001 141.604 30.665 141.671 30.325 141.671ZM30.325 128.555C29.814 128.555 29.313 128.404 28.888 128.12C28.463 127.837 28.131 127.435 27.936 126.964C27.74 126.493 27.689 125.975 27.788 125.476C27.888 124.976 28.134 124.517 28.496 124.157C28.858 123.796 29.319 123.551 29.821 123.451C30.322 123.352 30.842 123.403 31.315 123.598C31.788 123.793 32.192 124.123 32.476 124.547C32.76 124.971 32.912 125.469 32.912 125.978C32.912 126.317 32.845 126.652 32.715 126.964C32.585 127.277 32.394 127.561 32.154 127.8C31.914 128.039 31.629 128.229 31.315 128.359C31.001 128.488 30.665 128.555 30.325 128.555ZM30.325 115.439C29.814 115.439 29.313 115.288 28.888 115.005C28.463 114.721 28.131 114.319 27.936 113.848C27.74 113.378 27.689 112.86 27.788 112.36C27.888 111.86 28.134 111.401 28.496 111.041C28.858 110.68 29.319 110.435 29.821 110.336C30.322 110.236 30.842 110.287 31.315 110.482C31.788 110.677 32.192 111.007 32.476 111.431C32.76 111.855 32.912 112.353 32.912 112.862C32.912 113.201 32.845 113.536 32.715 113.848C32.585 114.161 32.394 114.445 32.154 114.684C31.914 114.923 31.629 115.113 31.315 115.243C31.001 115.372 30.665 115.439 30.325 115.439ZM30.325 102.323C29.814 102.323 29.313 102.172 28.888 101.889C28.463 101.606 28.131 101.203 27.936 100.732C27.74 100.262 27.689 99.7436 27.788 99.2439C27.888 98.7441 28.134 98.2851 28.496 97.9248C28.858 97.5644 29.319 97.3191 29.821 97.2197C30.322 97.1203 30.842 97.1713 31.315 97.3663C31.788 97.5613 32.192 97.8915 32.476 98.3152C32.76 98.7388 32.912 99.2369 32.912 99.7465C32.912 100.085 32.845 100.42 32.715 100.732C32.585 101.045 32.394 101.329 32.154 101.568C31.914 101.807 31.629 101.997 31.315 102.127C31.001 102.256 30.665 102.323 30.325 102.323ZM30.325 89.2069C29.814 89.2069 29.313 89.0558 28.888 88.7727C28.463 88.4896 28.131 88.0873 27.936 87.6165C27.74 87.1458 27.689 86.6277 27.788 86.128C27.888 85.6282 28.134 85.1692 28.496 84.8089C28.858 84.4485 29.319 84.2032 29.821 84.1038C30.322 84.0044 30.842 84.0554 31.315 84.2504C31.788 84.4454 32.192 84.7756 32.476 85.1993C32.76 85.6229 32.912 86.121 32.912 86.6306C32.912 86.9689 32.845 87.3039 32.715 87.6165C32.585 87.9291 32.394 88.2131 32.154 88.4524C31.914 88.6916 31.629 88.8814 31.315 89.0108C31.001 89.1403 30.665 89.2069 30.325 89.2069ZM30.325 76.091C29.814 76.091 29.313 75.9399 28.888 75.6568C28.463 75.3738 28.131 74.9714 27.936 74.5006C27.74 74.0299 27.689 73.5118 27.788 73.0121C27.888 72.5123 28.134 72.0533 28.496 71.693C28.858 71.3326 29.319 71.0873 29.821 70.9879C30.322 70.8885 30.842 70.9395 31.315 71.1345C31.788 71.3295 32.192 71.6597 32.476 72.0834C32.76 72.507 32.912 73.0051 32.912 73.5147C32.912 73.853 32.845 74.188 32.715 74.5006C32.585 74.8132 32.394 75.0972 32.154 75.3365C31.914 75.5757 31.629 75.7655 31.315 75.8949C31.001 76.0244 30.665 76.091 30.325 76.091ZM30.325 62.9751C29.814 62.9751 29.313 62.824 28.888 62.541C28.463 62.2579 28.131 61.8555 27.936 61.3847C27.74 60.914 27.689 60.3959 27.788 59.8962C27.888 59.3964 28.134 58.9374 28.496 58.5771C28.858 58.2168 29.319 57.9714 29.821 57.872C30.322 57.7726 30.842 57.8236 31.315 58.0186C31.788 58.2136 32.192 58.5438 32.476 58.9675C32.76 59.3912 32.912 59.8893 32.912 60.3988C32.912 60.7371 32.845 61.0722 32.715 61.3847C32.585 61.6973 32.394 61.9813 32.154 62.2206C31.914 62.4598 31.629 62.6496 31.315 62.779C31.001 62.9085 30.665 62.9751 30.325 62.9751ZM30.325 49.8592C29.814 49.8592 29.313 49.7081 28.888 49.4251C28.463 49.142 28.131 48.7396 27.936 48.2688C27.74 47.7981 27.689 47.28 27.788 46.7803C27.888 46.2805 28.134 45.8215 28.496 45.4612C28.858 45.1009 29.319 44.8555 29.821 44.7561C30.322 44.6567 30.842 44.7077 31.315 44.9027C31.788 45.0977 32.192 45.4279 32.476 45.8516C32.76 46.2753 32.912 46.7734 32.912 47.2829C32.912 47.6212 32.845 47.9563 32.715 48.2688C32.585 48.5814 32.394 48.8654 32.154 49.1047C31.914 49.3439 31.629 49.5337 31.315 49.6631C31.001 49.7926 30.665 49.8592 30.325 49.8592ZM30.325 36.7433C29.814 36.7433 29.313 36.5923 28.888 36.3092C28.463 36.0261 28.131 35.6237 27.936 35.1529C27.74 34.6822 27.689 34.1642 27.788 33.6644C27.888 33.1646 28.135 32.7056 28.496 32.3453C28.858 31.985 29.319 31.7396 29.821 31.6402C30.322 31.5408 30.842 31.5918 31.315 31.7868C31.788 31.9818 32.192 32.312 32.476 32.7357C32.76 33.1593 32.912 33.6575 32.912 34.167C32.912 34.5053 32.845 34.8404 32.715 35.1529C32.585 35.4655 32.394 35.7495 32.154 35.9888C31.914 36.228 31.629 36.4178 31.315 36.5472C31.001 36.6767 30.665 36.7433 30.325 36.7433ZM30.325 23.6275C29.814 23.6275 29.313 23.4764 28.888 23.1933C28.463 22.9102 28.131 22.5078 27.936 22.037C27.74 21.5663 27.689 21.0483 27.788 20.5485C27.888 20.0487 28.135 19.5897 28.496 19.2294C28.858 18.8691 29.319 18.6237 29.821 18.5243C30.322 18.4249 30.842 18.4759 31.315 18.6709C31.788 18.8659 32.192 19.1961 32.476 19.6198C32.76 20.0435 32.912 20.5416 32.912 21.0511C32.912 21.3894 32.845 21.7245 32.715 22.037C32.585 22.3496 32.394 22.6336 32.154 22.8729C31.914 23.1121 31.629 23.3019 31.315 23.4313C31.001 23.5608 30.665 23.6275 30.325 23.6275Z" fill="#7F7E8A"/>
<path d="M24.85 22.5533C24.149 22.5533 18 22.5194 18 21.3443C18 20.1691 24.149 20.1353 24.85 20.1353V20.6189C21.228 20.6189 18.88 21.0339 18.502 21.3443C18.88 21.6547 21.228 22.0697 24.85 22.0697C28.464 22.0697 30.81 21.6564 31.196 21.3464C31.012 21.2136 30.261 20.9352 28.248 20.757L28.289 20.2753C31.7 20.5771 31.7 21.1345 31.7 21.3443C31.7 22.5194 25.551 22.5533 24.85 22.5533Z" fill="#2F2E41"/>
<path d="M24.85 35.046C24.149 35.046 18 35.0178 18 34.0385C18 33.0593 24.149 33.031 24.85 33.031V33.434C21.228 33.434 18.88 33.7799 18.502 34.0385C18.88 34.2972 21.228 34.643 24.85 34.643C28.464 34.643 30.81 34.2987 31.196 34.0403C31.012 33.9296 30.261 33.6976 28.248 33.5492L28.289 33.1477C31.7 33.3992 31.7 33.8637 31.7 34.0385C31.7 35.0178 25.551 35.046 24.85 35.046Z" fill="#2F2E41"/>
<path d="M24.85 48.3451C24.149 48.3451 18 48.3169 18 47.3376C18 46.3583 24.149 46.3301 24.85 46.3301V46.7331C21.228 46.7331 18.88 47.0789 18.502 47.3376C18.88 47.5963 21.228 47.9421 24.85 47.9421C28.464 47.9421 30.81 47.5977 31.196 47.3394C31.012 47.2287 30.261 46.9967 28.248 46.8482L28.289 46.4468C31.7 46.6983 31.7 47.1628 31.7 47.3376C31.7 48.3169 25.551 48.3451 24.85 48.3451Z" fill="#2F2E41"/>
<path d="M24.85 61.6443C24.149 61.6443 18 61.6047 18 60.2338C18 58.8628 24.149 58.8232 24.85 58.8232V59.3875C21.228 59.3875 18.88 59.8716 18.502 60.2338C18.88 60.5959 21.228 61.0801 24.85 61.0801C28.464 61.0801 30.81 60.5979 31.196 60.2362C31.012 60.0813 30.261 59.7565 28.248 59.5486L28.289 58.9866C31.7 59.3387 31.7 59.989 31.7 60.2338C31.7 61.6047 25.551 61.6443 24.85 61.6443Z" fill="#2F2E41"/>
<path d="M24.85 74.9433C24.149 74.9433 18 74.9038 18 73.5328C18 72.1618 24.149 72.1223 24.85 72.1223V72.6865C21.228 72.6865 18.88 73.1707 18.502 73.5328C18.88 73.8949 21.228 74.3791 24.85 74.3791C28.464 74.3791 30.81 73.897 31.196 73.5353C31.012 73.3803 30.261 73.0555 28.248 72.8477L28.289 72.2857C31.7 72.6378 31.7 73.2881 31.7 73.5328C31.7 74.9038 25.551 74.9433 24.85 74.9433Z" fill="#2F2E41"/>
<path d="M24.85 87.8397C24.149 87.8397 18 87.8058 18 86.6306C18 85.4555 24.149 85.4216 24.85 85.4216V85.9052C21.228 85.9052 18.88 86.3202 18.502 86.6306C18.88 86.941 21.228 87.3561 24.85 87.3561C28.464 87.3561 30.81 86.9428 31.196 86.6328C31.012 86.4999 30.261 86.2215 28.248 86.0434L28.289 85.5617C31.7 85.8634 31.7 86.4209 31.7 86.6306C31.7 87.8058 25.551 87.8397 24.85 87.8397Z" fill="#2F2E41"/>
<path d="M24.85 100.735C24.149 100.735 18 100.707 18 99.7277C18 98.7485 24.149 98.7202 24.85 98.7202V99.1232C21.228 99.1232 18.88 99.4691 18.502 99.7277C18.88 99.9864 21.228 100.332 24.85 100.332C28.464 100.332 30.81 99.9879 31.196 99.7295C31.012 99.6188 30.261 99.3868 28.248 99.2384L28.289 98.8369C31.7 99.0884 31.7 99.5529 31.7 99.7277C31.7 100.707 25.551 100.735 24.85 100.735Z" fill="#2F2E41"/>
<path d="M24.85 114.035C24.149 114.035 18 114.001 18 112.826C18 111.651 24.149 111.617 24.85 111.617V112.1C21.228 112.1 18.88 112.515 18.502 112.826C18.88 113.136 21.228 113.551 24.85 113.551C28.464 113.551 30.81 113.138 31.196 112.828C31.012 112.695 30.261 112.417 28.248 112.239L28.289 111.757C31.7 112.059 31.7 112.616 31.7 112.826C31.7 114.001 25.551 114.035 24.85 114.035Z" fill="#2F2E41"/>
<path d="M24.85 127.334C24.149 127.334 18 127.295 18 125.924C18 124.553 24.149 124.513 24.85 124.513V125.077C21.228 125.077 18.88 125.561 18.502 125.924C18.88 126.286 21.228 126.77 24.85 126.77C28.464 126.77 30.81 126.288 31.196 125.926C31.012 125.771 30.261 125.446 28.248 125.238L28.289 124.676C31.7 125.028 31.7 125.679 31.7 125.924C31.7 127.295 25.551 127.334 24.85 127.334Z" fill="#2F2E41"/>
<path d="M24.85 140.23C24.149 140.23 18 140.196 18 139.021C18 137.846 24.149 137.812 24.85 137.812V138.295C21.228 138.295 18.88 138.71 18.502 139.021C18.88 139.331 21.228 139.746 24.85 139.746C28.464 139.746 30.81 139.333 31.196 139.023C31.012 138.89 30.261 138.612 28.248 138.434L28.289 137.952C31.7 138.254 31.7 138.811 31.7 139.021C31.7 140.196 25.551 140.23 24.85 140.23Z" fill="#2F2E41"/>
<path d="M24.85 153.529C24.149 153.529 18 153.495 18 152.32C18 151.145 24.149 151.111 24.85 151.111V151.595C21.228 151.595 18.88 152.01 18.502 152.32C18.88 152.63 21.228 153.046 24.85 153.046C28.464 153.046 30.81 152.632 31.196 152.322C31.012 152.189 30.261 151.911 28.248 151.733L28.289 151.251C31.7 151.553 31.7 152.11 31.7 152.32C31.7 153.495 25.551 153.529 24.85 153.529Z" fill="#2F2E41"/>
<path d="M107.146 69.7045H55.783C55.381 69.7041 54.995 69.545 54.711 69.2623C54.426 68.9795 54.266 68.5962 54.266 68.1963V48.2416C54.266 47.8417 54.426 47.4584 54.711 47.1756C54.995 46.8929 55.381 46.7338 55.783 46.7334H107.146C107.549 46.7338 107.935 46.8929 108.219 47.1756C108.504 47.4584 108.664 47.8417 108.664 48.2416V68.1963C108.664 68.5962 108.504 68.9795 108.219 69.2623C107.935 69.545 107.549 69.7041 107.146 69.7045Z" fill="white"/>
<path d="M88.162 53.1815H75.17C74.862 53.1815 74.567 53.0753 74.35 52.8864C74.132 52.6975 74.01 52.4412 74.01 52.174C74.01 51.9068 74.132 51.6505 74.35 51.4616C74.567 51.2726 74.862 51.1665 75.17 51.1665H88.162C88.47 51.1665 88.765 51.2726 88.982 51.4616C89.2 51.6505 89.322 51.9068 89.322 52.174C89.322 52.4412 89.2 52.6975 88.982 52.8864C88.765 53.0753 88.47 53.1815 88.162 53.1815Z" fill="#B59B41"/>
<path d="M95.395 58.8236H67.534C67.221 58.8236 66.921 58.7174 66.7 58.5285C66.478 58.3396 66.354 58.0833 66.354 57.8161C66.354 57.5489 66.478 57.2926 66.7 57.1037C66.921 56.9147 67.221 56.8086 67.534 56.8086H95.395C95.708 56.8086 96.008 56.9147 96.229 57.1037C96.451 57.2926 96.575 57.5489 96.575 57.8161C96.575 58.0833 96.451 58.3396 96.229 58.5285C96.008 58.7174 95.708 58.8236 95.395 58.8236Z" fill="#B59B41"/>
<path d="M95.395 65.2715H67.534C67.221 65.2715 66.921 65.1228 66.7 64.8583C66.478 64.5938 66.354 64.235 66.354 63.8609C66.354 63.4869 66.478 63.1281 66.7 62.8636C66.921 62.599 67.221 62.4504 67.534 62.4504H95.395C95.708 62.4504 96.008 62.599 96.229 62.8636C96.451 63.1281 96.575 63.4869 96.575 63.8609C96.575 64.235 96.451 64.5938 96.229 64.8583C96.008 65.1228 95.708 65.2715 95.395 65.2715Z" fill="#B59B41"/>
<path d="M237.285 196.924L241.49 262.108C241.49 262.108 251.582 287.761 251.161 312.152C251.161 312.152 247.377 321.824 250.32 323.506C253.263 325.189 254.945 326.45 253.263 327.712C251.582 328.973 250.32 331.917 251.582 332.758C252.843 333.599 253.263 334.861 252.843 334.861H240.228C240.228 334.861 242.751 328.553 238.967 326.871C235.183 325.189 237.285 320.983 237.285 320.983L209.112 238.557L186.827 314.255C186.827 314.255 190.611 316.778 187.667 318.039C184.724 319.301 183.463 316.778 184.724 319.301C185.986 321.824 184.304 323.086 184.304 323.506C184.304 323.927 171.689 322.245 171.689 322.245C171.689 322.245 177.996 316.778 175.053 315.516C172.109 314.255 170.848 312.993 171.689 312.152C172.53 311.311 175.894 303.321 175.894 303.321C175.894 303.321 177.576 273.042 177.996 271.78C178.417 270.518 177.996 264.631 177.996 261.687C177.996 258.743 177.576 246.968 178.837 244.024C180.099 241.081 181.36 204.914 188.088 200.709C194.816 196.503 237.285 196.924 237.285 196.924Z" fill="#2F2E41"/>
<path d="M183.883 321.404C183.883 321.404 192.293 338.646 186.406 340.749C180.519 342.851 172.95 341.169 171.268 343.692C169.586 346.216 151.085 349.159 150.665 342.851C150.244 336.543 170.848 324.768 170.848 324.768L173.532 320.446L183.883 321.404Z" fill="#505050"/>
<path d="M251.072 326.362C251.072 326.362 259.481 343.604 253.595 345.707C247.708 347.81 240.139 346.128 238.457 348.651C236.775 351.174 218.274 354.118 217.853 347.81C217.433 341.502 238.037 329.726 238.037 329.726L240.721 325.404L251.072 326.362Z" fill="#505050"/>
<path d="M213.107 117.652C220.77 117.652 226.983 111.439 226.983 103.774C226.983 96.1098 220.77 89.8965 213.107 89.8965C205.443 89.8965 199.231 96.1098 199.231 103.774C199.231 111.439 205.443 117.652 213.107 117.652Z" fill="#FFBEC7"/>
<path d="M222.568 111.133L220.886 123.329L208.272 133.001L204.908 128.375V112.395L222.568 111.133Z" fill="#FFBEC7"/>
<path d="M202.805 126.693C202.805 126.693 215.84 127.955 222.568 123.329L236.023 202.811C236.023 202.811 188.508 206.596 186.406 204.073V179.261L194.815 138.889L202.805 126.693Z" fill="white"/>
<path d="M221.41 119.529L225.932 123.329C225.932 123.329 244.433 126.273 243.172 131.319L238.126 191.036L239.808 211.222C239.808 211.222 225.511 207.437 214.579 211.222C203.646 215.007 212.332 129.888 212.332 129.888C212.332 129.888 222.355 120.775 221.41 119.529Z" fill="#7B7B7B"/>
<path d="M204.907 124.132C204.907 124.132 191.451 133.843 189.769 140.151C188.088 146.459 182.621 212.904 182.621 212.904C182.621 212.904 185.144 211.643 186.406 213.745C187.667 215.848 207.009 127.458 204.907 124.132Z" fill="#7B7B7B"/>
<path d="M199.237 103.169C199.237 103.169 197.735 100.916 198.313 98.4888C198.658 97.1109 198.794 95.689 198.717 94.2706C198.717 94.2706 199.931 90.3413 201.144 88.1456C202.357 85.9498 201.779 85.0253 205.593 84.3319C209.406 83.6385 207.846 78.6692 217.899 84.043C218.238 84.5166 218.71 84.8791 219.255 85.0848C219.8 85.2905 220.393 85.3301 220.961 85.1986C223.041 84.7942 223.792 87.6833 223.792 87.6833C223.792 87.6833 225.179 86.8743 225.699 88.03C226.219 89.1857 229.926 87.3364 229.926 95.1371C229.926 102.938 225.707 109.906 225.707 109.906C225.707 109.906 226.016 96.7842 219.141 95.4552C212.266 94.1262 204.87 90.2547 203.079 95.224C202.113 98.0131 200.823 100.68 199.237 103.169Z" fill="#626262"/>
<path d="M168.868 234.53C165.54 232.529 161.529 232.682 160.003 232.835C160.584 234.253 162.327 237.87 165.654 239.873C168.99 241.879 172.996 241.721 174.519 241.57C173.938 240.152 172.195 236.533 168.868 234.53Z" fill="#D0CDE1"/>
<path d="M184.503 274.239H163.707C162.466 274.239 161.276 274.732 160.398 275.61C159.521 276.487 159.028 277.678 159.028 278.919C159.028 280.16 159.521 281.35 160.398 282.228C161.276 283.105 162.466 283.598 163.707 283.598H184.503C185.743 283.597 186.932 283.104 187.808 282.226C188.685 281.349 189.177 280.159 189.177 278.919C189.177 277.679 188.685 276.489 187.808 275.611C186.932 274.734 185.743 274.24 184.503 274.239Z" fill="#D0CDE1"/>
<path d="M278.672 224.844H162.077C160.721 224.844 159.378 225.111 158.125 225.63C156.872 226.149 155.733 226.91 154.774 227.869C153.815 228.828 153.054 229.967 152.535 231.22C152.016 232.474 151.749 233.817 151.749 235.173V291.988C151.749 294.727 152.837 297.355 154.774 299.292C156.711 301.229 159.338 302.317 162.077 302.317H278.672C280.028 302.317 281.371 302.05 282.624 301.531C283.877 301.012 285.016 300.251 285.975 299.292C286.934 298.333 287.695 297.194 288.214 295.941C288.733 294.687 289 293.344 289 291.988V235.173C289 233.817 288.733 232.474 288.214 231.22C287.695 229.967 286.934 228.828 285.975 227.869C285.016 226.91 283.877 226.149 282.624 225.63C281.371 225.111 280.028 224.844 278.672 224.844ZM159.193 231.89C159.423 231.848 164.883 230.919 169.403 233.64C173.924 236.36 175.661 241.62 175.732 241.842L175.915 242.41L175.329 242.514C174.492 242.644 173.645 242.706 172.798 242.699C170.745 242.699 167.77 242.36 165.118 240.763C160.597 238.044 158.86 232.784 158.789 232.561L158.606 231.994L159.193 231.89ZM184.502 284.639H163.707C162.19 284.639 160.735 284.036 159.663 282.963C158.59 281.891 157.988 280.436 157.988 278.919C157.988 277.402 158.59 275.947 159.663 274.875C160.735 273.802 162.19 273.2 163.707 273.2H184.502C186.019 273.2 187.474 273.802 188.546 274.875C189.619 275.947 190.221 277.402 190.221 278.919C190.221 280.436 189.619 281.891 188.546 282.963C187.474 284.036 186.019 284.639 184.502 284.639ZM279.122 283.599C279.117 285.252 278.458 286.836 277.29 288.005C276.121 289.174 274.537 289.833 272.883 289.838H257.287C255.634 289.833 254.05 289.174 252.881 288.005C251.712 286.836 251.053 285.252 251.048 283.599V274.24C251.053 272.586 251.712 271.002 252.881 269.833C254.05 268.664 255.634 268.005 257.287 268H272.883C274.537 268.005 276.121 268.664 277.29 269.833C278.458 271.002 279.117 272.586 279.122 274.24V283.599Z" fill="#D0CDE1"/>
<path d="M262.226 281.779H255.468C254.985 281.779 254.522 281.97 254.181 282.312C253.84 282.653 253.648 283.116 253.648 283.598C253.648 284.081 253.84 284.544 254.181 284.885C254.522 285.227 254.985 285.418 255.468 285.418H262.226C262.709 285.418 263.172 285.227 263.513 284.885C263.854 284.544 264.046 284.081 264.046 283.598C264.046 283.116 263.854 282.653 263.513 282.312C263.172 281.97 262.709 281.779 262.226 281.779ZM262.226 284.378H255.468C255.365 284.379 255.264 284.359 255.169 284.32C255.074 284.28 254.988 284.223 254.915 284.151C254.843 284.078 254.785 283.992 254.746 283.897C254.706 283.803 254.686 283.701 254.686 283.598C254.686 283.496 254.706 283.394 254.746 283.3C254.785 283.205 254.843 283.119 254.915 283.046C254.988 282.974 255.074 282.916 255.169 282.877C255.264 282.838 255.365 282.818 255.468 282.818H262.226C262.329 282.818 262.431 282.838 262.525 282.877C262.62 282.916 262.706 282.974 262.779 283.046C262.852 283.119 262.909 283.205 262.948 283.3C262.988 283.394 263.008 283.496 263.008 283.598C263.008 283.701 262.988 283.803 262.948 283.897C262.909 283.992 262.852 284.078 262.779 284.151C262.706 284.223 262.62 284.28 262.525 284.32C262.431 284.359 262.329 284.379 262.226 284.378Z" fill="#B59B41"/>
<path d="M274.703 281.779H267.945C267.706 281.778 267.469 281.825 267.248 281.916C267.027 282.008 266.826 282.142 266.657 282.311C266.487 282.48 266.353 282.68 266.261 282.901C266.17 283.122 266.123 283.359 266.123 283.598C266.123 283.838 266.17 284.075 266.261 284.296C266.353 284.516 266.487 284.717 266.657 284.886C266.826 285.055 267.027 285.189 267.248 285.281C267.469 285.372 267.706 285.419 267.945 285.418H274.703C275.186 285.418 275.649 285.227 275.99 284.885C276.331 284.544 276.523 284.081 276.523 283.598C276.523 283.116 276.331 282.653 275.99 282.312C275.649 281.97 275.186 281.779 274.703 281.779ZM274.703 284.378H267.945C267.842 284.379 267.741 284.359 267.646 284.32C267.551 284.28 267.465 284.223 267.392 284.151C267.32 284.078 267.262 283.992 267.223 283.897C267.184 283.803 267.163 283.701 267.163 283.598C267.163 283.496 267.184 283.394 267.223 283.3C267.262 283.205 267.32 283.119 267.392 283.046C267.465 282.974 267.551 282.916 267.646 282.877C267.741 282.838 267.842 282.818 267.945 282.819H274.703C274.91 282.819 275.108 282.901 275.254 283.048C275.4 283.194 275.482 283.392 275.482 283.598C275.482 283.805 275.4 284.003 275.254 284.149C275.108 284.296 274.91 284.378 274.703 284.378Z" fill="#B59B41"/>
<path d="M262.226 277.099H255.468C254.985 277.099 254.522 277.291 254.181 277.632C253.84 277.973 253.648 278.436 253.648 278.919C253.648 279.402 253.84 279.864 254.181 280.206C254.522 280.547 254.985 280.739 255.468 280.739H262.226C262.466 280.739 262.702 280.692 262.924 280.601C263.145 280.51 263.346 280.376 263.515 280.207C263.684 280.038 263.818 279.837 263.91 279.616C264.002 279.395 264.049 279.158 264.049 278.919C264.049 278.68 264.002 278.443 263.91 278.222C263.818 278.001 263.684 277.8 263.515 277.631C263.346 277.462 263.145 277.328 262.924 277.237C262.702 277.145 262.466 277.099 262.226 277.099ZM262.226 279.699H255.468C255.261 279.699 255.063 279.617 254.916 279.47C254.77 279.324 254.688 279.126 254.688 278.919C254.688 278.712 254.77 278.514 254.916 278.367C255.063 278.221 255.261 278.139 255.468 278.139H262.226C262.433 278.139 262.632 278.221 262.778 278.367C262.924 278.514 263.006 278.712 263.006 278.919C263.006 279.126 262.924 279.324 262.778 279.47C262.632 279.617 262.433 279.699 262.226 279.699Z" fill="#B59B41"/>
<path d="M274.703 277.099H267.945C267.706 277.099 267.469 277.145 267.248 277.237C267.027 277.328 266.826 277.462 266.657 277.631C266.487 277.8 266.353 278.001 266.261 278.222C266.17 278.443 266.123 278.68 266.123 278.919C266.123 279.158 266.17 279.395 266.261 279.616C266.353 279.837 266.487 280.038 266.657 280.207C266.826 280.376 267.027 280.51 267.248 280.601C267.469 280.692 267.706 280.739 267.945 280.739H274.703C275.186 280.739 275.649 280.547 275.99 280.206C276.331 279.864 276.523 279.402 276.523 278.919C276.523 278.436 276.331 277.973 275.99 277.632C275.649 277.291 275.186 277.099 274.703 277.099ZM274.703 279.699H267.945C267.738 279.699 267.54 279.617 267.394 279.47C267.247 279.324 267.165 279.126 267.165 278.919C267.165 278.712 267.247 278.514 267.394 278.367C267.54 278.221 267.738 278.139 267.945 278.139H274.703C274.91 278.139 275.109 278.221 275.255 278.367C275.401 278.514 275.483 278.712 275.483 278.919C275.483 279.126 275.401 279.324 275.255 279.47C275.109 279.617 274.91 279.699 274.703 279.699Z" fill="#B59B41"/>
<path d="M262.226 272.42H255.468C254.985 272.42 254.522 272.611 254.181 272.953C253.84 273.294 253.648 273.757 253.648 274.239C253.648 274.722 253.84 275.185 254.181 275.526C254.522 275.868 254.985 276.059 255.468 276.059H262.226C262.709 276.059 263.172 275.868 263.513 275.526C263.854 275.185 264.046 274.722 264.046 274.239C264.046 273.757 263.854 273.294 263.513 272.953C263.172 272.611 262.709 272.42 262.226 272.42ZM262.226 275.019H255.468C255.261 275.019 255.063 274.937 254.916 274.791C254.77 274.645 254.688 274.446 254.688 274.239C254.688 274.033 254.77 273.834 254.916 273.688C255.063 273.542 255.261 273.459 255.468 273.459H262.226C262.433 273.459 262.632 273.542 262.778 273.688C262.924 273.834 263.006 274.033 263.006 274.239C263.006 274.446 262.924 274.645 262.778 274.791C262.632 274.937 262.433 275.019 262.226 275.019Z" fill="#B59B41"/>
<path d="M274.704 272.42H267.945C267.706 272.419 267.469 272.466 267.248 272.557C267.027 272.649 266.826 272.783 266.657 272.952C266.487 273.121 266.353 273.321 266.261 273.542C266.17 273.763 266.123 274 266.123 274.239C266.123 274.479 266.17 274.715 266.261 274.936C266.353 275.157 266.487 275.358 266.657 275.527C266.826 275.696 267.027 275.83 267.248 275.922C267.469 276.013 267.706 276.06 267.945 276.059H274.704C275.186 276.059 275.648 275.866 275.988 275.525C276.329 275.184 276.52 274.722 276.52 274.239C276.52 273.757 276.329 273.295 275.988 272.954C275.648 272.612 275.186 272.42 274.704 272.42ZM274.704 275.019H267.945C267.738 275.019 267.54 274.937 267.394 274.791C267.247 274.645 267.165 274.446 267.165 274.239C267.165 274.033 267.247 273.834 267.394 273.688C267.54 273.542 267.738 273.459 267.945 273.459H274.704C274.91 273.459 275.109 273.542 275.255 273.688C275.401 273.834 275.483 274.033 275.483 274.239C275.483 274.446 275.401 274.645 275.255 274.791C275.109 274.937 274.91 275.019 274.704 275.019Z" fill="#B59B41"/>
<path d="M241.911 212.063L238.896 221.9C238.896 221.9 238.126 240.239 228.035 237.716C217.943 235.193 230.978 213.745 230.978 213.745L233.921 209.119L241.911 212.063Z" fill="#FFBEC7"/>
<path d="M184.724 212.063L181.71 221.9C181.71 221.9 180.94 240.239 170.848 237.716C160.756 235.193 173.791 213.745 173.791 213.745L176.735 209.119L184.724 212.063Z" fill="#FFBEC7"/>
<path d="M239.808 128.375C239.808 128.375 246.536 126.693 248.638 138.048C250.741 149.402 253.264 181.784 253.264 181.784L243.172 215.848C243.172 215.848 233.08 210.381 230.978 211.222L238.919 181.649L232.239 151.505C232.239 151.505 238.126 128.375 239.808 128.375Z" fill="#7B7B7B"/>
<path opacity="0.15" d="M230.026 152.08L238.856 181.518L230.026 211.377L235.071 181.518L230.026 152.08Z" fill="black"/>
<path d="M189.77 151.505L174.632 211.222C174.632 211.222 182.617 213.858 185.561 215.96L189.77 151.505Z" fill="#7B7B7B"/>
<path d="M85.5 319C105.658 319 122 302.658 122 282.5C122 262.342 105.658 246 85.5 246C65.342 246 49 262.342 49 282.5C49 302.658 65.342 319 85.5 319Z" fill="#3F3D56"/>
<path opacity="0.1" d="M86 313C103.121 313 117 299.121 117 282C117 264.879 103.121 251 86 251C68.879 251 55 264.879 55 282C55 299.121 68.879 313 86 313Z" fill="white"/>
<path d="M84.136 300V295.571C81.81 295.528 79.404 294.738 78 293.642L78.962 290.704C80.631 291.907 82.653 292.567 84.738 292.589C87.586 292.589 89.511 290.792 89.511 288.292C89.511 285.881 87.946 284.39 84.979 283.074C80.888 281.32 78.361 279.303 78.361 275.488C78.361 271.849 80.727 269.086 84.417 268.429V264H86.904V268.253C88.758 268.278 90.566 268.81 92.118 269.788L91.115 272.682C89.627 271.702 87.864 271.182 86.061 271.191C82.973 271.191 81.81 273.208 81.81 274.962C81.81 277.242 83.294 278.382 86.783 279.961C90.914 281.803 93 284.083 93 287.985C93 291.449 90.794 294.694 86.663 295.439V300H84.136Z" fill="#B59B41"/>
<path d="M124 356.276C98.474 359.908 72.526 359.908 47 356.276V348C72.553 351.264 98.447 351.264 124 348V356.276Z" fill="#A4A4A4"/>
<path d="M124 342.276C98.474 345.908 72.526 345.908 47 342.276V334C72.553 337.264 98.447 337.264 124 334V342.276Z" fill="#A4A4A4"/>
<path d="M124 328.276C98.474 331.908 72.526 331.908 47 328.276V320C72.553 323.264 98.447 323.264 124 320V328.276Z" fill="#A4A4A4"/>
</svg>
