<svg width="22" height="22" viewBox="0 0 22 22" fill="none" xmlns="http://www.w3.org/2000/svg">
<path d="M10.881 0.000976562C7.99519 0.000976563 5.2276 1.14735 3.18705 3.1879C1.14649 5.22846 0.00012207 7.99604 0.00012207 10.8818C0.00012207 13.7676 1.14649 16.5352 3.18705 18.5757C5.2276 20.6163 7.99519 21.7627 10.881 21.7627C13.7667 21.7627 16.5343 20.6163 18.5749 18.5757C20.6154 16.5352 21.7618 13.7676 21.7618 10.8818C21.7618 7.99604 20.6154 5.22846 18.5749 3.1879C16.5343 1.14735 13.7667 0.000976563 10.881 0.000976562ZM17.0843 14.8469L14.8447 17.0865L10.881 13.1215L6.91594 17.0852L4.67629 14.8456L8.64262 10.8818L4.67759 6.91679L6.91723 4.67844L10.881 8.64218L14.846 4.67715L17.0856 6.91679L13.1193 10.8818L17.0843 14.8469Z" fill="white"/>
</svg>
