<svg width="17" height="17" viewBox="0 0 17 17" fill="none" xmlns="http://www.w3.org/2000/svg">
<path d="M12.9737 0.894737H12.5263V0.447368C12.5263 0.200421 12.3259 0 12.0789 0C11.832 0 11.6316 0.200421 11.6316 0.447368V0.894737H5.36842V0.447368C5.36842 0.200421 5.168 0 4.92105 0C4.67411 0 4.47368 0.200421 4.47368 0.447368V0.894737H4.02632C1.80647 0.894737 0 2.70121 0 4.92105V12.9737C0 15.1935 1.80647 17 4.02632 17H12.9737C15.1935 17 17 15.1935 17 12.9737V4.92105C17 2.70032 15.1935 0.894737 12.9737 0.894737ZM4.02632 1.78947H4.47368V3.13158C4.47368 3.37853 4.67411 3.57895 4.92105 3.57895C5.168 3.57895 5.36842 3.37853 5.36842 3.13158V1.78947H11.6316V3.13158C11.6316 3.37853 11.832 3.57895 12.0789 3.57895C12.3259 3.57895 12.5263 3.37853 12.5263 3.13158V1.78947H12.9737C14.7005 1.78947 16.1053 3.19421 16.1053 4.92105V5.36842H0.894737V4.92105C0.894737 3.19421 2.29947 1.78947 4.02632 1.78947ZM12.9737 16.1053H4.02632C2.29947 16.1053 0.894737 14.7005 0.894737 12.9737V6.26316H16.1053V12.9737C16.1053 14.6996 14.7005 16.1053 12.9737 16.1053ZM12.9737 9.39474C12.9737 9.88863 12.5728 10.2895 12.0789 10.2895C11.5851 10.2895 11.1842 9.88863 11.1842 9.39474C11.1842 8.90084 11.5851 8.5 12.0789 8.5C12.5728 8.5 12.9737 8.89995 12.9737 9.39474ZM9.39474 9.39474C9.39474 9.88863 8.99389 10.2895 8.5 10.2895C8.00611 10.2895 7.60526 9.88863 7.60526 9.39474C7.60526 8.90084 8.00611 8.5 8.5 8.5C8.99389 8.5 9.39474 8.89995 9.39474 9.39474ZM5.81579 9.39474C5.81579 9.88863 5.41495 10.2895 4.92105 10.2895C4.42716 10.2895 4.02632 9.88863 4.02632 9.39474C4.02632 8.90084 4.42716 8.5 4.92105 8.5C5.41495 8.5 5.81579 8.89995 5.81579 9.39474ZM12.9737 12.9737C12.9737 13.4676 12.5728 13.8684 12.0789 13.8684C11.5851 13.8684 11.1842 13.4676 11.1842 12.9737C11.1842 12.4798 11.5851 12.0789 12.0789 12.0789C12.5728 12.0789 12.9737 12.4789 12.9737 12.9737ZM9.39474 12.9737C9.39474 13.4676 8.99389 13.8684 8.5 13.8684C8.00611 13.8684 7.60526 13.4676 7.60526 12.9737C7.60526 12.4798 8.00611 12.0789 8.5 12.0789C8.99389 12.0789 9.39474 12.4789 9.39474 12.9737ZM5.81579 12.9737C5.81579 13.4676 5.41495 13.8684 4.92105 13.8684C4.42716 13.8684 4.02632 13.4676 4.02632 12.9737C4.02632 12.4798 4.42716 12.0789 4.92105 12.0789C5.41495 12.0789 5.81579 12.4789 5.81579 12.9737Z" fill="white"/>
</svg>
