<svg width="34" height="32" viewBox="0 0 34 32" fill="none" xmlns="http://www.w3.org/2000/svg">
<rect width="34" height="32" rx="7" fill="#181818"/>
<path d="M23.0986 12.1162H10.47C10.2037 12.1162 10 12.3199 10 12.5863C10 12.8526 10.2037 13.0563 10.47 13.0563H11.1908L12.3972 22.6609C12.4912 23.366 13.0866 23.8987 13.8074 23.8987H19.7926C20.5134 23.8987 21.1088 23.366 21.2028 22.6609L22.4092 13.0563H23.13C23.3963 13.0563 23.6 12.8526 23.6 12.5863C23.6 12.3199 23.365 12.1162 23.0986 12.1162ZM14.5594 21.8148C14.5438 21.8148 14.5281 21.8148 14.5281 21.8148C14.3088 21.8148 14.1207 21.6425 14.1051 21.4231L13.5724 15.1088C13.5567 14.8738 13.729 14.6701 13.9641 14.6545C14.1991 14.6388 14.4028 14.8111 14.4184 15.0462L14.9512 21.3605C14.9668 21.5955 14.7945 21.7992 14.5594 21.8148ZM17.2074 21.3918C17.2074 21.6268 17.0194 21.8148 16.7843 21.8148C16.5493 21.8148 16.3613 21.6268 16.3613 21.3918V15.0775C16.3613 14.8425 16.5493 14.6545 16.7843 14.6545C17.0194 14.6545 17.2074 14.8425 17.2074 15.0775V21.3918ZM19.4636 21.4231C19.4479 21.6425 19.2599 21.8148 19.0406 21.8148C19.0249 21.8148 19.0092 21.8148 19.0092 21.8148C18.7742 21.7992 18.6018 21.5955 18.6175 21.3605L19.1502 15.0462C19.1659 14.8111 19.3696 14.6388 19.6046 14.6545C19.8396 14.6701 20.012 14.8738 19.9963 15.1088L19.4636 21.4231Z" fill="#DE2A2A"/>
<path d="M10.47 11.4756H23.1143C23.3806 11.4756 23.5843 11.2719 23.5843 11.0055C23.5843 10.7392 23.3806 10.5355 23.1143 10.5355H18.5862V10.3475C18.5862 9.61106 17.9908 9 17.2387 9H16.33C15.5935 9 14.9825 9.59539 14.9825 10.3475V10.5355H10.47C10.2037 10.5355 10 10.7392 10 11.0055C10 11.2719 10.2037 11.4756 10.47 11.4756ZM15.9226 10.3631C15.9226 10.1438 16.0949 9.97143 16.3143 9.97143H17.223C17.4424 9.97143 17.6147 10.1438 17.6147 10.3631V10.5512H15.9226V10.3631Z" fill="#DE2A2A"/>
</svg>
