<svg width="32" height="32" viewBox="0 0 32 32" fill="none" xmlns="http://www.w3.org/2000/svg">
<rect width="32" height="32" rx="10" fill="#434547" fill-opacity="0.51"/>
<path d="M23.3846 10.4607H20.4644C20.0221 10.4607 19.6308 10.1785 19.4913 9.76002L19.232 8.98137C19.0359 8.39388 18.4886 8 17.8699 8H14.1292C13.5105 8 12.9633 8.39386 12.7672 8.98217L12.5079 9.76002C12.3684 10.1793 11.977 10.4615 11.5348 10.4615H8.61538C8.27569 10.4615 8 10.7372 8 11.0769C8 11.4166 8.27569 11.6923 8.61538 11.6923H9.68039L10.3097 21.1282C10.4172 22.7389 11.7653 24 13.3801 24H18.6207C20.2346 24 21.5836 22.7381 21.6911 21.1282L22.3204 11.6923H23.3846C23.7243 11.6923 24 11.4166 24 11.0769C24 10.7372 23.7243 10.4607 23.3846 10.4607ZM13.9347 9.37029C13.9626 9.2866 14.0406 9.22997 14.1292 9.22997H17.8699C17.9586 9.22997 18.0365 9.28662 18.0644 9.36949L18.3237 10.1481C18.3598 10.2564 18.4049 10.3607 18.4558 10.4599H13.5426C13.5934 10.3598 13.6386 10.2565 13.6747 10.1473L13.9347 9.37029ZM20.4619 21.0454C20.3979 22.0119 19.5889 22.7684 18.6199 22.7684H13.3793C12.4111 22.7684 11.6012 22.0119 11.5372 21.0454L10.9137 11.6915H11.5348C11.6226 11.6915 11.7087 11.6808 11.7949 11.671C11.8293 11.6767 11.8605 11.6915 11.8966 11.6915H20.1018C20.1379 11.6915 20.169 11.6767 20.2035 11.671C20.2896 11.6808 20.375 11.6915 20.4636 11.6915H21.0847L20.4619 21.0454ZM18.2564 15.1787V19.2812C18.2564 19.6209 17.9807 19.8966 17.641 19.8966C17.3013 19.8966 17.0256 19.6209 17.0256 19.2812V15.1787C17.0256 14.839 17.3013 14.5633 17.641 14.5633C17.9807 14.5633 18.2564 14.839 18.2564 15.1787ZM14.9744 15.1787V19.2812C14.9744 19.6209 14.6987 19.8966 14.359 19.8966C14.0193 19.8966 13.7436 19.6209 13.7436 19.2812V15.1787C13.7436 14.839 14.0193 14.5633 14.359 14.5633C14.6987 14.5633 14.9744 14.839 14.9744 15.1787Z" fill="white"/>
</svg>
