<svg width="19" height="17" viewBox="0 0 19 17" fill="none" xmlns="http://www.w3.org/2000/svg">
<path d="M6.146 4.854C5.951 4.659 5.951 4.342 6.146 4.147C6.341 3.952 6.65803 3.952 6.85303 4.147L8.99902 6.293V0.5C8.99902 0.224 9.22302 0 9.49902 0C9.77502 0 9.99902 0.224 9.99902 0.5V6.293L12.145 4.147C12.34 3.952 12.657 3.952 12.852 4.147C13.047 4.342 13.047 4.659 12.852 4.854L9.85199 7.854C9.75399 7.952 9.62599 8 9.49799 8C9.36999 8 9.24198 7.951 9.14398 7.854L6.146 4.854ZM14.5 7C14.224 7 14 7.224 14 7.5C14 7.776 14.224 8 14.5 8C16.43 8 18 9.57 18 11.5V12.5C18 14.43 16.43 16 14.5 16H4.5C2.57 16 1 14.43 1 12.5V11.5C1 9.57 2.57 8 4.5 8C4.776 8 5 7.776 5 7.5C5 7.224 4.776 7 4.5 7C2.019 7 0 9.019 0 11.5V12.5C0 14.981 2.019 17 4.5 17H14.5C16.981 17 19 14.981 19 12.5V11.5C19 9.019 16.981 7 14.5 7ZM14.5 12.5C15.052 12.5 15.5 12.052 15.5 11.5C15.5 10.948 15.052 10.5 14.5 10.5C13.948 10.5 13.5 10.948 13.5 11.5C13.5 12.052 13.948 12.5 14.5 12.5Z" fill="white"/>
</svg>
