<svg width="21" height="20" viewBox="0 0 21 20" fill="none" xmlns="http://www.w3.org/2000/svg">
<path d="M0.5 1.66667C0.5 1.02233 1.02233 0.5 1.66667 0.5H7.38095C8.02528 0.5 8.54762 1.02233 8.54762 1.66667V7.38095C8.54762 8.02528 8.02528 8.54762 7.38095 8.54762H1.66667C1.02233 8.54762 0.5 8.02528 0.5 7.38095V1.66667Z" stroke="white"/>
<path d="M0.5 12.619C0.5 11.9747 1.02233 11.4524 1.66667 11.4524H7.38095C8.02528 11.4524 8.54762 11.9747 8.54762 12.619V18.3333C8.54762 18.9777 8.02528 19.5 7.38095 19.5H1.66667C1.02233 19.5 0.5 18.9777 0.5 18.3333V12.619ZM11.2143 12.619C11.2143 11.9747 11.7366 11.4524 12.381 11.4524H18.0952C18.7396 11.4524 19.2619 11.9747 19.2619 12.619V18.3333C19.2619 18.9777 18.7396 19.5 18.0952 19.5H12.381C11.7366 19.5 11.2143 18.9777 11.2143 18.3333V12.619ZM11.6905 4.52381C11.6905 2.30152 13.492 0.5 15.7143 0.5C17.9366 0.5 19.7381 2.30152 19.7381 4.52381C19.7381 6.7461 17.9366 8.54762 15.7143 8.54762C13.492 8.54762 11.6905 6.7461 11.6905 4.52381Z" stroke="white"/>
</svg>
