<svg width="294" height="325" viewBox="0 0 294 325" fill="none" xmlns="http://www.w3.org/2000/svg">
<circle cx="153" cy="140" r="140" fill="#97BBD5" fill-opacity="0.37"/>
<path d="M149 319C229.081 319 294 307.136 294 292.5C294 277.864 229.081 266 149 266C68.9187 266 4 277.864 4 292.5C4 307.136 68.9187 319 149 319Z" fill="#303030"/>
<path d="M125.163 289.703L26.7802 289.222L17.0045 266.267L51.5715 263.755L45.5468 238.587L113.916 229.715L48.4471 206.93L54.2303 205.554L159.503 222.748L153.706 262.025L145.419 283.611L125.163 289.703Z" fill="#3F3D56"/>
<path d="M28.2894 279.608C28.2894 279.608 34.3255 278.641 37.9472 282.911C37.9472 282.911 35.2913 285.006 29.5771 282.106L28.2894 279.608Z" fill="#DAAD11"/>
<path d="M27.6569 279.513C27.6569 279.513 23.8053 284.258 25.7024 289.542C25.7024 289.542 28.8412 288.284 29.1832 281.878L27.6569 279.513Z" fill="#DAAD11"/>
<path d="M24.1962 271.711C24.1962 271.711 26.6107 267.277 36.2685 273.484C36.2685 273.484 34.9808 276.465 30.7153 276.224C26.4497 275.982 25.323 274.048 24.1962 271.711Z" fill="#DAAD11"/>
<path d="M23.5725 271.392C23.5725 271.392 18.5625 270.816 18.0767 282.298C18.0767 282.298 21.2529 282.957 23.5092 279.326C25.7656 275.694 24.84 273.657 23.5725 271.392Z" fill="#DAAD11"/>
<path d="M181.294 271.412C181.294 271.412 174.778 279.375 179.952 291.412L127.926 314.001L122.933 315.049L120.634 304.977L122.171 292.267V285.32L181.294 271.412Z" fill="#D5D6DB"/>
<path d="M17.0045 266.267L89.0127 253.125L184.427 268.342L125.163 289.703L17.0045 266.267Z" fill="#DAAD11"/>
<path d="M17.0045 266.267L89.0127 253.125L184.427 268.342L125.163 289.703L17.0045 266.267Z" fill="#38454F"/>
<path d="M17.0046 266.264C17.0046 266.264 10.27 279.038 18.0308 290.836L124.813 314.001C124.813 314.001 118.185 303.826 125.155 289.702L17.0046 266.264Z" fill="#38454F"/>
<path opacity="0.1" d="M17.7108 265C17.7108 265 10.9762 277.774 18.7369 289.572L125.519 312.738C125.519 312.738 118.891 302.562 125.861 288.439L17.7108 265Z" fill="#39374E"/>
<path opacity="0.1" d="M20.1866 270.693C20.1866 270.693 16.3378 280.04 20.1866 286.088V270.693Z" fill="black"/>
<path d="M124.813 314.001L184.427 288.534C184.427 288.534 187.761 289.254 185.605 291.7C183.45 294.146 125.963 316.448 125.963 316.448L18.0308 290.836L124.813 314.001Z" fill="#38454F"/>
<path opacity="0.1" d="M126.782 314.467L186.396 289C186.396 289 189.73 289.719 187.575 292.165C185.419 294.611 127.932 316.913 127.932 316.913L20 291.302L126.782 314.467Z" fill="#38454F"/>
<path opacity="0.1" d="M119.926 292.275C119.926 292.275 114.178 299.182 119.926 309.541V292.275Z" fill="black"/>
<path opacity="0.1" d="M147.758 292.158L121.972 300.771L122.063 301.044L147.849 292.431L147.758 292.158Z" fill="black"/>
<path opacity="0.1" d="M152.923 291.301L121.964 303.087L122.066 303.356L153.025 291.57L152.923 291.301Z" fill="black"/>
<path opacity="0.1" d="M157.666 291.26L122.137 305.819L122.246 306.086L157.775 291.526L157.666 291.26Z" fill="black"/>
<path opacity="0.1" d="M162.824 290.013L122.552 308.226L122.67 308.489L162.942 290.276L162.824 290.013Z" fill="black"/>
<path opacity="0.1" d="M167.157 290.019L122.871 309.399L122.986 309.663L167.272 290.283L167.157 290.019Z" fill="black"/>
<path opacity="0.1" d="M176.635 288.408L123.539 311.367L123.652 311.631L176.749 288.672L176.635 288.408Z" fill="black"/>
<path opacity="0.3" d="M43.7563 267.671L94.3448 257.024L125.164 262.923L83.7097 276.304L43.7563 267.671Z" fill="white"/>
<path d="M184.427 268.342C184.427 268.342 187.043 269.398 185.508 271.03C183.973 272.661 125.155 289.703 125.155 289.703L184.427 268.342Z" fill="#0D0D0D"/>
<path d="M209.833 243.735C209.833 243.735 203.32 251.694 208.494 263.735L156.468 286.324L151.475 287.378L149.176 277.306L150.737 264.598V257.643L209.833 243.735Z" fill="#D5D6DB"/>
<path d="M45.5469 238.587L117.552 225.447L212.969 240.664L153.706 262.025L45.5469 238.587Z" fill="#3A3768"/>
<path d="M45.5355 238.587C45.5355 238.587 38.798 251.361 46.5588 263.159L153.341 286.324C153.341 286.324 146.715 276.14 153.694 262.022L45.5355 238.587Z" fill="#3A3768"/>
<path opacity="0.1" d="M45.5355 238.587C45.5355 238.587 38.798 251.361 46.5588 263.159L153.341 286.324C153.341 286.324 146.715 276.14 153.694 262.022L119.927 254.704L45.5355 238.587Z" fill="black"/>
<path opacity="0.1" d="M48.726 243.015C48.726 243.015 44.8802 252.359 48.726 258.411V243.015Z" fill="black"/>
<path d="M153.352 286.324L212.969 260.857C212.969 260.857 216.301 261.576 214.145 264.022C211.989 266.468 154.502 288.77 154.502 288.77L46.5702 263.159L153.352 286.324Z" fill="#3A3768"/>
<path opacity="0.1" d="M153.352 286.324L212.969 260.857C212.969 260.857 216.301 261.576 214.145 264.022C211.989 266.468 154.502 288.77 154.502 288.77L46.5702 263.159L153.352 286.324Z" fill="black"/>
<path opacity="0.1" d="M148.466 264.598C148.466 264.598 142.717 271.504 148.466 281.864V264.598Z" fill="black"/>
<path opacity="0.1" d="M176.3 264.484L150.514 273.097L150.605 273.37L176.391 264.757L176.3 264.484Z" fill="black"/>
<path opacity="0.1" d="M181.468 263.626L150.51 275.412L150.612 275.681L181.57 263.895L181.468 263.626Z" fill="black"/>
<path opacity="0.1" d="M186.207 263.58L150.678 278.14L150.787 278.406L186.316 263.847L186.207 263.58Z" fill="black"/>
<path opacity="0.1" d="M191.368 262.334L151.096 280.547L151.214 280.809L191.486 262.596L191.368 262.334Z" fill="black"/>
<path opacity="0.1" d="M195.697 262.337L151.411 281.716L151.526 281.98L195.812 262.6L195.697 262.337Z" fill="black"/>
<path opacity="0.1" d="M205.178 260.725L152.081 283.685L152.195 283.949L205.292 260.989L205.178 260.725Z" fill="black"/>
<path opacity="0.45" d="M72.2986 239.994L122.887 229.346L153.706 235.246L112.252 248.627L72.2986 239.994Z" fill="white"/>
<path d="M212.969 240.664C212.969 240.664 215.582 241.72 214.05 243.349C212.518 244.978 153.706 262.022 153.706 262.022L212.969 240.664Z" fill="#3A3768"/>
<path d="M212.535 212.072C212.535 212.072 206.019 226.365 211.193 238.403L159.167 254.661L154.186 255.717L151.886 245.646L153.424 232.935V225.98L212.535 212.072Z" fill="#D5D6DB"/>
<path d="M48.2574 206.926L120.266 193.784L215.683 209.001L156.416 230.362L48.2574 206.926Z" fill="#7F7E8A"/>
<path d="M48.2575 206.924C48.2575 206.924 41.5114 219.698 49.2721 231.496L156.054 254.661C156.054 254.661 149.426 244.477 156.405 230.362L48.2575 206.924Z" fill="#7F7E8A"/>
<path opacity="0.1" d="M45.6976 239C45.6976 239 39.0042 251.844 46.7043 263.707L152.652 287C152.652 287 146.076 276.76 153 262.567L45.6976 239Z" fill="black"/>
<path opacity="0.1" d="M51.4394 211.353C51.4394 211.353 47.5906 220.699 51.4394 226.748V211.353Z" fill="black"/>
<path d="M156.066 254.661L215.68 235.525C215.68 235.525 219.014 236.244 216.858 238.69C214.702 241.136 157.215 257.107 157.215 257.107L49.2836 231.496L156.066 254.661Z" fill="#3F3D56"/>
<path opacity="0.1" d="M156.066 255.165L215.68 236.029C215.68 236.029 219.014 236.748 216.858 239.194C214.702 241.64 157.215 257.611 157.215 257.611L49.2837 232L156.066 255.165Z" fill="#3F3D56"/>
<path opacity="0.1" d="M151.179 232.935C151.179 232.935 145.43 239.841 151.179 250.201V232.935Z" fill="black"/>
<path opacity="0.1" d="M179.014 232.821L153.228 241.433L153.319 241.706L179.105 233.094L179.014 232.821Z" fill="black"/>
<path opacity="0.1" d="M184.18 231.964L153.222 243.75L153.324 244.018L184.282 232.233L184.18 231.964Z" fill="black"/>
<path opacity="0.1" d="M188.917 231.92L153.388 246.479L153.497 246.745L189.026 232.186L188.917 231.92Z" fill="black"/>
<path opacity="0.1" d="M194.082 230.671L153.81 248.884L153.928 249.146L194.2 230.933L194.082 230.671Z" fill="black"/>
<path opacity="0.1" d="M198.412 230.676L154.126 250.056L154.241 250.32L198.527 230.94L198.412 230.676Z" fill="black"/>
<path opacity="0.1" d="M207.892 229.066L154.795 252.026L154.909 252.29L208.006 229.331L207.892 229.066Z" fill="black"/>
<path opacity="0.3" d="M75.0091 208.331L125.598 197.684L156.416 203.583L114.963 216.964L75.0091 208.331Z" fill="white"/>
<path d="M215.68 209.001C215.68 209.001 218.295 210.058 216.76 211.689C215.225 213.321 156.416 230.362 156.416 230.362L215.68 209.001Z" fill="#7F7E8A"/>
<path d="M203.285 199.25C201.448 194.151 191.334 193.672 186.946 194.972C183.828 195.899 177.254 196.943 173.742 197.468L173.515 197.247C173.97 197.109 173.981 196.771 173.925 196.269C173.892 195.607 173.902 194.944 173.953 194.283C176.105 194.966 178.021 193.351 178.021 193.351C180.549 192.203 179.869 187.291 180.353 185.948C180.715 184.944 181.106 179.028 181.28 176.078H181.316L181.336 175.088C181.361 174.661 181.372 174.411 181.372 174.411C181.372 174.411 181.62 167.198 182.103 165.738C182.552 164.395 182.918 157.629 182.974 156.556C182.974 156.464 182.974 156.416 182.974 156.416L182.937 155.79C182.963 155.334 182.974 154.826 182.971 154.292C182.971 151.839 182.721 148.749 182.69 148.25C182.69 148.178 182.69 148.092 182.69 147.989C182.71 146.941 182.58 141.697 178.212 139.714C176.602 138.979 174.667 138.104 172.793 137.252C172.309 132.991 171.205 128.754 171.301 124.461C171.301 123.816 171.357 123.17 171.419 122.527C171.419 122.714 171.399 122.903 171.396 123.101C171.396 123.517 171.396 123.936 171.396 124.352C171.562 118.984 173.548 113.587 173.363 108.334C173.346 108.847 173.31 109.364 173.262 109.88C173.359 108.103 173.177 106.322 172.722 104.604C172.554 103.998 172.326 103.373 171.84 102.968C171.381 102.642 170.854 102.429 170.301 102.346C168.971 101.998 167.621 101.741 166.258 101.577C166.051 100.929 165.744 100.32 165.348 99.7718C162.499 95.7779 158.28 92.025 153.29 91.1643C150.787 90.7339 147.907 91.0925 146.205 92.9202C146.027 93.0808 145.86 93.2533 145.705 93.4367C144.789 94.5528 144.396 96.0189 143.457 97.1322C143.396 97.2068 143.325 97.2756 143.258 97.3474C141.421 99.0259 138.558 99.3759 136.516 100.882C136.156 101.153 135.818 101.453 135.507 101.78C134.684 102.613 133.946 103.529 133.304 104.515C132.386 105.834 131.442 107.209 131.15 108.784C130.563 111.94 132.667 114.933 133.057 118.109C133.928 125.216 126.228 131.522 127.686 138.535C128.075 140.257 128.934 141.832 130.164 143.077C127.16 145.854 124.604 148.548 124.604 148.548V148.709H124.129L124.177 149.283H124.129L124.39 152.396L124.129 156.929C124.129 156.929 124.129 156.978 124.129 157.07V157.093V157.216C124.129 157.216 124.129 157.265 124.129 157.357H124.146C124.233 159.018 124.579 164.992 124.989 166.251C125.472 167.712 125.716 174.925 125.716 174.925C125.716 174.925 126.25 185.119 126.739 186.467C127.228 187.816 126.534 192.714 129.071 193.87C129.813 194.451 130.692 194.823 131.619 194.949C131.49 196.022 131.571 196.799 131.99 197.043C132.169 197.151 132.372 197.21 132.58 197.215C132.408 197.476 132.254 197.75 132.122 198.033C131.115 197.926 130.125 197.688 129.178 197.325C126.452 196.177 117.409 193.595 114.782 195.411C112.156 197.227 105.835 198.874 108.754 206.185C111.672 213.495 113.032 213.679 113.032 213.679C113.931 214.345 114.719 215.154 115.367 216.075C116.243 217.42 124.41 220.499 126.452 220.499C127.321 220.485 128.189 220.529 129.051 220.631C129.051 220.631 126.835 222.617 127.13 223.77C127.424 224.923 126.455 234.156 126.455 234.156C126.455 234.156 128.703 236.469 129.664 233.436L129.697 233.482C129.877 233.732 130.849 234.859 132.678 233.436C133.426 232.856 134.222 232.342 135.055 231.898L143.91 230.619C144.833 230.56 145.759 230.553 146.683 230.599C148.087 230.716 149.467 229.867 150.335 229.21C152.169 229.921 154.231 230.699 155.212 230.983C157.201 231.557 166.342 234.062 168.48 233.278C168.925 233.098 169.32 232.811 169.632 232.441L171.672 232.507L170.717 232.702C170.717 232.702 172.576 232.733 175.105 232.768L174.998 232.831L178.17 232.802C182.811 232.845 188.025 232.86 188.71 232.702C189.784 232.458 195.36 232.63 197.004 232.702H197.462C197.462 232.702 203.589 231.454 201.06 225.104C199.116 220.226 193.141 218.809 190.489 218.419C191.236 218.267 191.879 218.149 192.306 218.08C194.158 217.793 197.754 216.072 198.046 215.484C198.338 214.895 201.353 213.188 202.131 212.216C202.909 211.243 205.131 204.348 203.285 199.25ZM152.534 213.518L152.234 213.619L152.032 213.688L151.644 214.078C151.335 213.865 151.003 213.642 150.658 213.412C151.267 213.449 151.894 213.487 152.534 213.518Z" fill="url(#paint0_linear_405:68)"/>
<path d="M171.906 183.54C171.906 183.54 176.304 195.051 178.805 193.9C181.305 192.749 180.627 187.857 181.104 186.516C181.581 185.175 182.11 175.005 182.11 175.005C182.11 175.005 182.352 167.811 182.829 166.355C183.271 165.017 183.631 158.268 183.691 157.207C183.691 157.114 183.691 157.066 183.691 157.066L183.217 148.72L180.532 148.05L174.306 150.352L173.444 155.281L173.108 157.207L172.964 158.027L171.906 183.54Z" fill="#FFB9B9"/>
<path opacity="0.1" d="M173.355 181.612C173.355 181.612 177.552 185.051 178.816 185.353C180.081 185.655 180.857 188.337 180.857 188.337" fill="black"/>
<path d="M137.515 184.043C137.515 184.043 133.117 195.554 130.616 194.403C128.116 193.252 128.794 188.36 128.317 187.019C127.84 185.678 127.311 175.508 127.311 175.508C127.311 175.508 127.069 168.314 126.592 166.858C126.15 165.52 125.79 158.772 125.73 157.71C125.73 157.618 125.73 157.569 125.73 157.569L126.207 149.224L128.892 148.553L135.117 150.855L135.98 155.785L136.316 157.71L136.46 158.53L137.515 184.043Z" fill="#FFB9B9"/>
<path d="M166.152 122.444H156.336V137.762H166.152V122.444Z" fill="#3E373A"/>
<path opacity="0.1" d="M166.152 122.444H156.336V137.762H166.152V122.444Z" fill="black"/>
<path d="M135.79 195.508C135.79 195.508 132.436 199.2 133.68 199.871C134.925 200.541 142.976 213.108 142.976 213.108C142.976 213.108 169.42 216.368 174.407 211.476C179.394 206.584 179.293 197.845 179.293 197.845C179.293 197.845 175.286 198.708 174.85 198.239C174.413 197.77 172.013 195.508 172.013 195.508C172.013 195.508 138.09 193.448 135.79 195.508Z" fill="#4B4B5B"/>
<path opacity="0.02" d="M135.79 195.508C135.79 195.508 132.436 199.2 133.68 199.871C134.925 200.541 142.976 213.108 142.976 213.108C142.976 213.108 169.42 216.368 174.407 211.476C179.394 206.584 179.293 197.845 179.293 197.845C179.293 197.845 175.286 198.708 174.85 198.239C174.413 197.77 172.013 195.508 172.013 195.508C172.013 195.508 138.09 193.448 135.79 195.508Z" fill="black"/>
<path d="M183.395 148.841L174.772 155.747L172.165 155.937L171.208 156.006L155.132 157.186L138.46 155.966L135.98 155.785L132.818 155.555L126.207 149.224C126.207 149.224 130.886 144.205 134.985 140.818C136.601 139.48 138.127 138.398 139.239 137.972L139.429 137.906C140.129 137.633 140.753 137.197 141.251 136.634C144.488 133.293 147.48 125.048 147.48 125.048C147.48 125.048 161.757 117.664 160.032 127.351C158.308 137.037 166.451 134.643 166.451 134.643L169.135 135.868L170.196 136.355L172.901 137.595L179.003 140.398C183.792 142.605 183.395 148.841 183.395 148.841Z" fill="#FFB9B9"/>
<path opacity="0.1" d="M154.462 132.936C161.553 132.936 167.302 127.181 167.302 120.082C167.302 112.982 161.553 107.227 154.462 107.227C147.371 107.227 141.622 112.982 141.622 120.082C141.622 127.181 147.371 132.936 154.462 132.936Z" fill="black"/>
<path opacity="0.1" d="M183.415 157.998H125.73C125.73 157.906 125.73 157.857 125.73 157.857L126.207 149.512C126.207 149.512 130.886 144.493 134.985 141.106L171.202 139.667L172.886 137.889L178.989 140.692C183.78 142.896 183.395 149.132 183.395 149.132C183.395 149.132 184.05 156.358 183.415 157.998Z" fill="black"/>
<path d="M183.415 157.71H125.73C125.73 157.618 125.73 157.569 125.73 157.569L126.207 149.224C126.207 149.224 130.886 144.205 134.985 140.818L171.202 139.379L172.886 137.601L178.989 140.404C183.78 142.608 183.395 148.844 183.395 148.844C183.395 148.844 184.05 156.07 183.415 157.71Z" fill="#DAAD11"/>
<path opacity="0.1" d="M145.215 134.309C145.215 134.309 154.315 145.917 166.436 134.07C178.557 122.223 167.779 160.495 167.779 160.495L141.622 163.603L145.215 134.309Z" fill="black"/>
<path d="M145.215 134.884C145.215 134.884 154.315 146.493 166.436 134.646C178.557 122.798 167.779 161.071 167.779 161.071L141.622 164.179L145.215 134.884Z" fill="#E7C7CA"/>
<path opacity="0.1" d="M170.182 136.922L171.144 151.624L172.176 156.516L172.964 160.257C172.964 160.257 174.976 189.033 174.401 190.472C173.826 191.911 174.689 193.062 174.809 193.827C174.93 194.593 174.689 196.515 174.783 197.378C174.878 198.242 174.783 198.624 172.582 198.317C170.38 198.009 167.31 197.473 167.31 197.473C167.31 197.473 159.549 198.049 156.868 197.091C154.186 196.132 149.107 196.129 149.107 196.129C149.107 196.129 141.441 196.322 138.952 196.035C136.463 195.747 135.117 199.105 133.49 198.144C131.864 197.183 135.405 187.882 136.555 185.194C137.704 182.507 135.023 175.698 135.023 175.698L138.472 156.541L139.239 152.199V138.547L139.429 138.481C140.129 138.208 140.753 137.772 141.251 137.209L142.114 150.947L169.132 151.908V136.447" fill="black"/>
<path d="M170.182 136.346L171.144 151.048L172.176 155.94L172.964 159.681C172.964 159.681 174.976 188.458 174.401 189.897C173.826 191.336 174.689 192.487 174.809 193.252C174.93 194.018 174.689 195.94 174.783 196.803C174.878 197.667 174.783 198.049 172.582 197.741C170.38 197.433 167.31 196.898 167.31 196.898C167.31 196.898 159.549 197.474 156.868 196.515C154.186 195.557 149.107 195.554 149.107 195.554C149.107 195.554 141.441 195.747 138.952 195.459C136.463 195.172 135.117 198.53 133.49 197.569C131.864 196.608 135.405 187.307 136.555 184.619C137.704 181.931 135.023 175.123 135.023 175.123L138.472 155.966L139.239 151.624V137.972L139.429 137.906C140.129 137.633 140.753 137.197 141.251 136.634L142.114 150.372L169.132 151.333V135.872" fill="#DAAD11"/>
<path opacity="0.1" d="M173.289 105.665C173.125 105.063 172.898 104.439 172.427 104.036C171.976 103.712 171.457 103.499 170.909 103.414C169.598 103.069 168.265 102.813 166.919 102.649C166.727 102.01 166.436 101.405 166.057 100.856C163.24 96.8734 159.072 93.1181 154.169 92.2692C151.602 91.8231 148.627 92.2231 146.983 94.249C146.08 95.3627 145.692 96.8389 144.781 97.9324C143.025 100.056 139.854 100.318 137.641 101.961C136.46 102.824 135.603 104.076 134.767 105.291C133.861 106.606 132.93 107.975 132.643 109.547C132.068 112.686 134.14 115.679 134.523 118.847C135.385 125.935 127.797 132.223 129.231 139.215C130.067 143.293 133.83 146.165 137.722 147.621C139.093 148.136 140.659 148.648 141.3 149.966C141.588 150.542 141.637 151.207 141.907 151.788C142.815 153.727 145.801 153.802 147.405 152.389C149.009 150.976 149.515 148.691 149.705 146.559C150.475 137.247 146.75 128.047 147.184 118.712C147.313 115.889 148.107 112.686 150.633 111.408C154.034 109.682 158.124 112.56 161.866 112.01C163.637 116.324 164.013 121.085 162.941 125.624C162.346 128.108 161.317 130.516 161.242 133.077C161.13 136.977 163.232 140.539 165.048 143.987C165.438 144.631 165.699 145.346 165.816 146.09C165.844 146.845 165.704 147.598 165.405 148.291C164.378 151.057 162.608 153.624 162.407 156.568C162.348 156.911 162.425 157.264 162.622 157.552C162.825 157.744 163.086 157.861 163.364 157.886C166.468 158.418 169.153 155.664 170.667 152.899C172.356 149.844 173.34 146.45 173.548 142.965C173.861 137.106 171.763 131.342 171.892 125.477C172.041 118.81 175.051 112.096 173.289 105.665Z" fill="black"/>
<path d="M173.576 105.377C173.412 104.775 173.185 104.151 172.714 103.748C172.264 103.424 171.744 103.211 171.196 103.126C169.885 102.781 168.552 102.525 167.207 102.361C167.014 101.722 166.724 101.117 166.344 100.568C163.528 96.5853 159.36 92.83 154.456 91.9811C151.889 91.535 148.914 91.935 147.27 93.9609C146.368 95.0746 145.98 96.5508 145.068 97.6443C143.312 99.768 140.142 100.03 137.929 101.673C136.747 102.536 135.891 103.788 135.054 105.003C134.149 106.318 133.218 107.687 132.93 109.259C132.355 112.398 134.428 115.391 134.81 118.559C135.672 125.647 128.084 131.935 129.518 138.927C130.355 143.005 134.117 145.877 138.009 147.333C139.38 147.848 140.947 148.36 141.588 149.678C141.875 150.254 141.924 150.918 142.194 151.5C143.102 153.439 146.089 153.514 147.693 152.101C149.297 150.688 149.803 148.403 149.992 146.271C150.763 136.959 147.037 127.759 147.471 118.424C147.601 115.601 148.394 112.398 150.921 111.12C154.321 109.394 158.411 112.271 162.154 111.722C163.925 116.036 164.301 120.797 163.229 125.336C162.634 127.819 161.605 130.228 161.53 132.789C161.418 136.688 163.519 140.251 165.336 143.698C165.725 144.343 165.986 145.058 166.103 145.802C166.132 146.557 165.991 147.309 165.692 148.003C164.666 150.769 162.895 153.336 162.694 156.28C162.635 156.623 162.712 156.976 162.91 157.264C163.112 157.456 163.373 157.573 163.651 157.598C166.755 158.13 169.44 155.376 170.955 152.611C172.644 149.556 173.628 146.162 173.835 142.677C174.148 136.818 172.05 131.054 172.179 125.189C172.329 118.522 175.338 111.808 173.576 105.377Z" fill="black"/>
<path d="M167.227 232.791L178.629 233.157L176.994 224.69L168.259 225.522L167.227 232.791Z" fill="#C3C7D9"/>
<path d="M202.558 212.725C201.791 213.683 198.822 215.41 198.534 215.986C198.247 216.561 194.703 218.288 192.88 218.575C191.058 218.863 185.312 220.112 184.257 220.783C183.501 221.266 177.434 222.797 173.447 223.646C172.367 223.902 171.274 224.099 170.173 224.236C168.448 224.331 149.575 217.905 149.575 217.905L153.214 214.164L153.416 214.095C154.445 213.747 159.199 212.138 161.837 211.373C164.809 210.509 168.259 206.961 168.259 206.961C168.259 206.961 173.335 205.235 174.007 205.042C174.68 204.849 172.283 198.328 172.283 198.328C172.283 198.328 183.3 196.797 187.612 195.499C191.923 194.202 201.889 194.682 203.708 199.767C205.527 204.852 203.337 211.767 202.558 212.725Z" fill="#4B4B5B"/>
<path d="M152.352 228.935C152.352 228.935 150.15 231.237 147.946 231.047C145.741 230.857 138.032 231.623 138.032 231.623C136.635 232.181 135.327 232.94 134.149 233.876C132.347 235.298 131.389 234.164 131.211 233.922L131.18 233.876C130.22 236.9 128.018 234.595 128.018 234.595C128.018 234.595 128.975 225.387 128.682 224.236C128.389 223.085 130.576 221.108 130.576 221.108L133.163 220.449L139.716 218.768L149.107 222.029L152.352 228.935Z" fill="#E7C7CA"/>
<path opacity="0.1" d="M133.151 220.449L131.211 233.922L131.18 233.876C130.22 236.9 128.018 234.595 128.018 234.595C128.018 234.595 128.975 225.387 128.682 224.236C128.389 223.085 130.576 221.108 130.576 221.108L133.151 220.449Z" fill="black"/>
<path opacity="0.1" d="M146.713 182.124C146.713 182.124 151.789 183.851 156.198 182.124H146.713Z" fill="black"/>
<path opacity="0.1" d="M164.042 185.387C164.042 185.387 166.149 186.44 167.779 185.387H164.042Z" fill="black"/>
<path opacity="0.1" d="M164.042 187.885C164.042 187.885 167.586 188.36 168.259 187.402L164.042 187.885Z" fill="black"/>
<path opacity="0.1" d="M162.892 193.252C162.892 193.252 169.549 192.389 171.202 191.238L162.892 193.252Z" fill="black"/>
<path opacity="0.1" d="M142.579 191.238C142.579 191.238 146.316 193.347 149.095 193.252L142.579 191.238Z" fill="black"/>
<path opacity="0.1" d="M173.444 223.646C172.364 223.902 171.271 224.099 170.17 224.236C168.445 224.331 149.572 217.905 149.572 217.905L153.211 214.164L153.413 214.095C153.987 214.501 154.459 214.849 154.795 215.114C156.379 216.363 157.908 214.731 158.483 214.731C159.058 214.731 164.039 218.855 164.039 218.855C164.039 218.855 168.638 219.911 169.405 220.869C170.173 221.827 172.855 221.637 173.332 222.308C173.476 222.515 173.493 223.024 173.444 223.646Z" fill="black"/>
<path d="M138.032 198.719C138.032 198.719 133.381 198.987 130.7 197.856C128.018 196.725 119.107 194.115 116.52 195.948C113.933 197.781 107.705 199.401 110.579 206.693C113.453 213.985 114.796 214.175 114.796 214.175C115.685 214.843 116.461 215.65 117.095 216.564C117.958 217.908 126.006 220.975 128.018 220.975C130.03 220.975 133.574 220.975 138.555 224.429C143.536 227.882 148.04 228.267 148.04 228.267C148.04 228.267 154.364 230.857 156.333 231.433C158.302 232.008 167.299 234.5 169.408 233.735C171.518 232.969 172.858 228.169 172.858 228.169C172.858 228.169 173.815 223.853 173.335 223.183C172.855 222.512 170.173 222.702 169.408 221.744C168.644 220.785 164.042 219.729 164.042 219.729C164.042 219.729 159.072 215.603 158.497 215.603C157.923 215.603 156.393 217.231 154.81 215.985C151.655 213.646 148.34 211.531 144.89 209.655C141.251 207.735 138.032 198.719 138.032 198.719Z" fill="#4B4B5B"/>
<path opacity="0.1" d="M128.682 201.502C129.51 201.333 130.366 201.357 131.183 201.573C132 201.79 132.756 202.192 133.393 202.748C135.692 204.668 143.43 208.521 143.43 208.521" fill="black"/>
<path opacity="0.1" d="M186.175 201.381C186.175 201.381 175.922 202.935 174.007 205.045L186.175 201.381Z" fill="black"/>
<path d="M197.959 233.157H197.508C195.887 233.099 190.394 232.926 189.336 233.157C188.092 233.444 171.61 233.157 171.61 233.157L174.832 232.486C174.832 232.486 173.637 228.29 174.395 227.942C174.395 227.942 170.084 225.099 173.335 223.18C176.586 221.26 180.09 222.069 180.09 222.069L188.25 219.301L189.816 218.768C189.816 218.768 199.014 219.249 201.503 225.58C203.993 231.911 197.959 233.157 197.959 233.157Z" fill="#E7C7CA"/>
<path opacity="0.1" d="M197.959 233.157H197.508C200.184 230.947 206.237 224.219 188.25 219.315L189.816 218.783C189.816 218.783 199.014 219.263 201.503 225.594C203.993 231.925 197.959 233.157 197.959 233.157Z" fill="black"/>
<path d="M181.05 225.698C181.327 225.698 181.553 225.472 181.553 225.194C181.553 224.916 181.327 224.69 181.05 224.69C180.772 224.69 180.547 224.916 180.547 225.194C180.547 225.472 180.772 225.698 181.05 225.698Z" fill="#4B4B5B"/>
<path d="M178.126 226.529C178.404 226.529 178.629 226.304 178.629 226.026C178.629 225.747 178.404 225.522 178.126 225.522C177.849 225.522 177.623 225.747 177.623 226.026C177.623 226.304 177.849 226.529 178.126 226.529Z" fill="#4B4B5B"/>
<g opacity="0.1">
<path opacity="0.1" d="M163.884 119.607C163.995 116.442 163.433 113.289 162.234 110.358C158.497 110.917 154.404 108.03 151.001 109.757C148.483 111.034 147.693 114.237 147.552 117.06C147.517 117.806 147.512 118.551 147.526 119.296C147.526 119.032 147.526 118.764 147.552 118.499C147.684 115.676 148.474 112.473 151.001 111.196C154.404 109.469 158.492 112.347 162.234 111.797C163.249 114.28 163.808 116.925 163.884 119.607Z" fill="black"/>
<path opacity="0.1" d="M134.928 119.08C134.977 118.453 134.964 117.823 134.89 117.198C134.586 114.666 133.203 112.246 132.953 109.777C132.631 112.755 134.525 115.616 134.89 118.637C134.928 118.793 134.928 118.931 134.928 119.08Z" fill="black"/>
<path opacity="0.1" d="M150.073 144.905C149.894 147.04 149.391 149.322 147.773 150.738C146.155 152.153 143.174 152.076 142.275 150.136C141.987 149.561 141.944 148.89 141.665 148.315C141.027 146.997 139.458 146.484 138.087 145.969C134.192 144.51 130.435 141.653 129.599 137.564C129.524 137.193 129.473 136.818 129.446 136.441C129.376 137.298 129.427 138.16 129.599 139.003C130.435 143.08 134.198 145.949 138.087 147.408C139.458 147.923 141.027 148.436 141.665 149.753C141.953 150.329 142.001 150.994 142.275 151.575C143.18 153.515 146.166 153.589 147.773 152.176C149.38 150.764 149.88 148.479 150.073 146.343C150.16 145.22 150.19 144.092 150.162 142.965C150.162 143.618 150.124 144.263 150.073 144.905Z" fill="black"/>
<path opacity="0.1" d="M172.274 123.826C172.274 124.243 172.274 124.657 172.274 125.072C172.435 119.719 174.395 114.338 174.203 109.098C174.053 113.944 172.383 118.899 172.274 123.826Z" fill="black"/>
<path opacity="0.1" d="M166.106 145.477C166.176 145.136 166.199 144.786 166.172 144.438C166.056 143.694 165.795 142.979 165.404 142.335C163.743 139.169 161.849 135.929 161.625 132.416C161.625 132.565 161.604 132.703 161.602 132.864C161.487 136.761 163.588 140.326 165.404 143.774C165.713 144.308 165.949 144.881 166.106 145.477Z" fill="black"/>
<path opacity="0.1" d="M173.927 141.313C173.712 144.799 172.721 148.193 171.027 151.247C169.509 154.012 166.827 156.766 163.72 156.234C163.442 156.209 163.18 156.091 162.979 155.897C162.92 155.831 162.874 155.755 162.843 155.672C162.809 155.897 162.78 156.124 162.763 156.354C162.704 156.697 162.781 157.05 162.979 157.336C163.18 157.529 163.442 157.648 163.72 157.672C166.827 158.205 169.509 155.451 171.027 152.685C172.721 149.632 173.712 146.238 173.927 142.752C173.961 142.078 173.964 141.408 173.944 140.737C173.938 140.93 173.938 141.12 173.927 141.313Z" fill="black"/>
</g>
<path opacity="0.1" d="M174.395 227.942C174.395 227.942 181.67 230.998 186.468 224.236" stroke="black" stroke-miterlimit="10"/>
<path opacity="0.1" d="M175.827 233.283C175.827 233.283 181.768 229.416 189.336 233.157" stroke="black" stroke-miterlimit="10"/>
<path opacity="0.1" d="M136.057 232.405C136.057 232.405 138.552 226.771 145.215 231.067" stroke="black" stroke-miterlimit="10"/>
<path opacity="0.1" d="M127.969 149.08L133.057 144.476C133.057 144.476 152.783 143.181 153.599 149.894C153.599 149.894 160.593 141.935 175.301 143.707L181.524 148.668L164.324 156.225L147.609 162.029L135.298 156.513L127.969 149.08Z" fill="black"/>
<path d="M127.969 149.367L133.057 144.763C133.057 144.763 152.783 143.468 153.599 150.182C153.599 150.182 160.593 142.222 175.301 143.995L181.524 148.956L164.324 156.513L147.609 162.317L135.298 156.8L127.969 149.367Z" fill="#D5D6DB"/>
<path opacity="0.1" d="M125.718 149.943L127.969 176.898L151.826 178.098L150.791 151.258L150.771 150.807L125.718 149.943Z" fill="black"/>
<path d="M125.718 149.368L127.969 176.323L151.826 177.523L150.791 150.683L150.771 150.231L125.718 149.368Z" fill="#2E2E2E"/>
<path opacity="0.1" d="M182.616 149.368L158.006 153.063V180.139L182.056 176.659L182.616 149.368Z" fill="black"/>
<path d="M182.616 148.792L158.006 152.487V179.563L182.056 176.084L182.616 148.792Z" fill="#2E2E2E"/>
<path opacity="0.3" d="M176.813 155.399L163.519 156.879L163.809 161.414L176.804 159.992L176.813 155.399Z" fill="white"/>
<path d="M129.262 190.757L130.616 194.403C130.616 194.403 132.628 196.13 134.83 195.266C137.032 194.403 138.952 193.974 139.909 193.134C140.866 192.294 142.208 188.072 142.208 188.072C142.208 188.072 143.551 183.468 144.89 182.317C146.23 181.166 149.777 165.307 144.89 166.858C140.004 168.409 136.267 182.798 136.267 182.798C136.267 182.798 135.405 183.851 134.16 183.949C132.916 184.046 130.424 183.756 129.944 184.812C129.464 185.868 127.825 188.648 129.262 190.757Z" fill="#FFB9B9"/>
<path opacity="0.1" d="M158.006 153.06C156.746 153.344 155.437 153.329 154.184 153.016C152.93 152.704 151.768 152.101 150.788 151.258L151.826 178.095C151.826 178.095 154.269 180.743 158.006 180.139V153.06Z" fill="black"/>
<path d="M158.006 152.484C156.746 152.768 155.437 152.753 154.184 152.441C152.93 152.128 151.768 151.526 150.788 150.683L151.826 177.52C151.826 177.52 154.269 180.167 158.006 179.563V152.484Z" fill="#2E2E2E"/>
<path opacity="0.1" d="M158.006 152.801C156.746 153.086 155.437 153.071 154.184 152.758C152.93 152.445 151.768 151.843 150.788 151L151.826 177.837C151.826 177.837 154.269 180.485 158.006 179.88V152.801Z" fill="#B4B0B0"/>
<path opacity="0.1" d="M158.581 149.46C158.581 149.46 168.592 146.395 171.202 146.827L158.581 149.46Z" fill="black"/>
<path opacity="0.1" d="M147.382 148.122C147.382 148.122 137.678 145.819 136.057 146.473L147.382 148.122Z" fill="black"/>
<path opacity="0.1" d="M164.893 149.842C164.893 149.842 171.587 147.385 174.007 148.553L164.893 149.842Z" fill="black"/>
<path opacity="0.1" d="M161.521 211.49C162.559 210.71 163.663 210.024 164.821 209.439C166.546 208.607 169.707 206.449 169.707 206.449" fill="black"/>
<path opacity="0.1" d="M136.057 182.124C136.057 182.124 131.858 185.563 130.596 185.865C129.334 186.167 128.555 188.849 128.555 188.849" fill="black"/>
<path d="M180.147 190.245L178.807 193.899C178.807 193.899 176.795 195.626 174.591 194.763C172.386 193.899 170.472 193.47 169.512 192.63C168.552 191.79 167.212 187.568 167.212 187.568C167.212 187.568 165.873 182.964 164.531 181.813C163.188 180.662 159.644 164.803 164.531 166.354C169.417 167.905 173.154 182.294 173.154 182.294C173.154 182.294 174.016 183.347 175.261 183.445C176.505 183.543 178.997 183.252 179.477 184.308C179.957 185.364 181.584 188.144 180.147 190.245Z" fill="#FFB9B9"/>
<path opacity="0.1" d="M177.799 183.522C177.799 183.522 180.544 185.289 180.532 187.402L177.799 183.522Z" fill="black"/>
<path d="M154.508 132.306C161.599 132.306 167.348 126.551 167.348 119.451C167.348 112.352 161.599 106.597 154.508 106.597C147.417 106.597 141.668 112.352 141.668 119.451C141.668 126.551 147.417 132.306 154.508 132.306Z" fill="#FFB9B9"/>
<path d="M146.445 116.001C148.003 115.756 149.368 114.85 150.857 114.329C154.189 113.158 157.874 113.961 161.245 115.017C162.539 115.423 163.852 115.88 165.209 115.88C166.566 115.88 168.006 115.325 168.698 114.154C169.337 113.077 169.213 111.679 168.675 110.548C168.138 109.417 167.238 108.508 166.33 107.65C163.341 104.824 159.633 102.183 155.531 102.47C153.881 102.588 152.303 103.178 150.785 103.831C148.874 104.656 147.014 105.594 145.215 106.64C143.832 107.443 141.271 108.516 140.475 109.984C138.664 113.29 143.628 116.444 146.445 116.001Z" fill="black"/>
<path opacity="0.1" d="M168.698 112.945C168.006 114.116 166.566 114.672 165.209 114.672C163.852 114.672 162.539 114.231 161.242 113.826C157.871 112.77 154.189 111.964 150.854 113.138C149.368 113.659 148 114.577 146.442 114.807C144.172 115.164 140.515 113.184 140.119 110.666C139.673 113.575 143.913 116.067 146.442 115.67C148 115.426 149.368 114.519 150.854 114.001C154.189 112.827 157.871 113.633 161.242 114.689C162.539 115.095 163.849 115.552 165.209 115.535C166.569 115.518 168.006 114.983 168.698 113.808C169.057 113.17 169.199 112.431 169.101 111.705C169.056 112.142 168.919 112.565 168.698 112.945Z" fill="black"/>
<path opacity="0.1" d="M272.896 268.9C273.045 269.115 273.162 269.351 273.244 269.599C276.228 273.11 277.82 276.388 274.949 276.468C272.276 276.546 269.071 281.331 268.303 282.537C268.328 282.635 268.358 282.731 268.392 282.825C268.392 282.825 272.152 276.569 275.21 276.48C278.269 276.39 276.257 272.661 272.896 268.9Z" fill="black"/>
<path opacity="0.1" d="M263.888 268.9C263.74 269.115 263.623 269.351 263.541 269.599C260.557 273.11 258.965 276.388 261.836 276.468C264.506 276.546 267.714 281.331 268.482 282.537C268.457 282.635 268.427 282.731 268.39 282.825C268.39 282.825 264.633 276.569 261.572 276.48C258.51 276.39 260.537 272.661 263.888 268.9Z" fill="black"/>
<circle cx="253.5" cy="278.5" r="23.5" fill="#927100"/>
<circle cx="243.5" cy="287.5" r="14.5" fill="#F7F4E9"/>
<defs>
<linearGradient id="paint0_linear_405:68" x1="155.998" y1="235.009" x2="155.998" y2="90.9978" gradientUnits="userSpaceOnUse">
<stop stop-color="#808080" stop-opacity="0.25"/>
<stop offset="0.54" stop-color="#808080" stop-opacity="0.12"/>
<stop offset="1" stop-color="#808080" stop-opacity="0.1"/>
</linearGradient>
</defs>
</svg>
