<svg width="23" height="23" viewBox="0 0 23 23" fill="none" xmlns="http://www.w3.org/2000/svg">
<mask id="path-1-inside-1_945:50" fill="white">
<path d="M10.9103 23H12.0897C12.4414 22.9997 12.7895 22.9298 13.114 22.7942C13.4384 22.6587 13.7329 22.4603 13.9803 22.2104C14.2276 21.9605 14.4231 21.664 14.5553 21.3382C14.6875 21.0124 14.7539 20.6636 14.7507 20.312C14.7543 20.2314 14.7811 20.1537 14.828 20.0882C14.8749 20.0227 14.9398 19.9721 15.0149 19.9428C15.0924 19.9118 15.1776 19.9054 15.2589 19.9246C15.3402 19.9438 15.4135 19.9877 15.469 20.0501C15.974 20.5338 16.6462 20.8039 17.3455 20.8039C18.0448 20.8039 18.7171 20.5338 19.2221 20.0501L20.0477 19.2174C20.2961 18.9692 20.4927 18.6743 20.6262 18.3497C20.7598 18.025 20.8276 17.6771 20.8257 17.326C20.8239 16.975 20.7524 16.6278 20.6154 16.3046C20.4784 15.9813 20.2786 15.6885 20.0277 15.443C19.9741 15.3823 19.9387 15.3078 19.9255 15.2278C19.9124 15.1479 19.922 15.0659 19.9534 14.9913C19.9854 14.9146 20.0403 14.8496 20.1106 14.8053C20.1809 14.7609 20.2631 14.7394 20.3462 14.7436C21.0498 14.743 21.7245 14.4632 22.222 13.9656C22.7196 13.468 22.9994 12.7934 23 12.0897V10.9103C22.9997 10.5582 22.9296 10.2097 22.7938 9.88493C22.658 9.56014 22.4591 9.26551 22.2087 9.01806C21.9583 8.77061 21.6613 8.57526 21.3349 8.44332C21.0086 8.31137 20.6593 8.24544 20.3072 8.24933C20.229 8.24892 20.1528 8.2251 20.0882 8.18096C20.0237 8.13681 19.9739 8.07436 19.9451 8.00164L19.9381 7.98513C19.9069 7.90762 19.9004 7.82235 19.9197 7.74104C19.9389 7.65973 19.9828 7.58637 20.0454 7.53103C20.2918 7.28459 20.4873 6.99203 20.6207 6.67005C20.754 6.34807 20.8227 6.00297 20.8227 5.65446C20.8227 5.30595 20.754 4.96085 20.6207 4.63887C20.4873 4.31689 20.2918 4.02433 20.0454 3.7779L19.2127 2.95226C18.9668 2.70504 18.6744 2.50904 18.3523 2.37562C18.0301 2.2422 17.6848 2.174 17.3361 2.17497C16.9833 2.17482 16.6341 2.24529 16.3089 2.38222C15.9838 2.51916 15.6894 2.7198 15.443 2.97231C15.3826 3.0263 15.308 3.06197 15.228 3.07512C15.148 3.08828 15.0659 3.0784 14.9913 3.04662C14.9146 3.01464 14.8496 2.95975 14.8053 2.88944C14.7609 2.81914 14.7394 2.73686 14.7436 2.65385C14.743 1.95019 14.4632 1.27554 13.9656 0.777983C13.468 0.280426 12.7934 0.000624636 12.0897 0H10.9103C10.5589 0.00107097 10.2112 0.0716506 9.8873 0.207673C9.56335 0.343696 9.26952 0.542472 9.02272 0.792552C8.77593 1.04263 8.58106 1.33907 8.44934 1.66479C8.31762 1.99051 8.25165 2.33908 8.25523 2.69041C8.25454 2.769 8.23037 2.84558 8.18581 2.91032C8.14125 2.97506 8.07834 3.02499 8.00518 3.05369C7.92538 3.08569 7.83784 3.09313 7.75378 3.07506C7.66973 3.05698 7.59299 3.01422 7.53339 2.95226C7.02839 2.46853 6.35611 2.19849 5.65682 2.19849C4.95753 2.19849 4.28525 2.46853 3.78026 2.95226L2.944 3.78851C2.69598 4.03696 2.49972 4.33215 2.36658 4.65697C2.23344 4.9818 2.16607 5.32982 2.16838 5.68086C2.17068 6.03191 2.24261 6.37901 2.38 6.70206C2.51739 7.02512 2.71751 7.3177 2.96877 7.56287C3.02311 7.61745 3.06016 7.68685 3.07526 7.76237C3.09037 7.8379 3.08286 7.9162 3.05369 7.98749V7.99692C3.02066 8.07522 2.9649 8.14181 2.89362 8.18807C2.82233 8.23433 2.73881 8.25813 2.65385 8.25641C1.95019 8.25704 1.27554 8.53684 0.777983 9.03439C0.280425 9.53195 0.000624636 10.2066 0 10.9103V12.0897C0.000761534 12.4412 0.0710743 12.789 0.206884 13.1132C0.342694 13.4373 0.541316 13.7314 0.791302 13.9784C1.04129 14.2254 1.33769 14.4205 1.66343 14.5525C1.98917 14.6844 2.3378 14.7506 2.68923 14.7471C2.76818 14.7482 2.84501 14.7728 2.90992 14.8178C2.97483 14.8628 3.02488 14.926 3.05369 14.9995C3.08523 15.0773 3.09343 15.1625 3.0773 15.2448C3.06118 15.3272 3.02141 15.403 2.96287 15.4631C2.71569 15.7097 2.51959 16.0027 2.38578 16.3252C2.25198 16.6477 2.1831 16.9934 2.1831 17.3426C2.1831 17.6918 2.25198 18.0375 2.38578 18.36C2.51959 18.6825 2.71569 18.9755 2.96287 19.2221L3.78851 20.0548C4.29646 20.544 4.97553 20.8153 5.68073 20.8106C6.38593 20.806 7.06138 20.5259 7.56287 20.0301C7.61728 19.9754 7.68668 19.9382 7.76228 19.9231C7.83787 19.908 7.91626 19.9156 7.98749 19.9451H7.99692C8.07512 19.9786 8.14157 20.0347 8.18779 20.1061C8.234 20.1775 8.25789 20.2611 8.25641 20.3462C8.25703 21.0498 8.53684 21.7245 9.03439 22.222C9.53195 22.7196 10.2066 22.9994 10.9103 23Z"/>
</mask>
<path d="M10.9103 23H12.0897C12.4414 22.9997 12.7895 22.9298 13.114 22.7942C13.4384 22.6587 13.7329 22.4603 13.9803 22.2104C14.2276 21.9605 14.4231 21.664 14.5553 21.3382C14.6875 21.0124 14.7539 20.6636 14.7507 20.312C14.7543 20.2314 14.7811 20.1537 14.828 20.0882C14.8749 20.0227 14.9398 19.9721 15.0149 19.9428C15.0924 19.9118 15.1776 19.9054 15.2589 19.9246C15.3402 19.9438 15.4135 19.9877 15.469 20.0501C15.974 20.5338 16.6462 20.8039 17.3455 20.8039C18.0448 20.8039 18.7171 20.5338 19.2221 20.0501L20.0477 19.2174C20.2961 18.9692 20.4927 18.6743 20.6262 18.3497C20.7598 18.025 20.8276 17.6771 20.8257 17.326C20.8239 16.975 20.7524 16.6278 20.6154 16.3046C20.4784 15.9813 20.2786 15.6885 20.0277 15.443C19.9741 15.3823 19.9387 15.3078 19.9255 15.2278C19.9124 15.1479 19.922 15.0659 19.9534 14.9913C19.9854 14.9146 20.0403 14.8496 20.1106 14.8053C20.1809 14.7609 20.2631 14.7394 20.3462 14.7436C21.0498 14.743 21.7245 14.4632 22.222 13.9656C22.7196 13.468 22.9994 12.7934 23 12.0897V10.9103C22.9997 10.5582 22.9296 10.2097 22.7938 9.88493C22.658 9.56014 22.4591 9.26551 22.2087 9.01806C21.9583 8.77061 21.6613 8.57526 21.3349 8.44332C21.0086 8.31137 20.6593 8.24544 20.3072 8.24933C20.229 8.24892 20.1528 8.2251 20.0882 8.18096C20.0237 8.13681 19.9739 8.07436 19.9451 8.00164L19.9381 7.98513C19.9069 7.90762 19.9004 7.82235 19.9197 7.74104C19.9389 7.65973 19.9828 7.58637 20.0454 7.53103C20.2918 7.28459 20.4873 6.99203 20.6207 6.67005C20.754 6.34807 20.8227 6.00297 20.8227 5.65446C20.8227 5.30595 20.754 4.96085 20.6207 4.63887C20.4873 4.31689 20.2918 4.02433 20.0454 3.7779L19.2127 2.95226C18.9668 2.70504 18.6744 2.50904 18.3523 2.37562C18.0301 2.2422 17.6848 2.174 17.3361 2.17497C16.9833 2.17482 16.6341 2.24529 16.3089 2.38222C15.9838 2.51916 15.6894 2.7198 15.443 2.97231C15.3826 3.0263 15.308 3.06197 15.228 3.07512C15.148 3.08828 15.0659 3.0784 14.9913 3.04662C14.9146 3.01464 14.8496 2.95975 14.8053 2.88944C14.7609 2.81914 14.7394 2.73686 14.7436 2.65385C14.743 1.95019 14.4632 1.27554 13.9656 0.777983C13.468 0.280426 12.7934 0.000624636 12.0897 0H10.9103C10.5589 0.00107097 10.2112 0.0716506 9.8873 0.207673C9.56335 0.343696 9.26952 0.542472 9.02272 0.792552C8.77593 1.04263 8.58106 1.33907 8.44934 1.66479C8.31762 1.99051 8.25165 2.33908 8.25523 2.69041C8.25454 2.769 8.23037 2.84558 8.18581 2.91032C8.14125 2.97506 8.07834 3.02499 8.00518 3.05369C7.92538 3.08569 7.83784 3.09313 7.75378 3.07506C7.66973 3.05698 7.59299 3.01422 7.53339 2.95226C7.02839 2.46853 6.35611 2.19849 5.65682 2.19849C4.95753 2.19849 4.28525 2.46853 3.78026 2.95226L2.944 3.78851C2.69598 4.03696 2.49972 4.33215 2.36658 4.65697C2.23344 4.9818 2.16607 5.32982 2.16838 5.68086C2.17068 6.03191 2.24261 6.37901 2.38 6.70206C2.51739 7.02512 2.71751 7.3177 2.96877 7.56287C3.02311 7.61745 3.06016 7.68685 3.07526 7.76237C3.09037 7.8379 3.08286 7.9162 3.05369 7.98749V7.99692C3.02066 8.07522 2.9649 8.14181 2.89362 8.18807C2.82233 8.23433 2.73881 8.25813 2.65385 8.25641C1.95019 8.25704 1.27554 8.53684 0.777983 9.03439C0.280425 9.53195 0.000624636 10.2066 0 10.9103V12.0897C0.000761534 12.4412 0.0710743 12.789 0.206884 13.1132C0.342694 13.4373 0.541316 13.7314 0.791302 13.9784C1.04129 14.2254 1.33769 14.4205 1.66343 14.5525C1.98917 14.6844 2.3378 14.7506 2.68923 14.7471C2.76818 14.7482 2.84501 14.7728 2.90992 14.8178C2.97483 14.8628 3.02488 14.926 3.05369 14.9995C3.08523 15.0773 3.09343 15.1625 3.0773 15.2448C3.06118 15.3272 3.02141 15.403 2.96287 15.4631C2.71569 15.7097 2.51959 16.0027 2.38578 16.3252C2.25198 16.6477 2.1831 16.9934 2.1831 17.3426C2.1831 17.6918 2.25198 18.0375 2.38578 18.36C2.51959 18.6825 2.71569 18.9755 2.96287 19.2221L3.78851 20.0548C4.29646 20.544 4.97553 20.8153 5.68073 20.8106C6.38593 20.806 7.06138 20.5259 7.56287 20.0301C7.61728 19.9754 7.68668 19.9382 7.76228 19.9231C7.83787 19.908 7.91626 19.9156 7.98749 19.9451H7.99692C8.07512 19.9786 8.14157 20.0347 8.18779 20.1061C8.234 20.1775 8.25789 20.2611 8.25641 20.3462C8.25703 21.0498 8.53684 21.7245 9.03439 22.222C9.53195 22.7196 10.2066 22.9994 10.9103 23Z" stroke="#A9A9A9" stroke-width="2" mask="url(#path-1-inside-1_945:50)"/>
</svg>
