<svg width="23" height="23" viewBox="0 0 23 23" fill="none" xmlns="http://www.w3.org/2000/svg">
<path d="M22.3371 7.66912C20.917 3.61732 17.3963 0.723957 13.1466 0.114123C12.0815 -0.0380409 10.9197 -0.0380409 9.85344 0.114123C5.60493 0.722778 2.08298 3.6174 0.666413 7.65976C0.224105 8.88179 0 10.1734 0 11.4992C0 12.8251 0.224116 14.1166 0.662886 15.3304C2.08299 19.3822 5.60375 22.2757 9.85344 22.8855C10.3901 22.961 10.9445 23 11.5 23C12.0555 23 12.6087 22.961 13.1466 22.8844C17.3951 22.2757 20.917 19.3811 22.3336 15.3387C22.7759 14.1167 23 12.8251 23 11.4992C23 10.1734 22.7759 8.88289 22.3371 7.66912ZM20.1621 7.07819H16.573C16.205 5.44095 15.6447 3.86856 14.8709 2.38585C17.1568 3.22688 19.0522 4.88302 20.1621 7.07819ZM21.2308 11.5004C21.2308 12.4098 21.0999 13.298 20.8522 14.1556H16.8973C17.0188 13.2756 17.1026 12.3898 17.1026 11.5004C17.1026 10.6098 17.02 9.72395 16.8985 8.84753H20.8533C21.0998 9.70154 21.2308 10.5898 21.2308 11.5004ZM7.8884 14.1556C7.75394 13.278 7.66667 12.391 7.66667 11.5004C7.66667 10.6122 7.75394 9.72631 7.8884 8.84753H15.1128C15.246 9.72395 15.3333 10.6098 15.3333 11.5004C15.3333 12.3898 15.2461 13.2768 15.1116 14.1556H7.8884ZM2.14783 14.1556C1.90131 13.3004 1.76923 12.411 1.76923 11.5004C1.76923 10.5921 1.90013 9.70508 2.14783 8.84753H6.10268C5.98119 9.72513 5.89744 10.611 5.89744 11.5004C5.89744 12.391 5.98119 13.278 6.10268 14.1556H2.14783ZM12.5014 1.83854C13.5417 3.46044 14.2942 5.21799 14.7565 7.07934H8.24223C8.70459 5.22153 9.45595 3.4641 10.4986 1.83984C10.8289 1.80681 11.1579 1.77015 11.5 1.77015C11.8421 1.76897 12.1711 1.80552 12.5014 1.83854ZM8.12784 2.38715C7.35291 3.87104 6.79266 5.44446 6.42584 7.07934H2.83785C3.94657 4.88417 5.84081 3.22817 8.12784 2.38715ZM2.839 15.9249H6.427C6.795 17.561 7.35527 19.1321 8.12784 20.6137C5.84317 19.7726 3.95008 18.1201 2.839 15.9249ZM10.4986 21.1623C9.45831 19.5404 8.70699 17.7851 8.24345 15.9261H14.7565C14.2942 17.7827 13.5428 19.5392 12.5025 21.1623C11.8385 21.2283 11.1615 21.2283 10.4986 21.1623ZM14.8722 20.6137C15.6459 19.1309 16.2062 17.5598 16.573 15.9249H20.161C19.0523 18.1177 17.158 19.7726 14.8722 20.6137Z" fill="#A9A9A9"/>
</svg>
