<svg width="17" height="17" viewBox="0 0 17 17" fill="none" xmlns="http://www.w3.org/2000/svg">
<rect width="17" height="17" rx="5" fill="#434547" fill-opacity="0.51"/>
<path d="M8.5 8.76471C9.93637 8.76471 11.1053 7.69582 11.1053 6.38235C11.1053 5.06888 9.93637 4 8.5 4C7.06363 4 5.89474 5.06888 5.89474 6.38235C5.89474 7.69582 7.06363 8.76471 8.5 8.76471ZM8.5 4.52941C9.61737 4.52941 10.5263 5.36059 10.5263 6.38235C10.5263 7.40412 9.61737 8.23529 8.5 8.23529C7.38263 8.23529 6.47368 7.40412 6.47368 6.38235C6.47368 5.36059 7.38263 4.52941 8.5 4.52941ZM12.2632 11.3588V11.8173C12.2632 12.2223 12.1016 12.6109 11.8075 12.9116C11.7496 12.9698 11.6709 13 11.5916 13C11.5227 13 11.4538 12.9778 11.3988 12.9328C11.2795 12.8353 11.2691 12.6681 11.3756 12.559C11.5748 12.3557 11.6842 12.0926 11.6842 11.8178V11.3588C11.6842 10.6372 11.1602 10.0125 10.4094 9.83994C10.2635 9.80553 10.106 9.82458 9.97864 9.89129C9.06159 10.3577 7.9361 10.3561 7.02426 9.89236C6.89399 9.82459 6.73828 9.805 6.59065 9.83941C5.83975 10.012 5.31579 10.6367 5.31579 11.3583V11.8168C5.31579 12.0915 5.42522 12.3546 5.62438 12.5579C5.73091 12.667 5.72046 12.8343 5.6012 12.9317C5.48309 13.0286 5.29957 13.0201 5.19247 12.911C4.89836 12.6103 4.73684 12.2218 4.73684 11.8168V11.3588C4.73684 10.3942 5.44143 9.5583 6.44937 9.32641C6.74 9.25918 7.05206 9.29783 7.30854 9.43124C8.04264 9.805 8.95448 9.80605 9.6938 9.43017C9.94738 9.29782 10.2606 9.26024 10.5501 9.32695C11.5586 9.5583 12.2632 10.3942 12.2632 11.3588ZM11.7004 4.26682C11.7543 4.12865 11.9193 4.05824 12.0704 4.10536C12.8786 4.36636 13.4211 5.06888 13.4211 5.85294C13.4211 6.37971 13.175 6.88265 12.7454 7.23365C12.6904 7.27865 12.6215 7.30087 12.5526 7.30087C12.4733 7.30087 12.394 7.27123 12.3367 7.21247C12.2302 7.10341 12.2406 6.93612 12.3598 6.83871C12.6661 6.58776 12.8421 6.22829 12.8421 5.85241C12.8421 5.29229 12.4542 4.79094 11.877 4.60459C11.7265 4.55588 11.6477 4.40447 11.7004 4.26682ZM14 9.99983V10.3821C14 10.5282 13.8703 10.6468 13.7105 10.6468C13.5507 10.6468 13.4211 10.5282 13.4211 10.3821V9.99983C13.4211 9.41853 12.999 8.91559 12.3952 8.77689C12.24 8.74142 12.1462 8.59741 12.185 8.45605C12.2244 8.31417 12.3789 8.22735 12.5364 8.26388C13.3979 8.46135 14 9.17553 14 9.99983ZM4.25457 7.46871C3.82557 7.11718 3.57895 6.61424 3.57895 6.088C3.57895 5.30394 4.122 4.60141 4.92964 4.34041C5.08074 4.29277 5.24515 4.3637 5.29957 4.50188C5.35283 4.63953 5.27352 4.79094 5.123 4.83965C4.54578 5.026 4.15789 5.52735 4.15789 6.08747C4.15789 6.46335 4.3339 6.82282 4.64016 7.07376C4.75943 7.17118 4.76983 7.33847 4.66331 7.44753C4.60541 7.50576 4.52668 7.53593 4.44737 7.53593C4.37847 7.53646 4.30957 7.51424 4.25457 7.46871ZM4.60483 9.01246C4.00098 9.15117 3.57895 9.65413 3.57895 10.2354V10.6176C3.57895 10.7638 3.44926 10.8824 3.28947 10.8824C3.12968 10.8824 3 10.7638 3 10.6176V10.2354C3 9.41113 3.60211 8.69693 4.46359 8.49893C4.6199 8.46293 4.77564 8.54976 4.81501 8.69111C4.8538 8.833 4.75998 8.97646 4.60483 9.01246Z" fill="white"/>
</svg>
