<svg width="18" height="18" viewBox="0 0 18 18" fill="none" xmlns="http://www.w3.org/2000/svg">
<path d="M9 0C4.0374 0 0 4.0374 0 9C0 13.9626 4.0374 18 9 18C13.9626 18 18 13.9626 18 9C18 4.0374 13.9626 0 9 0ZM9 16.2C5.0301 16.2 1.8 12.9699 1.8 9C1.8 5.0301 5.0301 1.8 9 1.8C12.9699 1.8 16.2 5.0301 16.2 9C16.2 12.9699 12.9699 16.2 9 16.2ZM12.5442 6.55466C12.7971 7.99466 12.1905 9.28345 10.8369 10.1834C10.0044 10.7369 9.8721 11.0331 9.8541 11.0871C9.7272 11.4633 9.37711 11.7 9.00091 11.7C8.90551 11.7 8.8083 11.6847 8.7129 11.6523C8.2422 11.4939 7.98931 10.9836 8.14771 10.512C8.42131 9.70115 9.24481 9.08014 9.83971 8.68414C10.9593 7.93984 10.8171 7.13075 10.7712 6.86525C10.647 6.15785 10.0422 5.55298 9.3339 5.42878C8.7876 5.33158 8.2584 5.47114 7.8435 5.82034C7.4349 6.16324 7.2 6.66542 7.2 7.19912C7.2 7.69682 6.7968 8.09912 6.3 8.09912C5.8032 8.09912 5.4 7.69682 5.4 7.19912C5.4 6.13262 5.86889 5.12735 6.68609 4.44155C7.50239 3.75485 8.58241 3.47131 9.64531 3.65581C11.097 3.91141 12.2886 5.10296 12.5442 6.55466ZM9.9 13.5C9.9 13.9968 9.4968 14.4 9 14.4C8.5032 14.4 8.1 13.9968 8.1 13.5C8.1 13.0032 8.5032 12.6 9 12.6C9.4968 12.6 9.9 13.0032 9.9 13.5Z" fill="white"/>
</svg>
