<svg width="23" height="23" viewBox="0 0 23 23" fill="none" xmlns="http://www.w3.org/2000/svg">
<path d="M20.8552 5.88337L15.1052 1.25976C13.0168 -0.419919 9.98431 -0.419919 7.89476 1.25976L2.14476 5.88337C0.782006 6.97976 0 8.61237 0 10.3611L0 17.2546C0 20.4229 2.57945 23 5.75 23H9.2V17.2535C9.2 15.9868 10.2316 14.9583 11.5 14.9583C12.7684 14.9583 13.8 15.9879 13.8 17.2535V23H17.25C20.4205 23 23 20.4229 23 17.2546V10.3611C23 8.61237 22.218 6.97976 20.8552 5.88337ZM20.7 17.2546C20.7 19.154 19.1521 20.6991 17.25 20.6991H16.1V17.2535C16.1 14.719 14.0369 12.6574 11.5 12.6574C8.9631 12.6574 6.9 14.719 6.9 17.2535V20.6991H5.75C3.8479 20.6991 2.3 19.154 2.3 17.2546V10.3611C2.3 9.313 2.7692 8.33395 3.5857 7.67704L9.3357 3.05328C10.5903 2.04548 12.4108 2.04548 13.6643 3.05328L19.4143 7.67704C20.232 8.33395 20.7012 9.313 20.7012 10.3611V17.2546H20.7Z" fill="#7E7A7A"/>
</svg>
