<svg width="26" height="21" viewBox="0 0 26 21" fill="none" xmlns="http://www.w3.org/2000/svg">
<path d="M0.5 6.68184V2.86365C0.5 1.60921 1.65286 0.5 3.18182 0.5H24.9546V1.48692C24.3606 1.67574 23.894 2.19246 23.894 2.86365V6.68184C23.894 7.35302 24.3606 7.86974 24.9546 8.05856V9.04548H3.18182C1.65286 9.04548 0.5 7.93627 0.5 6.68184Z" stroke="white"/>
<path d="M20.9091 5H12.9546H5" stroke="white"/>
<path d="M24.9546 17.6818V13.8636C24.9546 12.6092 23.8017 11.5 22.2728 11.5H0.500017V12.4869C1.09397 12.6757 1.56063 13.1925 1.56063 13.8636V17.6818C1.56063 18.353 1.09397 18.8697 0.500017 19.0586V20.0455H22.2728C23.8017 20.0455 24.9546 18.9363 24.9546 17.6818Z" stroke="white"/>
<path d="M4.54548 16H12.5H20.4546" stroke="white"/>
</svg>
