<svg width="12" height="12" viewBox="0 0 12 12" fill="none" xmlns="http://www.w3.org/2000/svg">
<path d="M10.988 6.58128C11.2241 6.42689 11.4572 6.15415 11.4948 5.70666C11.535 5.22446 11.3375 4.89079 11.076 4.68679C10.8291 4.49425 10.5321 4.4211 10.3438 4.42108L9.18096 4.42087H9.12387C8.57889 4.42081 8.03392 4.42075 7.48908 4.42041C7.61424 3.91237 7.68654 3.08309 7.49746 2.04725C7.39714 1.49725 7.05846 0.989841 6.50674 1.00015C6.09764 1.00771 5.70532 1.33382 5.66266 1.76602C5.63178 2.08175 5.55759 2.53596 5.48807 2.84427C5.38626 3.29463 5.05186 3.84719 4.62789 4.35751C4.21971 4.84883 3.75613 5.26806 3.40339 5.48927V5.28566C3.40339 4.96794 3.15661 4.68576 2.82243 4.68576H1.58096C1.24704 4.68576 1 4.96785 1 5.28566V10.9001C1 11.2185 1.24746 11.5 1.58096 11.5H2.82243C3.14895 11.5 3.3925 11.2304 3.40303 10.921C3.97008 11.2502 4.57889 11.3622 5.21118 11.3494C5.87032 11.3361 7.3621 11.3398 8.40081 11.3425C8.87959 11.3437 9.2621 11.3446 9.42245 11.3436C9.86811 11.3403 10.3198 11.1075 10.5292 10.5504C10.667 10.1842 10.5798 9.88694 10.4422 9.6801C10.6604 9.57691 10.8874 9.37765 10.9751 9.01339C11.0614 8.65519 10.9612 8.37923 10.8192 8.18785C10.8529 8.17166 10.8857 8.15354 10.9174 8.13321C11.107 8.01154 11.2292 7.82874 11.2914 7.58398C11.3665 7.28822 11.3142 7.0166 11.1658 6.79053C11.1155 6.71384 11.0554 6.6442 10.988 6.58128Z" stroke="#B7A675" stroke-width="0.5"/>
</svg>
