<svg width="12" height="12" viewBox="0 0 12 12" fill="none" xmlns="http://www.w3.org/2000/svg">
<path d="M11.2448 5.45666L11.2448 5.45682C11.2072 5.90431 10.9741 6.17689 10.738 6.33128C10.8054 6.3942 10.8655 6.46384 10.9159 6.54053C11.0642 6.7666 11.1165 7.03822 11.0414 7.33398C10.9792 7.57874 10.857 7.76154 10.6674 7.88321C10.6357 7.90354 10.6029 7.92166 10.5692 7.93785C10.7112 8.12923 10.8114 8.40519 10.7251 8.76339L11.2448 5.45666ZM11.2448 5.45666C11.285 4.97446 11.0875 4.64079 10.826 4.43679M11.2448 5.45666L10.826 4.43679M5.41266 1.51602L5.41268 1.5158C5.45534 1.0836 5.84764 0.757711 6.25674 0.750145L5.41266 1.51602ZM5.41266 1.51602C5.38178 1.83175 5.30759 2.28596 5.23807 2.59427C5.13626 3.04463 4.80186 3.59719 4.37789 4.10751C3.96971 4.59883 3.50613 5.01806 3.15339 5.23927M5.41266 1.51602L3.15339 5.23927M3.15339 5.23927V5.03566C3.15339 4.71794 2.90661 4.43576 2.57243 4.43576H1.33096C0.997036 4.43576 0.75 4.71785 0.75 5.03566V10.6501C0.75 10.9685 0.99746 11.25 1.33096 11.25H2.57243C2.89895 11.25 3.1425 10.9804 3.15303 10.671C3.72008 11.0002 4.32889 11.1122 4.96118 11.0994C5.62032 11.0861 7.1121 11.0898 8.1508 11.0925C8.62958 11.0937 9.0121 11.0946 9.17245 11.0936L9.17262 11.0936C9.61829 11.0903 10.0698 10.8575 10.2792 10.3004C10.417 9.93415 10.3298 9.63694 10.1922 9.4301C10.4104 9.32691 10.6374 9.1277 10.7251 8.76344L3.15339 5.23927ZM10.826 4.43679C10.5791 4.24425 10.2821 4.1711 10.0938 4.17108L10.826 4.43679ZM10.0937 4.17108C9.70622 4.17094 9.31871 4.1709 8.9312 4.17087C8.3671 4.17081 7.80302 4.17076 7.23908 4.17041C7.36424 3.66237 7.43654 2.83307 7.24745 1.79722C7.14713 1.24722 6.80857 0.739833 6.25686 0.750143L10.0937 4.17108Z" stroke="#B7A675" stroke-width="0.5"/>
</svg>
