<svg width="13" height="14" viewBox="0 0 13 14" fill="none" xmlns="http://www.w3.org/2000/svg">
<path d="M12.0815 5.79093L10.8549 7.01758C10.6595 7.21291 10.3427 7.21291 10.1473 7.01758C9.95188 6.82291 9.95188 6.50556 10.1473 6.31022L11.3738 5.08358C12.2082 4.24958 12.2082 2.89154 11.3738 2.05754C10.5648 1.24887 9.15616 1.24887 8.34712 2.05754L6.10677 4.29761C6.01806 4.38627 5.95271 4.46423 5.90668 4.53556C5.26439 5.41023 5.35576 6.57289 6.10677 7.32422C6.30219 7.51955 6.30219 7.83624 6.10677 8.03158C6.00939 8.12891 5.88135 8.17822 5.75329 8.17822C5.62524 8.17822 5.49716 8.12958 5.39978 8.03158C4.29661 6.92824 4.16322 5.21959 5.08364 3.96826C5.15167 3.8616 5.26038 3.73024 5.39978 3.5909L7.64014 1.35091C8.23307 0.757578 9.02211 0.430908 9.86116 0.430908C10.7002 0.430908 11.4886 0.757578 12.0822 1.35091C13.3061 2.57491 13.306 4.56627 12.0815 5.79093ZM6.89314 5.83024C6.69771 6.02491 6.69771 6.34226 6.89314 6.5376C7.48407 7.12893 7.67684 7.98087 7.39271 8.77287C7.29733 9.05954 7.12457 9.33288 6.89314 9.56421L4.65278 11.8043C3.84374 12.6129 2.43513 12.6129 1.6261 11.8043C0.791716 10.9703 0.791716 9.61224 1.6261 8.77824L2.85264 7.5516C3.04807 7.35626 3.04807 7.03957 2.85264 6.84424C2.65722 6.6489 2.34039 6.6489 2.14497 6.84424L0.918417 8.07088C-0.306139 9.29488 -0.306139 11.2869 0.918417 12.5109C1.51135 13.1042 2.30039 13.4309 3.13944 13.4309C3.97848 13.4309 4.76685 13.1042 5.36046 12.5109L7.60081 10.2709C7.94163 9.93025 8.19774 9.52159 8.3378 9.10026C8.74465 7.96893 8.45587 6.68556 7.60081 5.83089C7.40539 5.63489 7.08856 5.63491 6.89314 5.83024Z" fill="white"/>
</svg>
