<svg width="10" height="13" viewBox="0 0 10 13" fill="none" xmlns="http://www.w3.org/2000/svg">
<path d="M7.83333 5.32666V5.63568L8.10973 5.77387C8.93699 6.18751 9.5 7.02697 9.5 8V10C9.5 11.3772 8.37719 12.5 7 12.5H3C1.62281 12.5 0.5 11.3772 0.5 10V8C0.5 7.02697 1.06301 6.18751 1.89027 5.77387L2.16667 5.63568V5.32666V3.33333C2.16667 1.76948 3.43614 0.5 5 0.5C6.56386 0.5 7.83333 1.76948 7.83333 3.33333V5.32666ZM7 5.5H7.5V5V3.33333C7.5 1.95719 6.37614 0.833333 5 0.833333C3.62386 0.833333 2.5 1.95719 2.5 3.33333V5V5.5H3H7ZM5 10.5C5.64281 10.5 6.16667 9.97614 6.16667 9.33333V8.66667C6.16667 8.02386 5.64281 7.5 5 7.5C4.35719 7.5 3.83333 8.02386 3.83333 8.66667V9.33333C3.83333 9.97614 4.35719 10.5 5 10.5Z" stroke="white"/>
</svg>
