<svg width="32" height="32" viewBox="0 0 32 32" fill="none" xmlns="http://www.w3.org/2000/svg">
<rect width="32" height="32" rx="10" fill="#1F1F1F" fill-opacity="0.67"/>
<path d="M20.5 13.343V10.75C20.5 8.131 18.369 6 15.75 6C13.131 6 11 8.131 11 10.75V13.344C9.246 14.043 8 15.75 8 17.75V20.75C8 23.369 10.131 25.5 12.75 25.5H18.75C21.369 25.5 23.5 23.369 23.5 20.75V17.75C23.5 15.75 22.254 14.042 20.5 13.343ZM12.5 10.75C12.5 8.958 13.958 7.5 15.75 7.5C17.542 7.5 19 8.958 19 10.75V13.025C18.915 13.02 18.836 13 18.75 13H12.75C12.664 13 12.585 13.021 12.5 13.025V10.75ZM22 20.75C22 22.542 20.542 24 18.75 24H12.75C10.958 24 9.5 22.542 9.5 20.75V17.75C9.5 15.958 10.958 14.5 12.75 14.5H18.75C20.542 14.5 22 15.958 22 17.75V20.75ZM16.5 18.75V19.75C16.5 20.164 16.164 20.5 15.75 20.5C15.336 20.5 15 20.164 15 19.75V18.75C15 18.336 15.336 18 15.75 18C16.164 18 16.5 18.336 16.5 18.75Z" fill="white"/>
</svg>
