<svg width="297" height="292" viewBox="0 0 297 292" fill="none" xmlns="http://www.w3.org/2000/svg">
<path d="M257.999 166C258.05 182.636 254.817 199.118 248.486 214.506C242.155 229.893 232.85 243.884 221.103 255.678C219.808 256.979 218.483 258.251 217.131 259.492C215.501 260.993 213.829 262.449 212.116 263.859C211.789 264.131 211.462 264.398 211.131 264.661C204.362 270.14 197.031 274.888 189.26 278.826C188.8 279.058 188.339 279.29 187.875 279.518C187.139 279.88 186.395 280.233 185.651 280.579C158.109 293.379 126.788 295.501 97.7682 286.535C46.9598 270.786 10 222.781 10 166C10 96.411 65.5164 40 134 40C202.483 40 257.999 96.411 257.999 166Z" fill="#38454F"/>
<path d="M255.801 146.466C261.731 146.466 266.538 141.66 266.538 135.733C266.538 129.805 261.731 125 255.801 125C249.871 125 245.064 129.805 245.064 135.733C245.064 141.66 249.871 146.466 255.801 146.466Z" fill="#8D8D8D"/>
<path d="M252.532 155.058C256.692 155.058 260.064 151.687 260.064 147.529C260.064 143.371 256.692 140 252.532 140C248.372 140 245 143.371 245 147.529C245 151.687 248.372 155.058 252.532 155.058Z" fill="#F1F1F1"/>
<path opacity="0.1" d="M284.714 129.545C284.662 129.85 284.611 130.154 284.553 130.459C282.7 140.825 279.675 150.819 275.176 159.994C275.029 160.299 274.878 160.603 274.725 160.908C271.838 166.693 268.293 172.13 264.159 177.112C261.918 179.8 259.475 182.352 256.57 184.195C252.498 186.777 247.737 187.826 243.058 188.685C238.196 189.579 233.271 190.316 228.357 191.131C226.615 191.414 224.884 191.71 223.164 192.02C218.417 192.874 213.705 193.86 209.105 195.167C203.418 196.798 197.9 198.899 192.707 201.875C192.292 202.111 191.881 202.353 191.475 202.601C191.067 202.846 190.655 203.096 190.258 203.351C189.862 203.607 189.463 203.859 189.07 204.118L188.463 204.525C188.263 204.656 188.067 204.797 187.87 204.928C187.285 205.324 186.708 205.743 186.132 206.145L186.11 206.162C185.73 206.433 185.353 206.705 184.976 206.977C182.847 208.545 180.764 210.187 178.69 211.834L177.38 212.875C176.705 213.408 176.029 213.939 175.353 214.47C174.956 214.783 174.555 215.093 174.156 215.403C173.866 215.628 173.579 215.854 173.284 216.077C171.805 217.21 170.307 218.319 168.78 219.379C168.416 219.632 168.047 219.884 167.686 220.132C164.628 222.212 161.376 223.994 157.973 225.454L157.93 225.473C156.254 226.183 154.53 226.774 152.77 227.242C151.761 227.514 150.753 227.728 149.731 227.897C147.008 228.365 144.228 228.413 141.49 228.038C136.109 227.28 131.067 224.777 125.699 223.94C114.625 222.23 103.87 227.745 93.4495 232.074C90.8987 233.136 88.3196 234.133 85.7123 235.064C83.985 235.684 82.2496 236.274 80.5059 236.834C69.883 240.251 58.937 242.579 47.8381 243.783C43.3068 244.275 38.5814 244.509 33.968 244.156C32.2259 244.028 30.4923 243.804 28.7753 243.484C22.9348 242.397 17.4825 240.09 13.0905 235.874C9.44193 232.425 6.86742 227.916 4.90512 223.211C4.11619 221.321 3.42109 219.388 2.81982 217.411C1.87475 214.313 1.1649 211.148 0.696267 207.945C0.589679 207.222 0.494024 206.496 0.422965 205.77C0.280848 204.525 0.175171 203.275 0.105934 202.019C-0.276721 195.346 0.378721 188.653 2.04911 182.178C3.9103 175.006 7.01501 168.137 8.38152 160.897C8.43891 160.592 8.49084 160.288 8.54277 159.984C8.72497 158.896 8.86344 157.789 8.95819 156.662C9.64691 147.807 6.98221 139.14 4.87779 130.459C4.804 130.154 4.7302 129.85 4.65914 129.545C4.43139 128.583 4.21548 127.62 4.01142 126.656C2.06278 117.475 1.52984 107.65 3.25984 98.4873C3.3145 98.1829 3.37736 97.8757 3.44022 97.5741C4.60722 91.899 6.66791 86.5011 9.82455 81.6931C13.0632 76.7573 17.3158 72.6505 21.8498 69.041C24.0636 67.2834 26.3529 65.6391 28.7179 64.1079C30.4179 63.0099 32.1488 61.9707 33.9107 60.9905C48.1469 53.1084 64.3893 49.2571 80.4485 50.1187C81.2994 50.1621 82.1484 50.2201 82.9957 50.2926C83.8848 50.3687 84.7712 50.4593 85.6549 50.5644C95.9939 51.7521 106.054 54.6957 116.054 57.9165C119.405 59.0036 122.747 60.0908 126.09 61.178C127.577 61.66 129.063 62.1356 130.547 62.6049C137.831 64.8907 145.235 66.9536 152.707 68.5083C154.44 68.8707 156.17 69.2014 157.9 69.5004C163.911 70.5713 169.994 71.1945 176.099 71.3649C178.467 71.4229 180.836 71.3984 183.205 71.2915C184.402 71.2371 185.6 71.1574 186.798 71.0523C199.182 69.9977 211.122 66.4617 223.112 63.1404C224.845 62.6593 226.58 62.1809 228.305 61.7189C230.584 61.11 232.866 60.5203 235.157 59.9767C249.417 56.5711 262.126 58.528 275.384 65.5512C278.39 67.1466 281.396 69.0709 283.255 72.0498C285.113 75.0287 285.564 78.7169 285.909 82.2666C286.395 87.3165 286.729 92.4371 286.835 97.5795C286.835 97.8839 286.835 98.1883 286.854 98.4927C287.095 108.905 286.458 119.396 284.714 129.545Z" fill="black"/>
<path opacity="0.1" d="M199.571 161.156H198.639V161.561V162.069H199.694L199.571 161.156ZM189.008 161.156C189.006 161.163 189.006 161.171 189.008 161.178L188.926 161.934V162.002V162.069H197.015V162.015L197.592 161.156H189.008ZM167.376 161.156V131.62H176.668C176.57 131.539 176.469 131.457 176.365 131.381L176.228 131.278C176.171 131.232 176.113 131.188 176.053 131.147C175.993 131.107 175.851 131.003 175.744 130.933C175.638 130.862 175.572 130.816 175.471 130.759L175.408 130.718H175.394H167.376V129.101L167.16 129.204L166.93 129.332H166.914L166.865 129.362L166.723 129.454C166.673 129.484 166.624 129.514 166.578 129.546C166.436 129.642 166.304 129.745 166.154 129.851L166.018 129.96C165.925 130.03 165.837 130.104 165.744 130.177C165.381 130.473 165.023 130.783 164.651 131.069C164.558 131.142 164.465 131.213 164.378 131.281C164.179 131.425 163.973 131.56 163.76 131.683C163.672 131.737 163.58 131.787 163.487 131.832L163.334 131.903L163.194 131.963C162.866 132.1 162.526 132.208 162.178 132.283V161.156H148.239C148.239 161.189 148.258 161.219 148.267 161.251C148.343 161.523 148.42 161.795 148.493 162.067H162.18V193.728H162.394L162.637 193.744L163.08 193.777L163.796 193.848L164.118 193.886L164.473 193.929H164.525C164.73 193.956 164.938 193.989 165.148 194.022L165.282 194.043L165.583 194.092L166.015 194.168L167.051 194.114L167.193 194.144C167.25 194.144 167.307 194.166 167.368 194.179V162.069H188.907V162.002V161.934L188.989 161.178C188.987 161.171 188.987 161.163 188.989 161.156H167.376ZM199.571 161.156H198.639V161.561V162.069H199.694L199.571 161.156ZM188.426 161.156L188.333 162.069H197.332L197.945 161.156H188.426ZM167.381 161.156V131.62H176.674C176.575 131.539 176.474 131.457 176.37 131.381L176.234 131.278C176.176 131.232 176.119 131.188 176.059 131.147C175.999 131.107 175.856 131.003 175.75 130.933C175.643 130.862 175.578 130.816 175.477 130.759L175.414 130.718H175.394H167.376V129.101L167.16 129.204L166.93 129.332H166.914L166.865 129.362L166.723 129.454C166.673 129.484 166.624 129.514 166.578 129.546C166.436 129.642 166.304 129.745 166.154 129.851L166.018 129.96C165.925 130.03 165.837 130.104 165.744 130.177C165.381 130.473 165.023 130.783 164.651 131.069C164.558 131.142 164.465 131.213 164.378 131.281C164.179 131.425 163.973 131.56 163.76 131.683C163.672 131.737 163.58 131.787 163.487 131.832L163.334 131.903L163.194 131.963C162.866 132.1 162.526 132.208 162.178 132.283V161.156H148.239C148.239 161.189 148.258 161.219 148.267 161.251C148.343 161.523 148.422 161.795 148.496 162.067H162.18V193.725L162.394 193.739L162.637 193.755L163.08 193.788L163.796 193.859L164.118 193.897L164.473 193.94H164.525C164.73 193.967 164.938 194 165.148 194.033L165.282 194.054L165.583 194.103L166.015 194.179L167.051 194.125L167.193 194.155C167.25 194.155 167.307 194.177 167.368 194.19V162.069H188.333L188.431 161.156H167.381ZM237.8 99.649H296.35C296.35 99.3446 296.35 99.0402 296.331 98.7358H237.8V62.8752C236.062 63.3372 234.327 63.8156 232.608 64.2967V98.7358H168.928L168.767 98.5619L169.01 98.2901L192.695 72.4396C190.326 72.5484 187.957 72.5728 185.589 72.513L167.376 92.3812V70.6567C165.638 70.3577 163.907 70.027 162.183 69.6646V91.381L135.555 62.3343C132.213 61.2471 128.87 60.1409 125.52 59.0728L161.713 98.5619L161.552 98.7358H95.1203V51.7153C94.2348 51.6156 93.3483 51.525 92.461 51.4435C91.6138 51.3692 90.7647 51.3112 89.9139 51.2695V98.7358H43.376V62.1522C41.6105 63.1307 39.8796 64.1698 38.1833 65.2697V98.7358H12.8728C12.8099 99.0375 12.747 99.3446 12.6924 99.649H38.1614V130.707H14.1026C14.1737 131.011 14.2475 131.316 14.3213 131.62H38.1723V161.156H17.978C17.9261 161.461 17.8742 161.765 17.8168 162.069H38.1723V244.654C39.8893 244.974 41.6229 245.198 43.3651 245.326V162.069H89.9139V238.004C91.6593 237.44 93.3948 236.85 95.1203 236.234V162.069H162.172V228.415C163.932 227.947 165.656 227.356 167.332 226.645L167.376 226.626V162.069H232.591V193.182C234.32 192.872 236.051 192.576 237.784 192.293V162.069H284.155C284.308 161.765 284.458 161.461 284.606 161.156H237.8V131.62H293.999C294.057 131.316 294.109 131.011 294.161 130.707H237.8V99.649ZM43.3787 99.649H89.9139V130.707H43.376L43.3787 99.649ZM43.3787 161.156V131.62H89.9139V161.156H43.3787ZM95.123 99.649H162.172V130.707H95.1203L95.123 99.649ZM95.123 161.156V131.62H162.172V161.156H95.123ZM232.594 161.156H167.376V131.62H232.591L232.594 161.156ZM232.594 130.715H167.376V100.481L168.291 99.649H232.591L232.594 130.715ZM189.01 161.156C189.009 161.163 189.009 161.171 189.01 161.178L188.928 161.934V162.002V162.069H197.018V162.015L197.595 161.156H189.01ZM199.574 161.156H198.642V161.561V162.069H199.697L199.574 161.156ZM167.379 161.156V131.62H176.671C176.572 131.539 176.471 131.457 176.367 131.381L176.231 131.278C176.173 131.232 176.116 131.188 176.056 131.147C175.996 131.107 175.854 131.003 175.747 130.933C175.64 130.862 175.575 130.816 175.474 130.759L175.411 130.718H175.397H167.376V129.101L167.16 129.204L166.93 129.332H166.914L166.865 129.362L166.723 129.454C166.673 129.484 166.624 129.514 166.578 129.546C166.436 129.642 166.304 129.745 166.154 129.851L166.018 129.96C165.925 130.03 165.837 130.104 165.744 130.177C165.381 130.473 165.023 130.783 164.651 131.069C164.558 131.142 164.465 131.213 164.378 131.281C164.179 131.425 163.973 131.56 163.76 131.683C163.672 131.737 163.58 131.787 163.487 131.832L163.334 131.903L163.194 131.963C162.866 132.1 162.526 132.208 162.178 132.283V161.156H148.239C148.239 161.189 148.258 161.219 148.267 161.251C148.343 161.523 148.42 161.795 148.493 162.067H162.18V193.728H162.394L162.637 193.744L163.08 193.777L163.796 193.848L164.118 193.886L164.473 193.929H164.525C164.73 193.956 164.938 193.989 165.148 194.022L165.282 194.043L165.583 194.092L166.015 194.168L167.051 194.114L167.193 194.144C167.25 194.144 167.307 194.166 167.368 194.179V162.069H188.907V162.002V161.934L188.989 161.178C188.987 161.171 188.987 161.163 188.989 161.156H167.379Z" fill="#6C63FF"/>
<path opacity="0.1" d="M56.3077 148.96H56.7232C56.581 148.878 56.4614 148.762 56.3751 148.623C56.2888 148.484 56.2384 148.326 56.2285 148.163C56.2285 147.533 57.0047 147.019 57.953 147.019H70.0193C70.9677 147.019 71.7438 147.533 71.7438 148.163C71.7438 148.791 70.9677 149.308 70.0193 149.308H69.6175C69.759 149.39 69.8779 149.506 69.9637 149.645C70.0495 149.783 70.0996 149.941 70.1095 150.104C70.1095 150.648 69.5465 151.093 68.7922 151.216H72.2658C73.2115 151.216 73.9877 151.729 73.9877 152.36C73.9877 152.99 73.2115 153.501 72.2658 153.501H60.1859C59.2403 153.501 58.4641 152.988 58.4641 152.36C58.4641 151.816 59.0271 151.37 59.7814 151.248H56.3077C55.3621 151.248 54.5859 150.734 54.5859 150.104C54.5859 149.473 55.3567 148.96 56.3077 148.96Z" fill="#6C63FF"/>
<path opacity="0.1" d="M187.088 159.851H187.493C187.35 159.769 187.231 159.653 187.144 159.513C187.058 159.374 187.008 159.215 186.998 159.052C186.998 158.424 187.774 157.91 188.723 157.91H200.789C201.737 157.91 202.513 158.424 202.513 159.052C202.513 159.682 201.737 160.196 200.789 160.196H200.387C200.529 160.279 200.648 160.395 200.734 160.534C200.819 160.674 200.869 160.832 200.879 160.995C200.879 161.539 200.316 161.982 199.562 162.104H203.035C203.981 162.104 204.757 162.62 204.757 163.248C204.757 163.876 203.981 164.392 203.035 164.392H190.972C190.026 164.392 189.25 163.879 189.25 163.248C189.25 162.705 189.813 162.259 190.567 162.139H187.088C186.143 162.139 185.366 161.623 185.366 160.995C185.366 160.367 186.148 159.851 187.088 159.851Z" fill="#6C63FF"/>
<path opacity="0.1" d="M37.797 206.455H38.2015C38.0598 206.372 37.9408 206.256 37.855 206.117C37.7692 205.977 37.7192 205.819 37.7095 205.656C37.7095 205.028 38.483 204.512 39.4313 204.512H51.4976C52.446 204.512 53.2222 205.028 53.2222 205.656C53.2222 206.287 52.446 206.8 51.4976 206.8H51.0959C51.2376 206.883 51.3566 206.999 51.4424 207.139C51.5282 207.278 51.5781 207.436 51.5878 207.599C51.5878 208.143 51.0248 208.586 50.2705 208.708H53.7442C54.6925 208.708 55.466 209.222 55.466 209.852C55.466 210.483 54.6925 210.997 53.7442 210.997H41.6752C40.7295 210.997 39.9534 210.48 39.9534 209.852C39.9534 209.309 40.5191 208.863 41.2707 208.741H37.797C36.8514 208.741 36.0752 208.227 36.0752 207.599C36.0752 206.971 36.8514 206.455 37.797 206.455Z" fill="#6C63FF"/>
<path d="M207.761 235.233L208.067 225.842C207.884 225.701 207.698 225.571 207.52 225.44C207.596 222.64 207.435 219.839 207.039 217.066C205.804 207.676 197.783 207.472 195.52 209.41C195.22 209.667 194.893 209.891 194.544 210.078C194.749 208.738 195.003 207.396 195.186 206.069C196.176 198.916 194.64 190.868 189.059 186.245C186.722 184.312 183.866 183.124 181.3 181.507C176.703 178.623 173.071 174.364 168.422 171.557C163.773 168.749 157.244 167.697 153.188 171.307C151.616 172.704 150.602 174.642 148.99 175.99C145.984 178.501 141.297 178.667 138.673 181.472C138.542 181.613 138.416 181.757 138.296 181.909C136.109 184.698 136.708 188.653 137.405 192.113C138.244 196.277 137.897 199.614 141.488 200.81C141.501 200.976 141.512 201.142 141.532 201.305C141.824 203.859 142.674 206.319 144.022 208.512C145.37 210.706 147.184 212.58 149.337 214.003L148.755 214.21C147.203 214.753 145.806 215.28 144.912 215.642C141.633 216.971 134.729 218.702 134.729 218.702C134.729 218.702 134.565 220.659 134.595 223.546C132.294 226.033 128.454 230.403 127.325 232.993C125.686 236.771 116.421 247.591 113.953 249.225C111.485 250.858 108.809 252.796 108.809 252.796C108.809 252.796 104.901 254.941 103.051 255.145C101.769 255.286 97.8032 254.53 97.8032 254.53C97.8032 254.53 81.9654 235.233 82.993 250.04C84.0206 264.848 96.6718 265.35 96.6718 265.35L109.427 265.147C109.427 265.147 116.319 266.065 119.405 263.516C122.04 261.341 135.694 249.412 140.08 244.001C140.181 244.112 140.283 244.221 140.389 244.327C140.389 244.327 142.136 242.082 142.343 244.327C142.551 246.572 141.209 247.589 141.931 248.404C142.652 249.219 144.811 252.079 144.912 253.201C145.013 254.324 142.034 258.909 147.071 262.388C147.151 262.442 147.235 262.494 147.328 262.545C148.227 264.581 151.086 266.573 151.086 266.573L166.514 266.37L195.623 268.615C195.623 268.615 196.49 267.856 197.662 266.617C199.228 268.047 201.401 269.272 203.85 268.52C203.85 268.52 207.348 264.337 207.452 261.581C207.452 261.581 205.189 255.761 204.172 254.027C203.156 252.293 204.894 248.515 204.894 248.515C204.894 248.515 206.126 244.841 206.848 244.841C207.57 244.841 207.053 242.395 207.053 242.395C206.78 241.995 206.61 241.535 206.556 241.055C206.502 240.574 206.567 240.088 206.744 239.639C207.348 238.092 207.761 235.233 207.761 235.233Z" fill="url(#paint0_linear_405:66)"/>
<path d="M190.311 233.118L189.217 234.39L184.801 239.506L179.031 239.853L169.796 240.419C169.796 240.419 157.345 225.497 159.684 222.249C160.534 221.078 160.674 219.531 160.504 218.072C160.482 217.871 160.452 217.67 160.417 217.471C160.137 215.927 159.648 214.427 158.963 213.014L159.269 212.875L159.466 212.785L170.354 207.844L173.049 206.621C173.183 207.36 173.432 208.073 173.787 208.736C173.839 208.839 173.896 208.942 173.956 209.04C177.67 215.155 189.581 211.288 189.581 211.288L190.311 233.118Z" fill="#EBBBC3"/>
<path d="M206.411 225.484C206.329 229.185 205.722 230.784 205.722 230.784L190.31 233.118L189.734 229.139L187.452 213.427L189.594 211.296C190.45 211.479 191.337 211.465 192.187 211.254C193.037 211.043 193.826 210.641 194.495 210.078C196.738 208.149 204.7 208.352 205.924 217.689C206.284 220.271 206.446 222.877 206.411 225.484Z" fill="#EE8E9E"/>
<path d="M202.762 268.843C202.762 268.843 206.23 264.682 206.334 261.942L202.863 256.156L199.802 252.894L194.085 263.869C194.085 263.869 197.862 270.365 202.762 268.843Z" fill="#DFE5EE"/>
<path opacity="0.1" d="M202.762 268.843C202.762 268.843 206.23 264.682 206.334 261.942L202.863 256.156L199.802 252.894L194.085 263.869C194.085 263.869 197.862 270.365 202.762 268.843Z" fill="black"/>
<path d="M174.123 287.271C173.833 287.496 173.546 287.722 173.251 287.945C171.772 289.078 170.275 290.187 168.747 291.247C168.383 291.5 168.014 291.753 167.654 292H152.729H85.6768H80.4704L54.6761 291.081L33.9325 290.907L28.7398 290.636L2.83076 289.277C1.88159 286.176 1.16809 283.009 0.696276 279.802C0.589688 279.079 0.494032 278.353 0.422974 277.627L28.7289 279.188L33.9216 279.478L80.4595 282.06L85.6659 282.349L152.718 286.072L157.878 286.36H157.921L174.123 287.271Z" fill="white"/>
<path d="M209.089 267.025C203.402 268.655 197.884 270.756 192.691 273.732C192.278 273.969 191.871 274.211 191.458 274.458C191.046 274.706 190.638 274.953 190.242 275.208C189.846 275.464 189.447 275.717 189.053 275.975L188.447 276.382L187.853 276.785C187.269 277.184 186.692 277.6 186.115 278.002L186.093 278.019C185.714 278.29 185.336 278.562 184.959 278.834C182.83 280.402 180.748 282.044 178.673 283.691C178.236 284.039 177.798 284.386 177.359 284.732L175.336 286.327C174.94 286.64 174.538 286.95 174.139 287.26C173.849 287.485 173.562 287.711 173.267 287.934L157.962 287.208H157.919L152.759 286.969L85.6768 283.808L80.4704 283.561L33.9325 281.362L28.7398 281.114L0.69629 279.802C0.589703 279.079 0.494047 278.353 0.422988 277.627C0.280871 276.382 0.175194 275.132 0.105957 273.877L28.7371 263.82L33.9298 261.991L38.647 260.333L47.2423 260.779L67.1087 261.793L80.4786 262.491L85.685 262.763L89.0111 262.937L89.8064 262.98L117.798 264.434L118.093 264.453L130.583 265.1H130.725H130.807L132.056 265.163L136.314 265.386L141.638 265.657L143.393 265.75L143.723 265.769L146.205 265.897L146.913 265.932L149.282 266.057L150.225 266.109H150.255H150.452L152.669 266.226L156.101 266.405H156.118L157.184 266.459H157.298L157.935 266.495L159.498 266.576L160.865 266.647H160.879L162.412 266.726H162.436L163.598 266.788L164.489 266.834L167.651 267L168.219 267.03H168.416L168.69 267.046L169.616 267.095L170.031 267.117L173.256 267.283H173.552L178.313 267.242H178.345L196.446 267.095H196.793H197.159H198.236L204.063 267.049H204.932L209.089 267.025Z" fill="#848484"/>
<path d="M86.9258 267.397L88.6094 276.304L134.382 275.619C134.382 275.619 137.826 276.608 137.749 273.869C137.749 273.869 144.716 267.321 180.002 274.934L166.454 264.353L129.422 266.332L86.4803 265.19L86.9258 267.397Z" fill="#B59B41"/>
<path d="M87.7676 265.266L89.3746 274.934C89.3746 274.934 128.73 273.793 134.918 274.858L130.241 266.027C130.241 266.027 106.445 263.82 87.7676 265.266Z" fill="white"/>
<path opacity="0.1" d="M87.7676 265.266L89.3746 274.934C89.3746 274.934 128.73 273.793 134.918 274.858L130.241 266.027C130.241 266.027 106.445 263.82 87.7676 265.266Z" fill="black"/>
<path d="M88.3552 265.231L89.9403 274.222C89.9403 274.222 128.796 273.162 134.918 274.152L130.307 265.941C130.307 265.941 106.798 263.886 88.3552 265.231Z" fill="white"/>
<path opacity="0.1" d="M89.0685 265.508L90.6126 273.917C90.6126 273.917 128.615 272.925 134.614 273.852L130.105 266.168C130.105 266.168 107.109 264.238 89.0685 265.508Z" fill="black"/>
<path d="M89.3746 265.201L90.927 273.627C90.927 273.627 128.93 272.635 134.929 273.562L130.408 265.87C130.408 265.87 107.415 263.943 89.3746 265.201Z" fill="white"/>
<path d="M62.4871 242.335C62.4871 242.335 64.4768 244.919 61.5716 248.825C58.6664 252.731 56.2668 256.025 57.237 258.46C57.237 258.46 61.6098 251.209 65.1901 251.122C68.7704 251.035 66.4145 246.694 62.4871 242.335Z" fill="#B59B41"/>
<path opacity="0.1" d="M62.4871 242.335C62.6619 242.585 62.7991 242.86 62.8943 243.15C66.3762 247.227 68.2319 251.032 64.884 251.114C61.7656 251.201 58.0268 256.745 57.1304 258.148C57.1613 258.253 57.1969 258.359 57.237 258.466C57.237 258.466 61.6098 251.214 65.1901 251.127C68.7703 251.04 66.4145 246.694 62.4871 242.335Z" fill="black"/>
<path d="M66.1849 245.632C66.1849 246.539 66.0811 247.279 65.9553 247.279C65.8296 247.279 65.7258 246.539 65.7258 245.632C65.7258 244.724 65.8542 245.148 65.9799 245.148C66.1057 245.148 66.1849 244.721 66.1849 245.632Z" fill="#FFD037"/>
<path d="M67.453 246.716C66.6495 247.154 65.9499 247.418 65.8897 247.306C65.8296 247.195 66.4363 246.763 67.2344 246.317C68.0324 245.871 67.7208 246.197 67.781 246.317C67.8411 246.436 68.2565 246.281 67.453 246.716Z" fill="#FFD037"/>
<path d="M51.9841 242.335C51.9841 242.335 49.9945 244.919 52.9024 248.825C55.8104 252.731 58.2045 256.025 57.237 258.46C57.237 258.46 52.8505 251.209 49.2812 251.122C45.7119 251.035 48.0568 246.694 51.9841 242.335Z" fill="#B59B41"/>
<path opacity="0.1" d="M51.9841 242.335C51.8107 242.586 51.6737 242.861 51.5769 243.15C48.095 247.227 46.2393 251.032 49.5873 251.114C52.7057 251.201 56.4472 256.745 57.3436 258.148C57.3144 258.253 57.2789 258.359 57.237 258.466C57.237 258.466 52.8505 251.214 49.2812 251.127C45.7118 251.04 48.0568 246.694 51.9841 242.335Z" fill="black"/>
<path d="M48.2864 245.632C48.2864 246.539 48.3902 247.279 48.516 247.279C48.6417 247.279 48.7455 246.539 48.7455 245.632C48.7455 244.724 48.6171 245.148 48.4914 245.148C48.3656 245.148 48.2864 244.721 48.2864 245.632Z" fill="#FFD037"/>
<path d="M47.0183 246.716C47.8218 247.154 48.5242 247.418 48.5843 247.306C48.6444 247.195 48.0377 246.763 47.2397 246.317C46.4416 245.871 46.7532 246.197 46.693 246.317C46.6329 246.436 46.2148 246.281 47.0183 246.716Z" fill="#FFD037"/>
<path d="M67.9286 254.973L67.8302 255.789L67.6908 256.927L67.6334 257.403L67.494 258.545L67.4339 259.02L67.2918 260.162L65.7012 273.132C65.5591 274.29 63.6569 275.192 61.3611 275.192H53.102C50.8062 275.192 48.9068 274.29 48.7647 273.132L47.1713 260.162L47.0319 259.02L46.9745 258.545L46.8324 257.403L46.775 256.927L46.6356 255.789L46.5345 254.973C46.4553 254.318 47.4829 253.766 48.7838 253.766H65.6902C66.9884 253.766 68.0188 254.318 67.9286 254.973Z" fill="#65617D"/>
<path d="M67.8384 255.78L67.699 256.922H46.775L46.6356 255.78H67.8384Z" fill="#9D9CB5"/>
<path d="M67.6416 257.398L67.5022 258.539H46.9745L46.8324 257.398H67.6416Z" fill="#9D9CB5"/>
<path d="M67.4421 259.015L67.3027 260.154H47.1713L47.0319 259.015H67.4421Z" fill="#9D9CB5"/>
<path d="M93.1516 253.924C93.1516 253.924 87.8441 248.85 88.0491 255.446C88.254 262.043 93.1516 253.924 93.1516 253.924Z" fill="#EE8E9E"/>
<path d="M140.813 242.354C140.695 242.865 140.124 243.713 139.233 244.776C134.631 250.288 121.537 261.744 118.971 263.869C115.91 266.408 109.072 265.5 109.072 265.5L96.4176 265.704C96.4176 265.704 83.8648 265.195 82.8427 250.483C81.8205 235.771 97.5382 254.949 97.5382 254.949C97.5382 254.949 101.474 255.699 102.745 255.558C104.581 255.356 108.459 253.226 108.459 253.226C108.459 253.226 111.113 251.296 113.562 249.673C116.011 248.051 125.196 237.29 126.831 233.534C127.867 231.15 131.204 227.253 133.507 224.725C134.83 223.271 135.811 222.279 135.811 222.279C135.811 222.279 141.526 239.206 140.813 242.354Z" fill="#EBBBC3"/>
<path opacity="0.1" d="M140.813 242.354C140.695 242.865 140.124 243.713 139.233 244.775C134.587 240.071 133.617 230.683 133.507 224.714C134.83 223.26 135.811 222.268 135.811 222.268C135.811 222.268 141.526 239.206 140.813 242.354Z" fill="black"/>
<path opacity="0.1" d="M189.215 234.39L184.801 239.505L179.031 239.853L169.796 240.419C169.796 240.419 157.345 225.497 159.684 222.249C160.534 221.078 160.674 219.531 160.504 218.072C160.482 217.87 160.452 217.669 160.417 217.471C160.137 215.927 159.648 214.427 158.963 213.013L159.269 212.875L159.466 212.785C159.952 214.132 160.287 215.527 160.466 216.946C160.496 217.139 160.523 217.34 160.551 217.547C160.646 218.281 160.734 219.096 160.824 219.993C161.535 228.207 166.73 231.297 169.075 232.281C169.829 232.597 170.566 232.952 171.283 233.344C173.539 234.581 176.141 235.049 178.69 234.676C184.478 233.92 189.198 229.737 189.198 229.737L189.223 233.855L189.215 234.39Z" fill="black"/>
<path d="M189.392 266.307C189.392 266.307 151.428 266.204 146.424 262.755C141.419 259.306 144.385 254.737 144.281 253.62C144.177 252.503 142.037 249.663 141.324 248.847C140.611 248.032 141.936 247.021 141.731 244.789C141.526 242.558 139.793 244.789 139.793 244.789C132.646 237.581 134.177 219.314 134.177 219.314C134.177 219.314 141.01 217.591 144.289 216.267C145.177 215.908 146.56 215.397 148.115 214.846L148.692 214.639C152.701 213.212 157.468 211.6 157.468 211.6C157.468 211.6 158.383 210.956 159.304 212.883C159.725 213.769 160.149 215.196 160.488 217.477C160.518 217.67 160.545 217.871 160.573 218.077C160.668 218.811 160.756 219.627 160.846 220.524C161.556 228.737 166.752 231.827 169.097 232.811C169.851 233.128 170.588 233.482 171.305 233.874C173.561 235.111 177.737 233.874 179.641 232.811C185.989 226.471 187.258 217.477 187.258 217.477L189.245 234.385L189.316 246.757L189.392 266.307Z" fill="#DAAD11"/>
<path d="M187.758 250.272L187.146 254.128C187.146 254.128 172.04 257.882 166.123 258.999C160.206 260.116 147.446 258.694 146.527 261.13C145.609 263.565 150.406 266.916 150.406 266.916L165.711 266.712L194.593 268.947C194.593 268.947 205.615 259.303 202.043 252.604C198.471 245.904 187.758 250.272 187.758 250.272Z" fill="#EBBBC3"/>
<path opacity="0.1" d="M156.632 219.822C156.632 219.822 149.69 225.505 151.018 228.247C152.346 230.99 156.632 219.822 156.632 219.822Z" fill="black"/>
<path opacity="0.1" d="M148.058 230.071C148.058 230.071 141.015 242.15 141.425 243.063C141.835 243.976 143.773 247.224 143.669 244.789C143.565 242.354 148.058 230.071 148.058 230.071Z" fill="black"/>
<path opacity="0.1" d="M150.917 232.205C150.917 232.205 149.277 239.715 147.651 242.862C146.025 246.01 150.917 232.205 150.917 232.205Z" fill="black"/>
<path opacity="0.1" d="M173.97 209.048C172.62 211.509 170.698 213.613 168.363 215.184C166.029 216.754 163.35 217.747 160.551 218.077H160.518C156.115 218.591 151.679 217.436 148.094 214.843C152.193 213.369 157.446 211.597 157.446 211.597C157.446 211.597 158.361 210.953 159.282 212.88L173.062 206.629C173.217 207.483 173.524 208.302 173.97 209.048Z" fill="black"/>
<path d="M176.123 200.03C176.129 203.087 175.328 206.091 173.8 208.744C173.071 210.009 172.187 211.179 171.168 212.228C168.327 215.17 164.541 217.031 160.466 217.49H160.43C159.779 217.564 159.124 217.602 158.468 217.602C154.13 217.602 149.944 216.013 146.708 213.14C143.472 210.266 141.414 206.309 140.925 202.022C140.849 201.365 140.811 200.703 140.813 200.041C140.813 195.384 142.673 190.918 145.984 187.626C149.295 184.333 153.786 182.483 158.468 182.483C163.151 182.483 167.641 184.333 170.952 187.626C174.263 190.918 176.123 195.384 176.123 200.041V200.03Z" fill="#EBBBC3"/>
<path opacity="0.1" d="M187.556 233.254L189.195 230.808C189.195 230.808 198.176 220.151 206.96 226.951L206.654 236.29C206.654 236.29 206.244 239.13 205.632 240.639C205.456 241.086 205.392 241.57 205.445 242.047C205.499 242.525 205.668 242.983 205.938 243.381C205.938 243.381 206.449 245.827 205.736 245.827C205.022 245.827 203.795 249.48 203.795 249.48C203.795 249.48 202.06 253.236 203.082 254.962C204.104 256.688 206.348 262.472 206.348 262.472C206.348 262.472 202.776 260.341 201.754 256.789C201.754 256.789 193.079 250.089 186.342 254.343L187.556 233.254Z" fill="black"/>
<path opacity="0.1" d="M206.411 225.484C206.329 229.185 205.722 230.784 205.722 230.784L190.31 233.118L189.734 229.139C191.751 227.046 199.086 220.393 206.411 225.484Z" fill="black"/>
<path d="M187.819 228.644L189.435 225.85C189.435 225.85 198.283 213.676 206.937 221.444L206.635 232.112C206.635 232.112 206.231 235.356 205.628 237.079C205.455 237.59 205.392 238.142 205.444 238.688C205.497 239.234 205.663 239.756 205.93 240.212C205.93 240.212 206.433 243.006 205.731 243.006C205.028 243.006 203.819 247.178 203.819 247.178C203.819 247.178 202.109 251.469 203.116 253.44C204.123 255.412 206.334 262.018 206.334 262.018C206.334 262.018 202.814 259.584 201.807 255.527C201.807 255.527 193.261 247.874 186.624 252.733L187.819 228.644Z" fill="#DAAD11"/>
<path d="M189.089 215.948L190.704 213.154C190.704 213.154 193.894 208.765 198.316 206.94C204.573 204.356 208.096 212.649 207.905 219.416C207.905 219.416 207.501 222.66 206.898 224.383C206.725 224.895 206.661 225.447 206.714 225.992C206.767 226.538 206.933 227.061 207.199 227.516C207.199 227.516 207.703 230.31 207 230.31C206.297 230.31 205.088 234.483 205.088 234.483C205.088 234.483 203.379 238.773 204.386 240.745C205.393 242.716 202.493 249.323 202.493 249.323C202.493 249.323 204.084 246.889 203.077 242.831C203.077 242.831 194.531 235.178 187.893 240.037L189.089 215.948Z" fill="#DAAD11"/>
<path opacity="0.1" d="M202.046 225.81C202.046 225.81 187.25 234.844 187.963 242.767C187.963 242.767 196.23 228.245 202.046 225.81Z" fill="black"/>
<path opacity="0.1" d="M189.212 234.393L189.283 246.765C186.484 246.89 183.847 246.529 181.762 244.727C180.31 243.471 179.466 241.737 179.029 239.862C178.703 238.35 178.584 236.803 178.673 235.26C178.672 235.245 178.672 235.229 178.673 235.214C178.846 231.797 179.635 228.381 179.22 224.986C178.805 221.591 176.736 218.009 173.358 217.294C172.691 217.15 171.942 217.099 171.466 216.612C170.942 216.069 170.966 215.223 171.024 214.47L171.122 213.201C171.147 212.875 171.158 212.552 171.158 212.228C171.156 209.342 170.146 206.547 168.302 204.319C166.458 202.091 163.893 200.57 161.045 200.014L160.936 199.995C159.985 199.804 158.996 199.617 158.045 199.834C156.235 200.25 155.066 201.995 153.398 202.824C150.201 204.411 144.869 202.675 141.521 202.128C141.302 202.093 141.094 202.052 140.895 202.006C140.819 201.348 140.781 200.687 140.783 200.025C140.784 197.335 141.406 194.682 142.602 192.27C143.797 189.858 145.534 187.751 147.678 186.112C149.822 184.473 152.316 183.346 154.967 182.817C157.619 182.289 160.357 182.373 162.97 183.063C165.584 183.753 168.003 185.032 170.041 186.799C172.08 188.566 173.682 190.776 174.726 193.257C175.769 195.738 176.226 198.424 176.06 201.108C175.895 203.792 175.111 206.403 173.77 208.738C173.822 208.842 173.88 208.945 173.94 209.043C177.654 215.158 189.564 211.29 189.564 211.29L190.28 233.113L189.212 234.393Z" fill="black"/>
<path d="M154.041 202.522C155.697 201.691 156.866 199.946 158.687 199.533C159.635 199.315 160.624 199.503 161.581 199.69L161.69 199.712C164.701 200.304 167.388 201.974 169.243 204.405C171.098 206.836 171.992 209.86 171.756 212.902L171.658 214.172C171.597 214.922 171.573 215.772 172.103 216.311C172.576 216.797 173.325 216.854 173.992 216.99C177.37 217.708 179.439 221.271 179.854 224.685C180.269 228.098 179.466 231.526 179.307 234.956C179.149 238.386 179.783 242.172 182.39 244.425C186.49 247.958 192.721 245.947 198.146 245.624C195.746 245.624 193.948 243.161 193.817 240.78C193.686 238.399 194.752 236.133 195.771 233.985C196.791 231.838 197.813 229.528 197.586 227.152C197.274 223.891 194.689 221.279 193.699 218.14C192.546 214.487 193.658 210.565 194.18 206.768C195.162 199.658 193.634 191.653 188.099 187.057C185.782 185.136 182.948 183.953 180.401 182.344C175.836 179.466 172.237 175.245 167.624 172.446C163.01 169.646 156.533 168.608 152.507 172.196C150.949 173.584 149.944 175.511 148.342 176.851C145.213 179.474 140.239 179.523 137.73 182.741C135.571 185.511 136.156 189.444 136.847 192.882C137.768 197.467 137.249 201.036 142.176 201.851C145.511 202.376 150.84 204.112 154.041 202.522Z" fill="#603556"/>
<path opacity="0.1" d="M194.642 243.433C190.693 243.914 186.78 244.162 183.904 241.683C181.297 239.43 180.655 235.646 180.822 232.213C180.988 228.781 181.786 225.351 181.368 221.94C180.95 218.529 178.884 214.965 175.506 214.248C174.839 214.106 174.093 214.055 173.617 213.568C173.09 213.025 173.112 212.177 173.172 211.427L173.27 210.157C173.506 207.115 172.612 204.092 170.757 201.661C168.902 199.231 166.215 197.562 163.204 196.97L163.095 196.948C162.139 196.761 161.149 196.573 160.201 196.79C158.392 197.206 157.222 198.965 155.555 199.78C152.354 201.37 147.028 199.633 143.674 199.087C138.755 198.285 139.269 194.711 138.345 190.118C137.828 187.552 137.372 184.709 138.072 182.279C137.94 182.418 137.815 182.551 137.694 182.717C135.535 185.486 136.12 189.419 136.812 192.858C137.733 197.443 137.213 201.011 142.141 201.827C145.492 202.37 150.821 204.11 154.022 202.52C155.678 201.688 156.847 199.943 158.668 199.53C159.616 199.313 160.605 199.5 161.562 199.688L161.671 199.709C164.682 200.302 167.369 201.972 169.224 204.403C171.079 206.834 171.973 209.857 171.737 212.9L171.639 214.169C171.578 214.919 171.554 215.77 172.084 216.308C172.557 216.795 173.306 216.852 173.973 216.987C177.351 217.705 179.419 221.268 179.835 224.682C180.25 228.096 179.45 231.523 179.288 234.953C179.127 238.383 179.764 242.169 182.371 244.422C186.471 247.956 192.702 245.945 198.127 245.621C196.654 245.629 195.416 244.7 194.642 243.433Z" fill="black"/>
<path d="M83.7254 252.5L100.575 246.248C100.973 246.101 101.414 246.116 101.801 246.291C102.188 246.467 102.489 246.787 102.638 247.183C102.787 247.58 102.771 248.018 102.595 248.403C102.419 248.788 102.096 249.087 101.698 249.235L84.8487 255.487L81.2357 255.128L83.7254 252.5Z" fill="#B59B41"/>
<path opacity="0.1" d="M102.13 246.672C102.278 247.069 102.262 247.508 102.085 247.893C101.909 248.277 101.585 248.577 101.187 248.725L84.3267 254.998L81.6156 254.726L81.2247 255.139L84.8378 255.498L101.687 249.246C102.085 249.098 102.408 248.799 102.584 248.414C102.76 248.029 102.776 247.59 102.627 247.194C102.503 246.864 102.272 246.584 101.971 246.398C102.032 246.485 102.085 246.577 102.13 246.672Z" fill="white"/>
<path d="M83.7282 252.5L84.8487 255.487L81.8861 255.191L81.2384 255.126L82.1239 254.191L83.7282 252.5Z" fill="#EFC8C4"/>
<path d="M82.1211 254.182C82.1903 254.234 82.2496 254.297 82.296 254.37C82.3237 254.413 82.3385 254.464 82.3385 254.515C82.3385 254.567 82.3237 254.617 82.296 254.661C82.2495 254.709 82.1949 254.748 82.1348 254.778C82.0671 254.823 82.0104 254.882 81.9688 254.952C81.9272 255.021 81.9017 255.099 81.8943 255.18L81.2438 255.117L82.1211 254.182Z" fill="#727A9C"/>
<path d="M136.629 271.577C136.629 271.577 151.223 268.53 175.711 272.393L166.118 265.391L148.665 261.839L136.317 265.1L136.629 271.577Z" fill="white"/>
<path opacity="0.1" d="M136.629 271.577C136.629 271.577 151.223 268.53 175.711 272.393L166.118 265.391L148.665 261.839L136.317 265.1L136.629 271.577Z" fill="black"/>
<path d="M134.918 274.872C134.918 274.872 142.267 255.101 180.012 274.934L166.465 266.264C166.465 266.264 134.01 257.346 130.261 267.623L134.918 274.872Z" fill="white"/>
<path opacity="0.1" d="M134.918 274.858C134.918 274.858 142.267 253.72 180.012 275.238L166.465 265.834C166.465 265.834 133.999 255.169 130.241 266.332L134.918 274.858Z" fill="black"/>
<path d="M134.918 274.866C134.918 274.866 142.267 253.416 180.012 274.934L166.465 265.53C166.465 265.53 134.01 255.169 130.261 266.345L134.918 274.866Z" fill="white"/>
<path opacity="0.1" d="M134.918 274.872C134.918 274.872 142.267 251.032 180.013 275.238L166.454 264.657C166.454 264.657 133.999 253.786 130.25 266.332L134.918 274.872Z" fill="black"/>
<path d="M134.918 274.858C134.918 274.858 142.267 250.728 180.013 274.934L166.454 264.353C166.454 264.353 133.999 253.481 130.25 266.028L134.918 274.858Z" fill="white"/>
<path opacity="0.1" d="M288.658 115.542C288.658 115.542 276.554 120.978 282.26 128.423C282.26 128.423 282.749 130.013 284.411 129.98C284.411 129.98 284.113 129.363 285.403 128.95C285.862 128.801 286.3 128.598 286.71 128.344C287.265 128.004 287.693 127.494 287.931 126.89C287.931 126.89 290.511 123.813 288.962 117.782C288.962 117.782 289.292 116.116 289.096 115.836L287.56 117.711C287.56 117.711 288.986 118.777 289.079 120.236C289.079 120.236 287.669 117.72 287.319 117.98C287.248 118.032 286.551 119.011 286.551 119.011C286.551 119.011 289.011 120.875 289.096 123.134C289.096 123.134 287.816 119.91 286.281 119.378L285.316 120.916C285.316 120.916 288.027 122.761 288.207 125.327C288.207 125.327 286.753 122.006 285.127 121.266L284.381 122.897C284.381 122.897 286.991 124.748 287.114 126.884C287.114 126.884 285.045 123.215 284.225 123.286C284.225 123.286 283.632 124.83 283.679 125.316C283.679 125.316 285.521 126.675 285.488 127.936C285.488 127.936 283.848 125.632 283.575 125.762C283.575 125.762 283.343 127.98 283.824 129.168C283.824 129.168 282.984 127.466 283.225 125.743C283.225 125.743 282.255 126.482 281.998 127.493C281.998 127.493 281.555 126.24 283.288 125.205C283.288 125.205 283.537 123.484 283.742 123.28C283.742 123.28 281.886 124.061 281.06 125.099C281.06 125.099 281.429 123.509 283.925 122.84L284.635 121.177C284.635 121.177 282.129 122.079 281.323 122.949C281.323 122.949 281.951 121.383 284.848 120.775L285.78 119.258C285.78 119.258 283.561 119.875 282.454 120.65C282.454 120.65 283.353 119.323 286.065 118.834L286.805 117.894C286.805 117.894 285.193 118.372 284.742 118.551C284.291 118.731 284.195 118.625 284.195 118.625C285.045 117.985 286.056 117.594 287.117 117.494C287.117 117.494 288.757 115.651 288.658 115.542Z" fill="#6C63FF"/>
<path opacity="0.1" d="M173.77 118.907C173.77 118.907 155.585 124.071 164.426 131.758C164.426 131.758 165.21 133.388 167.728 133.388C167.728 133.388 167.257 132.758 169.203 132.375C169.873 132.241 170.53 132.048 171.166 131.798C171.915 131.537 172.553 131.03 172.975 130.361C172.975 130.361 176.801 127.317 174.29 121.179C174.29 121.179 174.746 119.505 174.44 119.217L172.166 121.071C172.166 121.071 174.352 122.188 174.536 123.664C174.536 123.664 172.33 121.084 171.803 121.337C171.696 121.389 170.666 122.356 170.666 122.356C170.666 122.356 174.459 124.308 174.631 126.594C174.631 126.594 172.609 123.302 170.258 122.723L168.837 124.251C168.837 124.251 172.991 126.189 173.333 128.787C173.333 128.787 171.043 125.392 168.561 124.601L167.468 126.232C167.468 126.232 171.469 128.173 171.731 130.336C171.731 130.336 168.498 126.572 167.257 126.618C167.257 126.618 166.402 128.167 166.479 128.659C166.479 128.659 169.305 130.094 169.291 131.355C169.291 131.355 166.738 128.98 166.317 129.105C166.317 129.105 166.028 131.342 166.787 132.554C166.787 132.554 165.47 130.812 165.787 129.078C165.787 129.078 164.341 129.798 163.978 130.812C163.978 130.812 163.273 129.537 165.869 128.537C165.869 128.537 166.2 126.803 166.503 126.602C166.503 126.602 163.715 127.341 162.494 128.368C162.494 128.368 163.008 126.77 166.768 126.161L167.801 124.498C167.801 124.498 164.03 125.346 162.833 126.202C162.833 126.202 163.743 124.637 168.116 124.093L169.482 122.585C169.482 122.585 166.137 123.147 164.481 123.903C164.481 123.903 165.806 122.585 169.898 122.163L170.991 121.234C170.991 121.234 168.561 121.674 167.883 121.843C167.206 122.011 167.063 121.902 167.063 121.902C168.429 121.245 169.919 120.882 171.436 120.837C171.436 120.837 173.929 119.021 173.77 118.907Z" fill="#6C63FF"/>
<path opacity="0.1" d="M138.126 106.199C138.126 106.199 139.687 119.31 148.553 116.146C148.553 116.146 150.223 116.16 150.693 114.573C150.693 114.573 150.009 114.67 150.004 113.322C149.998 112.843 149.934 112.366 149.815 111.901C149.658 111.272 149.298 110.712 148.791 110.305C148.791 110.305 146.615 106.93 140.354 106.598C140.354 106.598 138.856 105.783 138.528 105.886L139.864 107.905C139.864 107.905 141.316 106.873 142.742 107.226C142.742 107.226 139.905 107.808 140.05 108.215C140.078 108.3 140.805 109.254 140.805 109.254C140.805 109.254 143.36 107.46 145.546 108.071C145.546 108.071 142.073 108.31 141.1 109.607L142.267 110.988C142.267 110.988 144.852 108.971 147.369 109.572C147.369 109.572 143.745 109.952 142.546 111.27L143.907 112.472C143.907 112.472 146.465 110.553 148.553 111.069C148.553 111.069 144.409 111.928 144.229 112.724C144.229 112.724 145.533 113.752 146.014 113.86C146.014 113.86 147.883 112.526 149.069 112.934C149.069 112.934 146.364 113.798 146.405 114.102C146.405 114.102 148.463 114.988 149.744 114.891C149.744 114.891 147.861 115.162 146.282 114.429C146.282 114.429 146.697 115.567 147.591 116.119C147.591 116.119 146.257 116.16 145.784 114.217C145.784 114.217 144.21 113.461 144.076 113.208C144.076 113.208 144.267 115.2 145.013 116.296C145.013 116.296 143.598 115.48 143.707 112.901L142.341 111.724C142.341 111.724 142.453 114.374 143.043 115.402C143.043 115.402 141.731 114.333 142.015 111.401L140.843 110.061C140.843 110.061 140.764 112.349 141.174 113.632C141.174 113.632 140.171 112.382 140.52 109.664L139.84 108.677C139.84 108.677 139.815 110.349 139.84 110.833C139.864 111.316 139.747 111.363 139.747 111.363C139.388 110.367 139.314 109.291 139.534 108.256C139.534 108.256 138.263 106.133 138.126 106.199Z" fill="#6C63FF"/>
<path d="M224.157 113.727L224.269 113.723L223.828 112.751C223.332 111.375 222.727 110.042 222.017 108.764L209.074 80.27C208.661 79.3606 207.992 78.5919 207.149 78.0583C206.307 77.5246 205.327 77.2492 204.331 77.2658L187.94 77.5396C186.88 77.5573 185.852 77.9046 184.997 78.5333C184.143 79.1621 183.504 80.0413 183.169 81.0497L172.865 112.081C172.525 112.95 172.231 113.836 171.983 114.735L171.633 115.789L171.716 115.785C170.761 119.878 170.761 124.136 171.718 128.228C172.674 132.32 174.559 136.135 177.228 139.376C179.896 142.617 183.275 145.197 187.1 146.914C190.926 148.63 195.096 149.438 199.284 149.274C203.472 149.109 207.566 147.977 211.246 145.966C214.927 143.954 218.094 141.118 220.501 137.677C222.909 134.237 224.491 130.286 225.125 126.131C225.759 121.977 225.428 117.732 224.157 113.727H224.157Z" fill="white"/>
<path d="M193.611 84.508L188.453 112.779L189.035 112.886L194.193 84.6147L193.611 84.508Z" fill="#B59B41"/>
<path d="M199.809 84.4043L199.23 84.5303L205.319 112.614L205.897 112.488L199.809 84.4043Z" fill="#B59B41"/>
<path d="M186.153 63.6253L207.156 63.2745C207.313 63.2719 207.465 63.3319 207.578 63.4413C207.691 63.5507 207.755 63.7005 207.758 63.8578C207.761 64.0152 207.701 64.1671 207.592 64.2802C207.483 64.3933 207.333 64.4583 207.176 64.4609L186.173 64.8118C186.095 64.8131 186.018 64.799 185.946 64.7704C185.874 64.7418 185.808 64.6992 185.752 64.645C185.696 64.5908 185.651 64.5262 185.62 64.4547C185.59 64.3832 185.573 64.3063 185.572 64.2284C185.57 64.1505 185.584 64.0731 185.613 64.0007C185.641 63.9282 185.684 63.8621 185.738 63.8061C185.792 63.7501 185.857 63.7053 185.928 63.6743C185.999 63.6433 186.076 63.6266 186.153 63.6253Z" fill="white"/>
<path d="M186.376 68.0721L207.379 67.7213C207.535 67.7187 207.687 67.7786 207.8 67.888C207.913 67.9974 207.977 68.1473 207.98 68.3046C207.983 68.462 207.923 68.6139 207.814 68.727C207.705 68.8401 207.555 68.9051 207.398 68.9077L186.395 69.2586C186.238 69.2612 186.087 69.2012 185.974 69.0918C185.861 68.9824 185.796 68.8325 185.794 68.6752C185.791 68.5179 185.851 68.3659 185.96 68.2528C186.069 68.1397 186.219 68.0747 186.376 68.0721Z" fill="white"/>
<path d="M186.597 72.5184L207.6 72.1676C207.757 72.1649 207.909 72.2249 208.021 72.3343C208.134 72.4437 208.199 72.5936 208.202 72.7509C208.204 72.9082 208.145 73.0602 208.035 73.1733C207.926 73.2864 207.777 73.3514 207.62 73.354L186.617 73.7048C186.46 73.7075 186.309 73.6475 186.196 73.5381C186.083 73.4287 186.018 73.2788 186.015 73.1215C186.013 72.9642 186.073 72.8122 186.182 72.6991C186.291 72.586 186.44 72.521 186.597 72.5184Z" fill="white"/>
<path d="M196.585 59.2188C192.419 59.2884 189.08 61.6729 189.128 64.5448L204.214 64.2928C204.167 61.4209 200.751 59.1493 196.585 59.2188Z" fill="white"/>
<path d="M198.906 116.954C199.729 117.01 200.509 117.344 201.118 117.902C201.274 118.032 201.428 118.168 201.582 118.304C202.068 118.813 202.664 119.204 203.325 119.447C204.77 119.843 206.197 118.697 207.402 117.523L207.814 117.949C206.49 119.239 204.903 120.494 203.169 120.02C202.42 119.755 201.742 119.32 201.19 118.748C201.041 118.616 200.892 118.484 200.741 118.359C200.246 117.947 199.291 117.308 198.442 117.639C198.09 117.812 197.777 118.054 197.521 118.352C197.323 118.561 197.11 118.754 196.882 118.929C196.416 119.261 195.862 119.447 195.291 119.464C194.719 119.481 194.156 119.328 193.671 119.025C193.496 118.908 193.329 118.782 193.168 118.647C192.905 118.385 192.577 118.198 192.218 118.105C191.715 118.034 191.258 118.394 190.774 118.775C190.316 119.221 189.731 119.513 189.1 119.609C189.078 119.61 189.057 119.611 189.035 119.611C187.856 119.631 187.108 118.448 186.646 117.549L187.172 117.277C187.8 118.499 188.406 119.056 189.069 119.016C189.575 118.919 190.042 118.672 190.409 118.308C190.969 117.867 191.548 117.412 192.3 117.517C192.767 117.619 193.197 117.851 193.54 118.186C193.684 118.307 193.834 118.421 193.99 118.526C194.376 118.762 194.821 118.881 195.273 118.867C195.725 118.854 196.163 118.709 196.533 118.45C196.736 118.292 196.926 118.119 197.103 117.933C197.414 117.574 197.797 117.286 198.227 117.087C198.444 117.002 198.674 116.957 198.906 116.954Z" fill="#B59B41"/>
<path d="M197.252 0H196.637V59.1942H197.252V0Z" fill="white"/>
<circle cx="254.5" cy="34.5" r="15.5" fill="#E7C551"/>
<circle cx="247.5" cy="40.5" r="9.5" fill="#F7F4E9"/>
<defs>
<linearGradient id="paint0_linear_405:66" x1="145.505" y1="268.742" x2="145.505" y2="168.991" gradientUnits="userSpaceOnUse">
<stop stop-color="#808080" stop-opacity="0.25"/>
<stop offset="0.54" stop-color="#808080" stop-opacity="0.12"/>
<stop offset="1" stop-color="#808080" stop-opacity="0.1"/>
</linearGradient>
</defs>
</svg>
