<svg width="111" height="111" viewBox="0 0 111 111" fill="none" xmlns="http://www.w3.org/2000/svg">
<path d="M55.4991 0C86.1432 0 111 24.8571 111 55.5C111 86.1547 86.1432 111 55.4991 111C24.8534 111 0 86.1531 0 55.5C0 24.8571 24.855 0 55.4991 0ZM84.9858 81.9576C86.6575 81.9576 88.0152 80.61 88.0152 78.9383C88.0152 77.8317 87.3924 76.9101 86.4946 76.384V48.7214H83.4753V76.384C82.586 76.9101 81.9631 77.8283 81.9631 78.9434C81.9648 80.61 83.3209 81.9576 84.9858 81.9576ZM29.5851 71.0718C29.5851 74.6478 41.192 80.1382 55.5008 80.1382C69.808 80.1382 81.4166 74.6495 81.4166 71.0718V53.2088L55.5008 62.4619L29.5851 53.2088V71.0718ZM55.4991 59.2559L81.9971 49.7923L57.9244 46.0857C57.3457 46.8121 56.5056 47.2991 55.511 47.2991C53.7714 47.2991 52.3611 45.8922 52.3611 44.1424C52.3611 42.3943 53.7629 40.9907 55.511 40.9907C56.884 40.9907 58.0161 41.8868 58.4488 43.1054L87.9728 47.6488L97.8011 44.139L55.5059 29.0322L13.2125 44.139L55.4991 59.2559Z" fill="#B7A675"/>
</svg>
