<svg width="25" height="23" viewBox="0 0 25 23" fill="none" xmlns="http://www.w3.org/2000/svg">
<path d="M6.06 0.5H18.94C22.0468 0.5 24.5 3.24537 24.5 6.52632V20.8947C24.5 21.5166 24.1567 22.111 23.5838 22.3707C23.3897 22.4595 23.1868 22.5 22.988 22.5C22.58 22.5 22.1886 22.3249 21.9037 22.0138L22.2725 21.6762L21.9037 22.0138L19.4617 19.3466C19.4615 19.3465 19.4614 19.3463 19.4612 19.3461C19.3587 19.235 19.2356 19.1842 19.113 19.1842H6.06C2.9532 19.1842 0.5 16.4388 0.5 13.1579V6.52632C0.5 3.24537 2.9532 0.5 6.06 0.5Z" stroke="#B7A675"/>
<path d="M16.175 11.7632C15.416 11.7632 14.8 11.1442 14.8 10.3816C14.8 9.61895 15.416 9 16.175 9C16.934 9 17.55 9.61895 17.55 10.3816C17.55 11.1442 16.934 11.7632 16.175 11.7632Z" fill="#B7A675"/>
<path d="M11.775 11.7632C11.016 11.7632 10.4 11.1442 10.4 10.3816C10.4 9.61895 11.016 9 11.775 9C12.534 9 13.15 9.61895 13.15 10.3816C13.15 11.1442 12.534 11.7632 11.775 11.7632Z" fill="#B7A675"/>
<path d="M7.37499 11.7632C6.61599 11.7632 5.99999 11.1442 5.99999 10.3816C5.99999 9.61895 6.61599 9 7.37499 9C8.13399 9 8.74999 9.61895 8.74999 10.3816C8.74999 11.1442 8.13399 11.7632 7.37499 11.7632Z" fill="#B7A675"/>
</svg>
