<svg width="12" height="12" viewBox="0 0 12 12" fill="none" xmlns="http://www.w3.org/2000/svg">
<path d="M9.69231 3.07692H9.53846V2.30769C9.53846 1.03508 8.50338 0 7.23077 0H2.30769C1.03508 0 0 1.03508 0 2.30769V8.46154C0 8.64923 0.113848 8.81783 0.286771 8.8886C0.343387 8.91198 0.402462 8.92308 0.461538 8.92308C0.583385 8.92308 0.702776 8.87509 0.791391 8.78463L1.86153 7.69231H2.46154V8.46154C2.46154 9.73415 3.49662 10.7692 4.76923 10.7692H10.1385L11.2086 11.8616C11.2972 11.952 11.4166 12 11.5385 12C11.5975 12 11.6566 11.9889 11.7132 11.9655C11.8868 11.8948 12 11.7255 12 11.5385V5.38462C12 4.112 10.9649 3.07692 9.69231 3.07692ZM1.66769 6.76923C1.54338 6.76923 1.42462 6.81906 1.33785 6.90768L0.923077 7.33106V2.30769C0.923077 1.544 1.544 0.923077 2.30769 0.923077H7.23077C7.99446 0.923077 8.61539 1.544 8.61539 2.30769V5.38462C8.61539 6.14831 7.99446 6.76923 7.23077 6.76923H1.66769ZM11.0769 10.408L10.6621 9.9846C10.5754 9.89599 10.4566 9.84615 10.3323 9.84615H4.76923C4.00554 9.84615 3.38462 9.22523 3.38462 8.46154V7.69231H7.23077C8.50338 7.69231 9.53846 6.65723 9.53846 5.38462V4H9.69231C10.456 4 11.0769 4.62092 11.0769 5.38462V10.408Z" fill="#B7A675"/>
</svg>
