<svg width="43" height="43" viewBox="0 0 43 43" fill="none" xmlns="http://www.w3.org/2000/svg">
<g filter="url(#filter0_b_525:209)">
<rect x="0.472717" y="0.181641" width="42.3818" height="42.3818" rx="12" fill="#B0D5DD" fill-opacity="0.4"/>
</g>
<path d="M34.8364 21.361L32.0415 18.1652L32.431 13.9385L28.2959 12.9992L26.131 9.34521L22.2364 11.0176L18.3419 9.34521L16.177 12.9992L12.0419 13.927L12.4313 18.1652L9.63641 21.361L12.4313 24.5569L12.0419 28.795L16.177 29.7343L18.3419 33.3998L22.2364 31.7159L26.131 33.3883L28.2959 29.7343L32.431 28.795L32.0415 24.5683L34.8364 21.361ZM30.3119 23.0563L29.6704 23.8009L29.762 24.7745L29.9682 27.0081L27.7919 27.5007L26.8297 27.7183L26.3257 28.5659L25.1917 30.4903L23.1528 29.6083L22.2364 29.2189L21.3315 29.6083L19.2926 30.4903L18.1586 28.5774L17.6546 27.7298L16.6924 27.5121L14.5161 27.0196L14.7222 24.7745L14.8139 23.8009L14.1724 23.0563L12.6948 21.3725L14.1724 19.6772L14.8139 18.9327L14.7108 17.9476L14.5046 15.7254L16.681 15.2329L17.6431 15.0152L18.1471 14.1676L19.2811 12.2432L21.32 13.1252L22.2364 13.5147L23.1413 13.1252L25.1802 12.2432L26.3142 14.1676L26.8182 15.0152L27.7804 15.2329L29.9568 15.7254L29.7506 17.959L29.659 18.9327L30.3004 19.6772L31.778 21.361L30.3119 23.0563Z" fill="white"/>
<path d="M20.0485 23.3769L17.3911 20.708L15.6958 22.4147L20.0485 26.7789L28.4562 18.3483L26.7609 16.6416L20.0485 23.3769Z" fill="white"/>
<defs>
<filter id="filter0_b_525:209" x="-17.5273" y="-17.8184" width="78.3818" height="78.3818" filterUnits="userSpaceOnUse" color-interpolation-filters="sRGB">
<feFlood flood-opacity="0" result="BackgroundImageFix"/>
<feGaussianBlur in="BackgroundImage" stdDeviation="9"/>
<feComposite in2="SourceAlpha" operator="in" result="effect1_backgroundBlur_525:209"/>
<feBlend mode="normal" in="SourceGraphic" in2="effect1_backgroundBlur_525:209" result="shape"/>
</filter>
</defs>
</svg>
