<svg width="23" height="20" viewBox="0 0 23 20" fill="none" xmlns="http://www.w3.org/2000/svg">
<path d="M18.5486 13.6817C21.2571 12.283 23 10.098 23 7.64244C23 3.42183 17.8512 0 11.5004 0C5.1488 0 0 3.42183 0 7.64244C0 11.8636 5.14854 15.2856 11.5004 15.2856C12.0315 15.2856 12.5549 15.2617 13.0672 15.2147C14.1787 15.1141 18.9362 20.2841 19.923 19.9877C20.7545 19.7388 17.8366 14.049 18.5486 13.6817ZM18.467 10.9195C18.467 11.075 18.3389 11.2024 18.1824 11.2024H4.47531C4.31906 11.2024 4.1918 11.075 4.1918 10.9195V10.1557C4.1918 9.99973 4.31906 9.8726 4.47531 9.8726H18.1824C18.3389 9.8726 18.467 9.99973 18.467 10.1557V10.9195V10.9195ZM18.467 7.9738C18.467 8.12978 18.3389 8.25691 18.1824 8.25691H4.47531C4.31906 8.25691 4.1918 8.12978 4.1918 7.9738V7.20999C4.1918 7.05401 4.31906 6.92713 4.47531 6.92713H18.1824C18.3389 6.92713 18.467 7.05401 18.467 7.20999V7.9738V7.9738ZM18.467 5.02859C18.467 5.18405 18.3389 5.31195 18.1824 5.31195H4.47531C4.31906 5.31195 4.1918 5.18405 4.1918 5.02859V4.26503C4.1918 4.10931 4.31906 3.98192 4.47531 3.98192H18.1824C18.3389 3.98192 18.467 4.10956 18.467 4.26503V5.02859V5.02859Z" fill="#7E7A7A"/>
</svg>
