<svg width="48" height="43" viewBox="0 0 48 43" fill="none" xmlns="http://www.w3.org/2000/svg">
<path d="M22.4079 0.000911165C29.2931 0.0276525 34.3458 1.08393 39.0057 3.74469C42.5923 5.7904 45.5637 8.51801 47.0559 12.5292C49.0717 17.9443 47.7496 22.7176 43.9929 26.8625C43.0504 27.9055 41.9116 28.7478 40.8252 29.6436C40.4456 29.9512 40.3016 30.1517 40.4849 30.6732C41.1655 32.5986 41.8724 34.5106 42.396 36.476C42.6708 37.5189 42.8017 38.7089 42.6054 39.7518C42.1472 42.2655 39.9089 43.4956 37.5004 42.787C36.0474 42.3591 34.8432 41.4499 33.6913 40.5006C31.5446 38.749 29.424 36.9708 27.3297 35.1657C26.6883 34.6175 26.0076 34.4704 25.1699 34.4972C19.0832 34.6977 13.2975 33.5211 8.03544 30.2186C4.95935 28.2932 2.43304 25.7929 1.05862 22.3165C-0.99647 17.1822 0.0114388 12.4757 3.46712 8.29071C6.12434 5.05502 9.6062 3.06279 13.4546 1.72572C16.871 0.535737 20.3921 -0.0258301 22.4079 0.000911165ZM23.2064 3.58424C21.6357 3.5575 19.2795 3.81155 16.9626 4.39985C12.9441 5.41602 9.27896 7.12747 6.38613 10.2829C3.07443 13.893 2.59011 18.7599 5.23424 22.7711C7.1846 25.7394 10.012 27.5979 13.1928 28.9216C17.3815 30.6732 21.7666 31.208 26.2694 30.9005C26.937 30.8604 27.5391 30.9673 28.0627 31.3685C29.6204 32.5852 31.1519 33.8287 32.7096 35.0588C34.3981 36.3958 36.0736 37.7462 37.7884 39.0298C38.1156 39.2705 38.6392 39.2304 39.0712 39.324C39.0973 38.8828 39.2675 38.388 39.1497 37.9869C38.5999 36.115 37.9716 34.2699 37.3826 32.4114C37.0423 31.3551 36.715 30.2988 36.427 29.2291C36.27 28.6275 36.3616 28.1729 37.0292 27.8252C38.7701 26.916 40.3016 25.7127 41.6367 24.2419C44.5296 21.0329 45.2757 16.9415 43.574 13.2646C42.2781 10.4835 40.1314 8.53138 37.5658 7.03387C33.3771 4.57367 28.8219 3.59762 23.2064 3.58424Z" fill="#A9A9A9"/>
<path d="M23.7031 21.3141C27.6038 21.3141 31.5045 21.3141 35.4184 21.3141C36.243 21.3141 36.3085 21.3943 36.3215 22.2233C36.3346 23.6272 36.3346 23.6272 34.9733 23.6272C27.342 23.6272 19.7107 23.6272 12.0794 23.6272C11.1238 23.6272 11.0846 23.5871 11.0846 22.6111C11.0846 22.5175 11.0846 22.4373 11.0846 22.3437C11.0846 21.3409 11.1238 21.3141 12.0663 21.3141C15.9409 21.3141 19.8285 21.3141 23.7031 21.3141Z" fill="#A9A9A9"/>
<path d="M23.7554 10.7914C27.63 10.7914 31.5176 10.7914 35.3922 10.7914C36.2692 10.7914 36.3216 10.8583 36.3216 11.7408C36.3216 11.9413 36.3085 12.1419 36.3216 12.3424C36.3608 12.904 36.0859 13.1179 35.5754 13.0778C35.4707 13.0778 35.3529 13.0778 35.2482 13.0778C27.5514 13.0778 19.8547 13.0778 12.171 13.0778C11.1107 13.0778 11.0977 13.0644 11.0977 12.0082C11.0977 11.8745 11.1107 11.7408 11.0977 11.607C11.0322 11.0187 11.2678 10.7647 11.883 10.7781C13.7156 10.8048 15.5482 10.7781 17.3676 10.7781C19.5013 10.7781 21.6349 10.7781 23.7685 10.7781C23.7554 10.7781 23.7554 10.7914 23.7554 10.7914Z" fill="#A9A9A9"/>
<path d="M23.7162 16.0728C27.6169 16.0728 31.5307 16.0728 35.4315 16.0728C36.2823 16.0728 36.3216 16.1129 36.3216 16.982C36.3216 18.3191 36.3216 18.3191 34.9995 18.3191C27.342 18.3191 19.6845 18.3191 12.027 18.3191C11.0977 18.3191 11.0846 18.3057 11.0846 17.343C11.0846 16.0728 11.0846 16.0728 12.3281 16.0728C16.1241 16.0728 19.9201 16.0728 23.7162 16.0728Z" fill="#A9A9A9"/>
</svg>
