<svg width="25" height="22" viewBox="0 0 25 22" fill="none" xmlns="http://www.w3.org/2000/svg">
<path d="M23.925 8.8782C23.925 11.414 22.215 13.5319 19.8118 14.8927C19.824 14.943 19.8385 14.9993 19.8558 15.0619C19.9859 15.5325 20.208 16.1443 20.4491 16.8084L20.4735 16.8756C20.7137 17.5373 20.9729 18.2547 21.1192 18.8238C21.1899 19.0987 21.2548 19.4138 21.2529 19.7005C21.252 19.8418 21.2355 20.0539 21.1386 20.2701C21.0278 20.5174 20.8067 20.7713 20.4531 20.8759L23.925 8.8782ZM23.925 8.8782C23.925 6.56576 22.4947 4.59244 20.4315 3.24089M23.925 8.8782L20.4315 3.24089M20.4315 3.24089C18.3603 1.88407 15.5536 1.075 12.5004 1.075M20.4315 3.24089L12.5004 1.075M12.5004 1.075C9.44679 1.075 6.63987 1.88406 4.56858 3.24087M12.5004 1.075L4.56858 3.24087M4.56858 3.24087C2.50533 4.59243 1.075 6.56575 1.075 8.8782M4.56858 3.24087L1.075 8.8782M1.075 8.8782C1.075 11.1908 2.5052 13.1643 4.56846 14.516M1.075 8.8782L4.56846 14.516M4.56846 14.516C6.63973 15.873 9.44667 16.6821 12.5004 16.6821M4.56846 14.516L12.5004 16.6821M12.5004 16.6821C12.9763 16.6821 13.4465 16.6624 13.9084 16.6237M12.5004 16.6821L13.9084 16.6237M13.9084 16.6237C13.9333 16.6346 13.968 16.6513 14.0133 16.6759C14.1742 16.7631 14.39 16.9064 14.6586 17.1061C15.1761 17.4908 15.7918 18.0106 16.4384 18.5563L16.5069 18.6141C17.1622 19.1672 17.8497 19.7455 18.4333 20.1673C18.7232 20.3767 19.0203 20.5719 19.2972 20.7077C19.4358 20.7757 19.5968 20.8426 19.7688 20.8836C19.9317 20.9223 20.1806 20.9564 20.4523 20.8761L13.9084 16.6237ZM19.355 15.138L19.3552 15.1379L19.355 15.138ZM19.7575 14.5812C19.7575 14.5813 19.7576 14.5832 19.7575 14.5868C19.7574 14.583 19.7574 14.5812 19.7575 14.5812ZM13.8615 16.6057C13.8614 16.6056 13.8632 16.6061 13.8669 16.6073C13.8634 16.6064 13.8615 16.6058 13.8615 16.6057Z" stroke="#A9A9A9" stroke-width="1.85"/>
</svg>
