<svg width="25" height="24" viewBox="0 0 25 24" fill="none" xmlns="http://www.w3.org/2000/svg">
<path d="M6.62 1H18.38C21.5609 1 24 3.79605 24 7.04577V20.1648C24 20.9242 23.5807 21.674 22.8436 22.0077C22.5927 22.1221 22.3307 22.1739 22.076 22.1739C21.546 22.1739 21.0448 21.9463 20.6852 21.5536L21.4227 20.8783L20.6852 21.5536L18.4812 19.1465H6.62C3.43909 19.1465 1 16.3504 1 13.1007V7.04577C1 3.79605 3.43909 1 6.62 1Z" stroke="white" stroke-width="2"/>
<path d="M16.7685 11.8272C16.0755 11.8272 15.5131 11.2621 15.5131 10.5658C15.5131 9.86945 16.0755 9.30432 16.7685 9.30432C17.4615 9.30432 18.0239 9.86945 18.0239 10.5658C18.0239 11.2621 17.4615 11.8272 16.7685 11.8272Z" fill="white"/>
<path d="M12.7511 11.8272C12.0581 11.8272 11.4957 11.2621 11.4957 10.5658C11.4957 9.86945 12.0581 9.30432 12.7511 9.30432C13.4441 9.30432 14.0065 9.86945 14.0065 10.5658C14.0065 11.2621 13.4441 11.8272 12.7511 11.8272Z" fill="white"/>
<path d="M8.73371 11.8272C8.04071 11.8272 7.47827 11.2621 7.47827 10.5658C7.47827 9.86945 8.04071 9.30432 8.73371 9.30432C9.42671 9.30432 9.98914 9.86945 9.98914 10.5658C9.98914 11.2621 9.42671 11.8272 8.73371 11.8272Z" fill="white"/>
</svg>
