<svg width="18" height="15" viewBox="0 0 18 15" fill="none" xmlns="http://www.w3.org/2000/svg">
<path d="M13.6154 0H4.38462C1.96708 0 0 2.06226 0 4.59677V10.4032C0 12.9377 1.96708 15 4.38462 15H13.6154C16.0329 15 18 12.9377 18 10.4032V4.59677C18 2.06226 16.0329 0 13.6154 0ZM4.38462 1.45161H13.6154C15.2695 1.45161 16.6154 2.86258 16.6154 4.59677V4.83871H1.38462V4.59677C1.38462 2.86258 2.73046 1.45161 4.38462 1.45161ZM13.6154 13.5484H4.38462C2.73046 13.5484 1.38462 12.1374 1.38462 10.4032V6.29032H16.6154V10.4032C16.6154 12.1374 15.2695 13.5484 13.6154 13.5484ZM7.84615 10.4032C7.84615 10.8039 7.536 11.129 7.15385 11.129H4.38462C4.00246 11.129 3.69231 10.8039 3.69231 10.4032C3.69231 10.0026 4.00246 9.67742 4.38462 9.67742H7.15385C7.536 9.67742 7.84615 10.0026 7.84615 10.4032Z" fill="white"/>
</svg>
