<svg width="32" height="32" viewBox="0 0 32 32" fill="none" xmlns="http://www.w3.org/2000/svg">
<rect width="32" height="32" rx="10" fill="#434547" fill-opacity="0.51"/>
<path d="M16 12.0002V14.5002L19.3333 11.1668L16 7.8335V10.3335C12.3167 10.3335 9.33334 13.3168 9.33334 17.0002C9.33334 18.3085 9.71668 19.5252 10.3667 20.5502L11.5833 19.3335C11.2083 18.6418 11 17.8418 11 17.0002C11 14.2418 13.2417 12.0002 16 12.0002ZM21.6333 13.4502L20.4167 14.6668C20.7833 15.3668 21 16.1585 21 17.0002C21 19.7585 18.7583 22.0002 16 22.0002V19.5002L12.6667 22.8335L16 26.1668V23.6668C19.6833 23.6668 22.6667 20.6835 22.6667 17.0002C22.6667 15.6918 22.2833 14.4752 21.6333 13.4502Z" fill="white"/>
</svg>
