<svg width="17" height="16" viewBox="0 0 17 16" fill="none" xmlns="http://www.w3.org/2000/svg">
<path d="M10.3184 11.5236C9.25025 12.2631 7.94383 12.6986 6.53212 12.6986C2.92485 12.6986 0 9.85558 0 6.34928C0 2.84298 2.92485 0 6.53212 0C10.1394 0 13.0642 2.84298 13.0642 6.34928C13.0642 7.72147 12.6162 8.99133 11.8554 10.0296L16.1474 14.2015C16.5701 14.6123 16.567 15.2704 16.1474 15.6775L16.1297 15.6947C15.7117 16.101 15.03 16.1025 14.6112 15.6947L10.3192 11.5228L10.3184 11.5236ZM6.53212 11.2046C9.29098 11.2046 11.5273 9.03092 11.5273 6.34928C11.5273 3.66764 9.29098 1.49395 6.53212 1.49395C3.77326 1.49395 1.53697 3.66764 1.53697 6.34928C1.53697 9.03092 3.77326 11.2046 6.53212 11.2046Z" fill="white"/>
</svg>
