<svg width="32" height="32" viewBox="0 0 32 32" fill="none" xmlns="http://www.w3.org/2000/svg">
<rect width="32" height="32" rx="10" fill="#434547" fill-opacity="0.51"/>
<path d="M18.3184 20.5236C17.2503 21.2631 15.9438 21.6986 14.5321 21.6986C10.9249 21.6986 8 18.8556 8 15.3493C8 11.843 10.9249 9 14.5321 9C18.1394 9 21.0642 11.843 21.0642 15.3493C21.0642 16.7215 20.6162 17.9913 19.8554 19.0296L24.1474 23.2015C24.5701 23.6123 24.567 24.2704 24.1474 24.6775L24.1297 24.6947C23.7117 25.101 23.03 25.1025 22.6112 24.6947L18.3192 20.5228L18.3184 20.5236ZM14.5321 20.2046C17.291 20.2046 19.5273 18.0309 19.5273 15.3493C19.5273 12.6676 17.291 10.4939 14.5321 10.4939C11.7733 10.4939 9.53697 12.6676 9.53697 15.3493C9.53697 18.0309 11.7733 20.2046 14.5321 20.2046Z" fill="white"/>
</svg>
