<svg width="25" height="25" viewBox="0 0 25 25" fill="none" xmlns="http://www.w3.org/2000/svg">
<path d="M11.9103 24H13.0897C13.4414 23.9997 13.7895 23.9298 14.114 23.7942C14.4384 23.6587 14.7329 23.4603 14.9803 23.2104C15.2276 22.9605 15.4231 22.664 15.5553 22.3382C15.6875 22.0124 15.7539 21.6636 15.7507 21.312C15.7543 21.2314 15.7811 21.1537 15.828 21.0882C15.8749 21.0227 15.9398 20.9721 16.0149 20.9428C16.0924 20.9118 16.1776 20.9054 16.2589 20.9246C16.3402 20.9438 16.4135 20.9877 16.469 21.0501C16.974 21.5338 17.6462 21.8039 18.3455 21.8039C19.0448 21.8039 19.7171 21.5338 20.2221 21.0501L21.0477 20.2174C21.2961 19.9692 21.4927 19.6743 21.6262 19.3497C21.7598 19.025 21.8276 18.6771 21.8257 18.326C21.8239 17.975 21.7524 17.6278 21.6154 17.3046C21.4784 16.9813 21.2786 16.6885 21.0277 16.443C20.9741 16.3823 20.9387 16.3078 20.9255 16.2278C20.9124 16.1479 20.922 16.0659 20.9534 15.9913C20.9854 15.9146 21.0403 15.8496 21.1106 15.8053C21.1809 15.7609 21.2631 15.7394 21.3462 15.7436C22.0498 15.743 22.7245 15.4632 23.222 14.9656C23.7196 14.468 23.9994 13.7934 24 13.0897V11.9103C23.9997 11.5582 23.9296 11.2097 23.7938 10.8849C23.658 10.5601 23.4591 10.2655 23.2087 10.0181C22.9583 9.77061 22.6613 9.57526 22.3349 9.44332C22.0086 9.31137 21.6593 9.24544 21.3072 9.24933C21.229 9.24892 21.1528 9.2251 21.0882 9.18096C21.0237 9.13681 20.9739 9.07436 20.9451 9.00164L20.9381 8.98513C20.9069 8.90762 20.9004 8.82235 20.9197 8.74104C20.9389 8.65973 20.9828 8.58637 21.0454 8.53103C21.2918 8.28459 21.4873 7.99203 21.6207 7.67005C21.754 7.34807 21.8227 7.00297 21.8227 6.65446C21.8227 6.30595 21.754 5.96085 21.6207 5.63887C21.4873 5.31689 21.2918 5.02433 21.0454 4.7779L20.2127 3.95226C19.9668 3.70504 19.6744 3.50904 19.3523 3.37562C19.0301 3.2422 18.6848 3.174 18.3361 3.17497C17.9833 3.17482 17.6341 3.24529 17.3089 3.38222C16.9838 3.51916 16.6894 3.7198 16.443 3.97231C16.3826 4.0263 16.308 4.06197 16.228 4.07512C16.148 4.08828 16.0659 4.0784 15.9913 4.04662C15.9146 4.01464 15.8496 3.95975 15.8053 3.88944C15.7609 3.81914 15.7394 3.73686 15.7436 3.65385C15.743 2.95019 15.4632 2.27554 14.9656 1.77798C14.468 1.28043 13.7934 1.00062 13.0897 1H11.9103C11.5589 1.00107 11.2112 1.07165 10.8873 1.20767C10.5633 1.3437 10.2695 1.54247 10.0227 1.79255C9.77593 2.04263 9.58106 2.33907 9.44934 2.66479C9.31762 2.99051 9.25165 3.33908 9.25523 3.69041C9.25454 3.769 9.23037 3.84558 9.18581 3.91032C9.14125 3.97506 9.07834 4.02499 9.00518 4.05369C8.92538 4.08569 8.83784 4.09313 8.75378 4.07506C8.66973 4.05698 8.59299 4.01422 8.53339 3.95226C8.02839 3.46853 7.35611 3.19849 6.65682 3.19849C5.95753 3.19849 5.28525 3.46853 4.78026 3.95226L3.944 4.78851C3.69598 5.03696 3.49972 5.33215 3.36658 5.65697C3.23344 5.9818 3.16607 6.32982 3.16838 6.68086C3.17068 7.03191 3.24261 7.37901 3.38 7.70206C3.51739 8.02512 3.71751 8.3177 3.96877 8.56287C4.02311 8.61745 4.06016 8.68685 4.07526 8.76237C4.09037 8.8379 4.08286 8.9162 4.05369 8.98749V8.99692C4.02066 9.07522 3.9649 9.14181 3.89362 9.18807C3.82233 9.23433 3.73881 9.25813 3.65385 9.25641C2.95019 9.25704 2.27554 9.53684 1.77798 10.0344C1.28043 10.532 1.00062 11.2066 1 11.9103V13.0897C1.00076 13.4412 1.07107 13.789 1.20688 14.1132C1.34269 14.4373 1.54132 14.7314 1.7913 14.9784C2.04129 15.2254 2.33769 15.4205 2.66343 15.5525C2.98917 15.6844 3.3378 15.7506 3.68923 15.7471C3.76818 15.7482 3.84501 15.7728 3.90992 15.8178C3.97483 15.8628 4.02488 15.926 4.05369 15.9995C4.08523 16.0773 4.09343 16.1625 4.0773 16.2448C4.06118 16.3272 4.02141 16.403 3.96287 16.4631C3.71569 16.7097 3.51959 17.0027 3.38578 17.3252C3.25198 17.6477 3.1831 17.9934 3.1831 18.3426C3.1831 18.6918 3.25198 19.0375 3.38578 19.36C3.51959 19.6825 3.71569 19.9755 3.96287 20.2221L4.78851 21.0548C5.29646 21.544 5.97553 21.8153 6.68073 21.8106C7.38593 21.806 8.06138 21.5259 8.56287 21.0301C8.61728 20.9754 8.68668 20.9382 8.76228 20.9231C8.83787 20.908 8.91626 20.9156 8.98749 20.9451H8.99692C9.07512 20.9786 9.14157 21.0347 9.18779 21.1061C9.234 21.1775 9.25789 21.2611 9.25641 21.3462C9.25703 22.0498 9.53684 22.7245 10.0344 23.222C10.532 23.7196 11.2066 23.9994 11.9103 24Z" stroke="white" stroke-width="2"/>
</svg>
