<svg width="23" height="23" viewBox="0 0 23 23" fill="none" xmlns="http://www.w3.org/2000/svg">
<path fill-rule="evenodd" clip-rule="evenodd" d="M12.0897 23H10.9103C10.2066 22.9994 9.53195 22.7196 9.03439 22.222C8.53684 21.7245 8.25703 21.0498 8.25641 20.3462C8.25789 20.2611 8.234 20.1775 8.18779 20.1061C8.14157 20.0347 8.07512 19.9786 7.99692 19.9451H7.98749C7.91626 19.9156 7.83787 19.908 7.76228 19.9231C7.68668 19.9382 7.61728 19.9754 7.56287 20.0301C7.06138 20.5259 6.38593 20.806 5.68073 20.8106C4.97553 20.8153 4.29646 20.544 3.78851 20.0548L2.96287 19.2221C2.71569 18.9755 2.51959 18.6825 2.38578 18.36C2.25198 18.0375 2.1831 17.6918 2.1831 17.3426C2.1831 16.9934 2.25198 16.6477 2.38578 16.3252C2.51959 16.0027 2.71569 15.7097 2.96287 15.4631C3.02141 15.403 3.06118 15.3272 3.0773 15.2448C3.09343 15.1625 3.08523 15.0773 3.05369 14.9995C3.02488 14.926 2.97483 14.8628 2.90992 14.8178C2.84501 14.7728 2.76818 14.7482 2.68923 14.7471C2.3378 14.7506 1.98917 14.6844 1.66343 14.5525C1.33769 14.4205 1.04129 14.2254 0.791302 13.9784C0.541316 13.7314 0.342694 13.4373 0.206884 13.1132C0.0710743 12.789 0.000761534 12.4412 0 12.0897V10.9103C0.000624636 10.2066 0.280425 9.53195 0.777983 9.03439C1.27554 8.53684 1.95019 8.25704 2.65385 8.25641C2.73881 8.25813 2.82233 8.23433 2.89362 8.18807C2.9649 8.14181 3.02066 8.07522 3.05369 7.99692V7.98749C3.08286 7.9162 3.09037 7.8379 3.07526 7.76237C3.06016 7.68685 3.02311 7.61745 2.96877 7.56287C2.71751 7.3177 2.51739 7.02512 2.38 6.70206C2.24261 6.37901 2.17068 6.03191 2.16838 5.68086C2.16607 5.32982 2.23344 4.9818 2.36658 4.65697C2.49972 4.33215 2.69598 4.03696 2.944 3.78851L3.78026 2.95226C4.28525 2.46853 4.95753 2.19849 5.65682 2.19849C6.35611 2.19849 7.02839 2.46853 7.53339 2.95226C7.59299 3.01422 7.66973 3.05698 7.75378 3.07506C7.83784 3.09313 7.92538 3.08569 8.00518 3.05369C8.07834 3.02499 8.14125 2.97506 8.18581 2.91032C8.23037 2.84558 8.25454 2.769 8.25523 2.69041C8.25165 2.33908 8.31762 1.99051 8.44934 1.66479C8.58106 1.33907 8.77593 1.04263 9.02272 0.792552C9.26952 0.542472 9.56335 0.343696 9.8873 0.207673C10.2112 0.0716506 10.5589 0.00107097 10.9103 0H12.0897C12.7934 0.000624636 13.468 0.280426 13.9656 0.777983C14.4632 1.27554 14.743 1.95019 14.7436 2.65385C14.7394 2.73686 14.7609 2.81914 14.8053 2.88944C14.8496 2.95975 14.9146 3.01464 14.9913 3.04662C15.0659 3.0784 15.148 3.08828 15.228 3.07512C15.308 3.06197 15.3826 3.0263 15.443 2.97231C15.6894 2.7198 15.9838 2.51916 16.3089 2.38222C16.6341 2.24529 16.9833 2.17482 17.3361 2.17497C17.6848 2.174 18.0301 2.2422 18.3523 2.37562C18.6744 2.50904 18.9668 2.70504 19.2127 2.95226L20.0454 3.7779C20.2918 4.02433 20.4873 4.31689 20.6207 4.63887C20.754 4.96085 20.8227 5.30595 20.8227 5.65446C20.8227 6.00297 20.754 6.34807 20.6207 6.67005C20.4873 6.99203 20.2918 7.28459 20.0454 7.53103C19.9828 7.58637 19.9389 7.65973 19.9197 7.74104C19.9004 7.82235 19.9069 7.90762 19.9381 7.98513L19.9451 8.00164C19.9739 8.07436 20.0237 8.13681 20.0882 8.18096C20.1528 8.2251 20.229 8.24892 20.3072 8.24933C20.6593 8.24544 21.0086 8.31137 21.3349 8.44332C21.6613 8.57526 21.9583 8.77061 22.2087 9.01806C22.4591 9.26551 22.658 9.56014 22.7938 9.88493C22.9296 10.2097 22.9997 10.5582 23 10.9103V12.0897C22.9994 12.7934 22.7196 13.468 22.222 13.9656C21.7245 14.4632 21.0498 14.743 20.3462 14.7436C20.2631 14.7394 20.1809 14.7609 20.1106 14.8053C20.0403 14.8496 19.9854 14.9146 19.9534 14.9913C19.922 15.0659 19.9124 15.1479 19.9255 15.2278C19.9387 15.3078 19.9741 15.3823 20.0277 15.443C20.2786 15.6885 20.4784 15.9813 20.6154 16.3046C20.7524 16.6278 20.8239 16.975 20.8257 17.326C20.8276 17.6771 20.7598 18.025 20.6262 18.3497C20.4927 18.6743 20.2961 18.9692 20.0477 19.2174L19.2221 20.0501C18.7171 20.5338 18.0448 20.8039 17.3455 20.8039C16.6462 20.8039 15.974 20.5338 15.469 20.0501C15.4135 19.9877 15.3402 19.9438 15.2589 19.9246C15.1776 19.9054 15.0924 19.9118 15.0149 19.9428C14.9398 19.9721 14.8749 20.0227 14.828 20.0882C14.7811 20.1537 14.7543 20.2314 14.7507 20.312C14.7539 20.6636 14.6875 21.0124 14.5553 21.3382C14.4231 21.664 14.2276 21.9605 13.9803 22.2104C13.7329 22.4603 13.4384 22.6587 13.114 22.7942C12.7895 22.9298 12.4414 22.9997 12.0897 23ZM11.4231 15.8462C10.5483 15.8462 9.69312 15.5867 8.96575 15.1007C8.23838 14.6147 7.67146 13.9239 7.33669 13.1157C7.00192 12.3075 6.91433 11.4182 7.08499 10.5602C7.25566 9.70219 7.67691 8.91407 8.29549 8.29549C8.91407 7.67691 9.70219 7.25566 10.5602 7.08499C11.4182 6.91432 12.3075 7.00192 13.1157 7.33669C13.9239 7.67146 14.6147 8.23838 15.1007 8.96575C15.5867 9.69312 15.8462 10.5483 15.8462 11.4231C15.8449 12.5958 15.3785 13.7201 14.5493 14.5493C13.7201 15.3785 12.5958 15.8449 11.4231 15.8462Z" fill="#7E7A7A"/>
</svg>
