<svg width="23" height="23" viewBox="0 0 23 23" fill="none" xmlns="http://www.w3.org/2000/svg">
<path d="M11.5182 15.7368C10.6802 15.7404 9.86 15.4954 9.16128 15.0329C8.46255 14.5703 7.91668 13.9109 7.59269 13.1381C7.26871 12.3654 7.18116 11.5138 7.34111 10.6913C7.50107 9.86873 7.90135 9.11208 8.49133 8.51701C9.08132 7.92195 9.83451 7.5152 10.6557 7.3482C11.4768 7.1812 12.329 7.26145 13.1046 7.5788C13.8801 7.89615 14.5442 8.43634 15.0127 9.13108C15.4812 9.82582 15.7332 10.6439 15.7368 11.4818C15.7392 12.0382 15.632 12.5896 15.4213 13.1046C15.2106 13.6195 14.9005 14.088 14.5087 14.4831C14.117 14.8782 13.6513 15.1923 13.1381 15.4074C12.625 15.6225 12.0745 15.7345 11.5182 15.7368ZM11.4879 8.47369C10.8894 8.47609 10.305 8.65592 9.80863 8.99045C9.31229 9.32497 8.9263 9.79917 8.69946 10.3531C8.47263 10.907 8.41513 11.5157 8.53425 12.1023C8.65337 12.6888 8.94375 13.2269 9.36868 13.6484C9.7936 14.07 10.334 14.356 10.9215 14.4705C11.509 14.5849 12.1172 14.5225 12.6693 14.2913C13.2214 14.06 13.6925 13.6702 14.023 13.1712C14.3535 12.6722 14.5287 12.0864 14.5263 11.4879C14.5247 11.0905 14.4449 10.6973 14.2913 10.3307C14.1378 9.96413 13.9135 9.6314 13.6314 9.35151C13.3492 9.07161 13.0147 8.85003 12.6469 8.69942C12.2792 8.5488 11.8853 8.4721 11.4879 8.47369ZM12.1537 23H10.9432C10.3013 23.0029 9.68449 22.7507 9.22845 22.299C8.7724 21.8473 8.51442 21.2329 8.51122 20.591C8.51238 20.4437 8.46943 20.2993 8.38789 20.1766C8.30634 20.0538 8.18993 19.9583 8.05364 19.9022H8.04517C7.91681 19.8496 7.7757 19.8362 7.63972 19.8638C7.50374 19.8913 7.37901 19.9587 7.28133 20.0572C7.05803 20.2874 6.79139 20.4712 6.49676 20.5979C6.20213 20.7246 5.88534 20.7917 5.56465 20.7954C5.24395 20.7991 4.92569 20.7393 4.62821 20.6195C4.33072 20.4997 4.0599 20.3221 3.83133 20.0971L2.97428 19.2498C2.748 19.0255 2.56821 18.7588 2.44522 18.4649C2.32223 18.171 2.25845 17.8557 2.25755 17.5371C2.25666 17.2185 2.31865 16.9028 2.43998 16.6082C2.56131 16.3137 2.73959 16.0459 2.9646 15.8204C3.06624 15.7155 3.13514 15.5833 3.16288 15.4399C3.19061 15.2965 3.17597 15.1481 3.12075 15.0129C3.0676 14.8829 2.97692 14.7717 2.86028 14.6934C2.74364 14.6152 2.60633 14.5734 2.46586 14.5735C2.14458 14.5783 1.82554 14.5194 1.52721 14.4C1.22888 14.2807 0.95718 14.1034 0.727847 13.8783C0.498514 13.6532 0.316102 13.3849 0.19117 13.0889C0.0662384 12.7929 0.00126953 12.475 2.46836e-05 12.1537V10.9432C-0.00287186 10.3013 0.249263 9.68449 0.700994 9.22845C1.15273 8.7724 1.76707 8.51442 2.40897 8.51122C2.55633 8.51238 2.70067 8.46943 2.82342 8.38789C2.94617 8.30634 3.04171 8.18993 3.09775 8.05364V8.04517C3.14995 7.91672 3.16309 7.77574 3.13553 7.63987C3.10796 7.50399 3.04093 7.37927 2.94281 7.28133C2.7129 7.05779 2.52946 6.79099 2.40307 6.49628C2.27667 6.20158 2.2098 5.88478 2.20631 5.56414C2.20283 5.24349 2.26279 4.92531 2.38274 4.62793C2.5027 4.33054 2.68029 4.05982 2.90528 3.83133L3.75265 2.97065C3.97652 2.74477 4.2427 2.56522 4.53598 2.44224C4.82927 2.31926 5.1439 2.25527 5.46192 2.25392C5.77994 2.25257 6.09511 2.31389 6.38943 2.43438C6.68375 2.55487 6.95144 2.73216 7.17722 2.95612C7.28018 3.06153 7.41236 3.13367 7.55671 3.16323C7.70106 3.19279 7.85096 3.17842 7.98706 3.12197C8.11782 3.0696 8.22984 2.97918 8.30862 2.86242C8.3874 2.74565 8.4293 2.60793 8.4289 2.46707C8.4241 2.14594 8.48298 1.82704 8.60215 1.52879C8.72132 1.23055 8.89842 0.958884 9.1232 0.729487C9.34798 0.50009 9.61599 0.317513 9.91175 0.192307C10.2075 0.0671012 10.5252 0.00174816 10.8463 2.46836e-05H12.0568C12.6987 -0.00287186 13.3155 0.249263 13.7716 0.700994C14.2276 1.15273 14.4856 1.76707 14.4888 2.40897C14.485 2.55469 14.5257 2.69812 14.6055 2.82011C14.6853 2.94209 14.8004 3.03684 14.9355 3.0917C15.0676 3.14561 15.2124 3.16046 15.3528 3.13449C15.4931 3.10853 15.623 3.04284 15.7271 2.94523C15.9508 2.71334 16.2187 2.52862 16.515 2.402C16.8113 2.27538 17.1299 2.20942 17.4521 2.20802C17.7703 2.20593 18.0856 2.2669 18.3801 2.38741C18.6745 2.50792 18.9421 2.68558 19.1675 2.91012L20.0245 3.75749C20.2504 3.98136 20.4299 4.24754 20.5529 4.54083C20.6759 4.83411 20.7399 5.14875 20.7412 5.46677C20.7426 5.78479 20.6813 6.09996 20.5608 6.39427C20.4403 6.68859 20.263 6.95628 20.039 7.18206C19.9341 7.28218 19.8615 7.41144 19.8306 7.55319C19.7998 7.69494 19.8121 7.84268 19.8659 7.97738L19.8744 7.99432C19.9268 8.12463 20.0171 8.23619 20.1337 8.31454C20.2502 8.39289 20.3876 8.43442 20.5281 8.43374C20.8492 8.4283 21.1682 8.48655 21.4667 8.60512C21.7652 8.7237 22.0373 8.90026 22.2671 9.12459C22.4969 9.34893 22.6801 9.61659 22.8059 9.91211C22.9316 10.2076 22.9976 10.5251 23 10.8463V12.0568C23.0014 12.3749 22.9402 12.6901 22.8197 12.9844C22.6993 13.2788 22.5221 13.5466 22.2982 13.7724C22.0742 13.9982 21.808 14.1778 21.5147 14.3007C21.2213 14.4236 20.9067 14.4875 20.5886 14.4888C20.4429 14.485 20.2995 14.5257 20.1775 14.6055C20.0555 14.6853 19.9607 14.8004 19.9059 14.9355C19.8523 15.0677 19.8376 15.2124 19.8635 15.3527C19.8895 15.493 19.955 15.6229 20.0524 15.7271C20.2825 15.95 20.4661 16.2163 20.5926 16.5106C20.7191 16.8049 20.7859 17.1215 20.7892 17.4418C20.7924 17.7621 20.7321 18.0799 20.6116 18.3768C20.4912 18.6736 20.313 18.9436 20.0875 19.1711L19.2401 20.0281C19.0162 20.254 18.75 20.4336 18.4568 20.5565C18.1635 20.6795 17.8488 20.7435 17.5308 20.7449C17.2128 20.7462 16.8976 20.6849 16.6033 20.5644C16.309 20.4439 16.0413 20.2666 15.8155 20.0427C15.7154 19.9377 15.5861 19.8651 15.4444 19.8342C15.3026 19.8034 15.1549 19.8157 15.0202 19.8696C14.8874 19.9227 14.7732 20.0139 14.692 20.1317C14.6108 20.2495 14.5662 20.3887 14.5638 20.5317C14.5688 20.8523 14.5103 21.1708 14.3916 21.4687C14.273 21.7666 14.0966 22.0381 13.8725 22.2675C13.6485 22.497 13.3813 22.6798 13.0863 22.8055C12.7913 22.9312 12.4743 22.9973 12.1537 23ZM8.57174 18.8104C8.90869 18.962 9.19564 19.2063 9.39923 19.5146C9.60281 19.823 9.71465 20.1829 9.72174 20.5523C9.71918 20.7133 9.74853 20.8733 9.8081 21.023C9.86766 21.1726 9.95627 21.309 10.0688 21.4242C10.1813 21.5395 10.3156 21.6313 10.4638 21.6944C10.612 21.7575 10.7712 21.7906 10.9323 21.7919H12.1428C12.4638 21.7919 12.7717 21.6643 12.9988 21.4373C13.2258 21.2103 13.3533 20.9024 13.3533 20.5814C13.3518 20.1938 13.4652 19.8145 13.6791 19.4913C13.8931 19.1681 14.198 18.9156 14.5554 18.7656C14.9043 18.6191 15.2889 18.5795 15.6604 18.6517C16.0319 18.7238 16.3736 18.9046 16.6423 19.1711C16.7547 19.2874 16.8891 19.3801 17.0376 19.4441C17.1862 19.508 17.346 19.5418 17.5077 19.5435C17.6694 19.5452 17.8298 19.5147 17.9797 19.4539C18.1295 19.3931 18.2658 19.3031 18.3806 19.1892L19.228 18.3322C19.3403 18.2191 19.4291 18.0849 19.4894 17.9374C19.5497 17.7899 19.5803 17.6319 19.5794 17.4725C19.5785 17.3132 19.5461 17.1555 19.4842 17.0087C19.4222 16.8619 19.3318 16.7287 19.2183 16.6169C18.9477 16.3469 18.7618 16.0037 18.6835 15.6295C18.6052 15.2553 18.638 14.8664 18.7777 14.5106V14.4973L18.7837 14.4815C18.9258 14.13 19.1696 13.8289 19.4838 13.6167C19.798 13.4045 20.1683 13.2909 20.5475 13.2904C20.7083 13.2926 20.868 13.263 21.0174 13.2033C21.1667 13.1436 21.3028 13.0549 21.4178 12.9424C21.5328 12.8299 21.6244 12.6958 21.6873 12.5478C21.7503 12.3997 21.7833 12.2407 21.7846 12.0798V10.8693C21.7846 10.5483 21.6571 10.2404 21.4301 10.0133C21.203 9.78633 20.8951 9.65879 20.5741 9.65879C20.1882 9.66575 19.8091 9.55645 19.4861 9.3451C19.1632 9.13374 18.9113 8.83012 18.7631 8.47369V8.46522C18.6135 8.11467 18.5716 7.72751 18.6427 7.35305C18.7138 6.97859 18.8948 6.63378 19.1626 6.36254C19.279 6.25021 19.3719 6.11587 19.436 5.96731C19.5 5.81874 19.5338 5.65894 19.5355 5.49718C19.5372 5.33542 19.5067 5.17495 19.4458 5.02508C19.3849 4.87522 19.2948 4.73896 19.1808 4.62423L18.3237 3.77686C18.2108 3.66481 18.0768 3.57613 17.9295 3.5159C17.7823 3.45566 17.6246 3.42505 17.4655 3.42581C17.3058 3.42628 17.1479 3.45865 17.0009 3.52101C16.8539 3.58338 16.7209 3.67448 16.6096 3.78896C16.3396 4.0596 15.9964 4.24548 15.6223 4.32376C15.2481 4.40204 14.8592 4.36931 14.5033 4.22959H14.49H14.4743C14.1228 4.08748 13.8217 3.84373 13.6095 3.52954C13.3973 3.21535 13.2836 2.845 13.2831 2.46586C13.2853 2.30501 13.2558 2.14531 13.196 1.99594C13.1363 1.84657 13.0477 1.71048 12.9352 1.5955C12.8227 1.48052 12.6885 1.38892 12.5405 1.32597C12.3925 1.26302 12.2334 1.22997 12.0726 1.22871H10.8621C10.541 1.22871 10.2331 1.35624 10.0061 1.58326C9.77907 1.81028 9.65153 2.11818 9.65153 2.43923C9.65548 2.82362 9.5441 3.20036 9.33176 3.5208C9.11943 3.84125 8.8159 4.09067 8.46038 4.23686C8.10909 4.38237 7.72293 4.42209 7.34938 4.35112C6.97583 4.28015 6.63115 4.10159 6.3577 3.83739C6.24529 3.72112 6.11091 3.62833 5.96236 3.56441C5.81381 3.50049 5.65404 3.4667 5.49233 3.46501C5.33062 3.46333 5.17019 3.49377 5.02033 3.55457C4.87048 3.61538 4.7342 3.70534 4.61938 3.81923L3.77202 4.67991C3.65994 4.79281 3.57122 4.9267 3.51092 5.07391C3.45063 5.22112 3.41994 5.37878 3.42061 5.53786C3.42129 5.69694 3.45331 5.85433 3.51485 6.00103C3.5764 6.14773 3.66625 6.28085 3.77928 6.3928C4.05587 6.65945 4.24633 7.00277 4.32615 7.37858C4.40598 7.75439 4.3715 8.14548 4.22717 8.50153C4.21815 8.52439 4.20764 8.54663 4.1957 8.56811C4.04402 8.90506 3.79979 9.19201 3.49141 9.3956C3.18304 9.59918 2.8232 9.71102 2.45376 9.71811C2.29271 9.71555 2.13274 9.7449 1.98309 9.80446C1.83344 9.86403 1.69706 9.95264 1.58182 10.0652C1.46659 10.1777 1.37477 10.3119 1.31167 10.4601C1.24857 10.6083 1.21544 10.7676 1.21418 10.9286V12.1392C1.21418 12.4602 1.34172 12.7681 1.56873 12.9951C1.79575 13.2221 2.10365 13.3497 2.4247 13.3497C2.81082 13.3417 3.19036 13.4505 3.51367 13.6617C3.83699 13.8729 4.08904 14.1768 4.23686 14.5336V14.5457V14.559C4.37899 14.9103 4.41609 15.2953 4.34368 15.6672C4.27126 16.0392 4.09244 16.3821 3.82891 16.6544C3.71309 16.7664 3.62078 16.9004 3.55741 17.0485C3.49404 17.1966 3.46087 17.3559 3.45986 17.517C3.45884 17.6781 3.49 17.8378 3.5515 17.9868C3.613 18.1357 3.70361 18.2708 3.81802 18.3842L4.67507 19.2316C4.78797 19.3437 4.92185 19.4324 5.06907 19.4927C5.21628 19.553 5.37394 19.5837 5.53302 19.583C5.6921 19.5823 5.84949 19.5503 5.99619 19.4888C6.14288 19.4272 6.27601 19.3374 6.38796 19.2244C6.65461 18.9478 6.99793 18.7573 7.37374 18.6775C7.74954 18.5977 8.14064 18.6321 8.49669 18.7765C8.5225 18.7859 8.54759 18.7972 8.57174 18.8104Z" fill="#A9A9A9"/>
</svg>
