<svg width="21" height="22" viewBox="0 0 21 22" fill="none" xmlns="http://www.w3.org/2000/svg">
<path d="M10.968 1.95871C8.97988 -0.117461 6.00267 -0.54096 3.60904 0.677889L7.19949 4.4274C7.58524 4.83024 7.58524 5.48098 7.19949 5.88382L5.62681 7.52617C5.24106 7.93934 4.61792 7.93934 4.23217 7.52617L0.641715 3.77666C-0.515539 6.28666 -0.110006 9.3751 1.8781 11.4513C3.71784 13.3725 6.40821 13.8786 8.69304 12.98L16.5663 21.2021C17.5851 22.266 19.227 22.266 20.2359 21.2021C21.2547 20.1382 21.2547 18.4235 20.2359 17.3699L12.4022 9.17884C13.3122 6.7618 12.8374 3.91094 10.968 1.95871Z" fill="#A9A9A9"/>
</svg>
