<svg width="32" height="32" viewBox="0 0 32 32" fill="none" xmlns="http://www.w3.org/2000/svg">
<rect width="32" height="32" rx="10" fill="#434547" fill-opacity="0.51"/>
<path d="M18.6236 20.505L18.7818 19.9174L18.2394 19.6415L13.7181 17.3415L13.2142 17.0852L12.8291 17.499C12.3979 17.9623 11.7892 18.25 11.0968 18.25C9.77482 18.25 8.75 17.2235 8.75 16C8.75 14.7765 9.77482 13.75 11.0968 13.75C11.7841 13.75 12.3966 14.044 12.8333 14.5055L13.2185 14.9126L13.7181 14.6585L18.2394 12.3585L18.7818 12.0826L18.6236 11.495C18.5777 11.3249 18.5565 11.1704 18.5565 11C18.5565 9.77648 19.5813 8.75 20.9032 8.75C22.2252 8.75 23.25 9.77648 23.25 11C23.25 12.2235 22.2252 13.25 20.9032 13.25C20.2159 13.25 19.6034 12.956 19.1667 12.4945L18.7815 12.0874L18.2819 12.3415L13.7606 14.6415L13.2144 14.9194L13.3778 15.5099C13.4666 15.8311 13.4666 16.1689 13.3778 16.4901L13.2144 17.0806L13.7606 17.3585L18.2819 19.6585L18.7858 19.9148L19.1709 19.501C19.6021 19.0377 20.2108 18.75 20.9032 18.75C22.2252 18.75 23.25 19.7765 23.25 21C23.25 22.2235 22.2252 23.25 20.9032 23.25C19.5813 23.25 18.5565 22.2235 18.5565 21C18.5565 20.8296 18.5777 20.6751 18.6236 20.505Z" stroke="white" stroke-width="1.5"/>
</svg>
