<svg width="19" height="21" viewBox="0 0 19 21" fill="none" xmlns="http://www.w3.org/2000/svg">
<path d="M17.988 5.03894C14.892 4.00694 11.111 2.046 10.3 1.224C10.16 1.082 9.97 1.002 9.771 1C9.594 1.004 9.38095 1.07694 9.23895 1.21594C8.26595 2.17494 5.31696 4.09294 1.54596 5.15894C1.22296 5.24994 1 5.54498 1 5.88098C1 14.112 2.27898 18.3959 9.54498 20.4719C9.61198 20.4909 9.68198 20.501 9.75098 20.501C9.81998 20.501 9.88997 20.4909 9.95697 20.4719C17.267 18.3829 18.5 14.243 18.5 5.75098C18.501 5.42798 18.294 5.14094 17.988 5.03894ZM9.75195 18.97C3.74695 17.193 2.55599 14.075 2.50299 6.44202C5.80899 5.42202 8.44401 3.83297 9.78101 2.74097C11.3 3.86597 14.527 5.40303 17 6.28503C16.95 14.032 15.763 17.19 9.75195 18.97Z" fill="white" stroke="white" stroke-width="0.28"/>
<path d="M6 9H13.5" stroke="white"/>
<path d="M6 11H13.5" stroke="white"/>
<path d="M6 13H13.5" stroke="white"/>
</svg>
