<svg width="307" height="254" viewBox="0 0 307 254" fill="none" xmlns="http://www.w3.org/2000/svg">
<path d="M269.999 126C270.05 142.636 266.817 159.118 260.486 174.506C254.155 189.893 244.85 203.884 233.103 215.678C231.808 216.979 230.483 218.251 229.131 219.492C227.501 220.993 225.829 222.449 224.116 223.859C223.789 224.131 223.462 224.398 223.131 224.661C216.362 230.14 209.031 234.888 201.26 238.826C200.8 239.058 200.339 239.29 199.875 239.518C199.139 239.88 198.395 240.233 197.651 240.579C170.109 253.379 138.788 255.501 109.768 246.535C58.9598 230.786 22 182.781 22 126C22 56.411 77.5164 0 146 0C214.483 0 269.999 56.411 269.999 126Z" fill="#38454F"/>
<path d="M285.938 242.328C285.858 245.291 285.357 248.228 284.451 251.052C284.431 251.118 284.409 251.182 284.387 251.248H278.839C278.845 251.189 278.851 251.123 278.857 251.052C279.227 246.835 277.114 221.472 274.564 217.083C274.787 217.439 286.368 228.927 285.938 242.328Z" fill="#F1F1F1"/>
<path d="M285.522 251.052C285.475 251.117 285.427 251.183 285.378 251.247H281.215C281.247 251.192 281.284 251.126 281.326 251.052C282.013 249.821 284.049 246.142 285.938 242.327C287.967 238.228 289.83 233.974 289.673 232.434C289.722 232.781 291.127 243.368 285.522 251.052Z" fill="#F1F1F1"/>
<path d="M25.8313 244.623C25.8908 246.823 26.2625 249.005 26.9356 251.102C26.9505 251.151 26.967 251.199 26.9832 251.248H31.1035C31.0992 251.204 31.0947 251.155 31.0904 251.102C30.8157 247.97 32.3851 229.134 34.279 225.874C34.1131 226.138 25.5119 234.67 25.8313 244.623Z" fill="#F1F1F1"/>
<path d="M26.1405 251.102C26.175 251.151 26.2108 251.199 26.2475 251.247H29.3387C29.3153 251.206 29.2881 251.157 29.2566 251.102C28.746 250.188 27.2346 247.455 25.8316 244.623C24.3245 241.578 22.9407 238.419 23.0572 237.275C23.0211 237.533 21.9778 245.396 26.1405 251.102Z" fill="#F1F1F1"/>
<path d="M227.131 202.792C196.011 189.713 167.856 190.21 141.337 198.193C100.476 191.116 72.4969 192.211 54.5496 202.792V169.941H227.131V202.792Z" fill="#CBCBCB"/>
<path d="M227.13 193.758C198.46 180.875 169.825 180.043 140.757 193.758C110.985 185.257 82.2042 185.346 54.384 193.758V93.8909C83.9626 85.1358 112.735 85.3462 140.757 93.8909C170.358 85.3757 199.175 85.1056 227.13 93.8909V193.758Z" fill="#E5E5E5"/>
<path d="M62.1535 106.284L61.1891 103.836C61.5671 103.69 70.5991 100.227 83.8544 98.4605C96.1093 96.8271 114.368 96.4372 131.757 103.853L130.71 106.267C113.902 99.0997 96.1839 99.4772 84.2794 101.056C71.322 102.774 62.2437 106.249 62.1535 106.284Z" fill="white"/>
<path d="M62.1535 115.483L61.1891 113.035C61.5671 112.888 70.5991 109.426 83.8544 107.659C96.1093 106.026 114.368 105.636 131.757 113.051L130.71 115.466C113.902 108.298 96.1839 108.675 84.2794 110.254C71.322 111.973 62.2437 115.448 62.1535 115.483Z" fill="white"/>
<path d="M62.1535 124.681L61.1891 122.233C61.5671 122.087 70.5991 118.624 83.8544 116.857C96.1093 115.224 114.368 114.834 131.757 122.25L130.71 124.664C113.902 117.497 96.1839 117.874 84.2794 119.453C71.322 121.171 62.2437 124.646 62.1535 124.681Z" fill="white"/>
<path d="M62.1535 133.879L61.1891 131.431C61.5671 131.285 70.5991 127.822 83.8544 126.056C96.1093 124.423 114.368 124.032 131.757 131.448L130.71 133.862C113.902 126.695 96.1839 127.072 84.2794 128.651C71.322 130.369 62.2437 133.844 62.1535 133.879Z" fill="white"/>
<path d="M62.1535 143.078L61.1891 140.63C61.5671 140.483 70.5991 137.02 83.8544 135.254C96.1093 133.621 114.368 133.231 131.757 140.646L130.71 143.061C113.902 135.893 96.1839 136.27 84.2794 137.849C71.322 139.567 62.2437 143.043 62.1535 143.078Z" fill="white"/>
<path d="M62.1535 152.276L61.1891 149.828C61.5671 149.681 70.5991 146.218 83.8544 144.452C96.1093 142.819 114.368 142.429 131.757 149.844L130.71 152.259C113.902 145.091 96.1839 145.469 84.2794 147.047C71.322 148.766 62.2437 152.241 62.1535 152.276Z" fill="white"/>
<path d="M148.61 171.658L147.645 169.21C148.023 169.064 157.055 165.601 170.31 163.834C182.565 162.201 200.824 161.811 218.213 169.227L217.167 171.641C200.358 164.473 182.64 164.851 170.735 166.429C157.778 168.148 148.7 171.623 148.61 171.658Z" fill="#927100"/>
<path d="M147.796 154.005V103.766L148.726 103.478C172.292 96.1772 195.744 96.1786 218.43 103.482L219.346 103.777V153.938L217.553 153.267C193.945 144.43 171.092 144.425 149.629 153.251L147.796 154.005ZM182.764 144.002C193.856 144.002 205.167 146.052 216.696 150.153V105.691C195.127 98.9453 172.846 98.949 150.446 105.702V150.092C160.739 146.071 171.702 144.005 182.764 144.002Z" fill="white"/>
<path d="M216.751 170.356L217.098 161.995L229.005 138.517C229.341 137.849 229.888 137.31 230.563 136.981C230.977 136.776 231.427 136.655 231.888 136.625C232.349 136.596 232.811 136.657 233.248 136.807C233.754 136.98 234.212 137.266 234.588 137.644C234.964 138.021 235.247 138.48 235.414 138.984C235.486 139.201 235.537 139.425 235.565 139.653C235.65 140.327 235.53 141.011 235.22 141.617L223.297 165.127L216.751 170.356Z" fill="#927100"/>
<path d="M232.046 136.783L219.121 162.269L218.136 161.778L230.637 137.128C231.075 136.911 231.557 136.793 232.046 136.783Z" fill="#3F3D56"/>
<path d="M235.401 139.673L222.968 164.188L221.983 163.696L234.881 138.263C235.04 138.503 235.166 138.763 235.257 139.035C235.326 139.243 235.374 139.457 235.401 139.673Z" fill="#3F3D56"/>
<path d="M234.163 137.486L221.095 163.253L220.11 162.762L233.194 136.962C233.333 137.009 233.469 137.066 233.601 137.132C233.8 137.231 233.988 137.35 234.163 137.486Z" fill="#3F3D56"/>
<path d="M218.246 168.951L216.931 170.002L217.041 167.232C217.493 167.388 217.982 168.062 218.246 168.951Z" fill="#3F3D56"/>
<path d="M88.5448 199.131L86.9706 194.395L88.6477 178.823C88.6938 178.381 88.885 177.966 89.1919 177.642C89.3793 177.442 89.6049 177.281 89.8557 177.169C90.1065 177.056 90.3774 176.995 90.6526 176.987C90.9712 176.978 91.2876 177.043 91.577 177.175C91.8665 177.308 92.1211 177.505 92.3212 177.751C92.4072 177.857 92.4828 177.972 92.5467 178.093C92.7364 178.451 92.814 178.857 92.7694 179.26L91.09 194.853L88.5448 199.131Z" fill="#927100"/>
<path d="M89.9773 177.224L88.1568 194.127L87.5032 194.058L89.2639 177.709C89.4624 177.497 89.706 177.331 89.9773 177.224Z" fill="#3F3D56"/>
<path d="M92.4594 178.138L90.7083 194.397L90.0547 194.328L91.8714 177.46C92.0107 177.561 92.1361 177.679 92.2443 177.812C92.3264 177.914 92.3984 178.023 92.4594 178.138Z" fill="#3F3D56"/>
<path d="M91.3065 177.175L89.4659 194.265L88.8123 194.196L90.6552 177.085C90.743 177.082 90.8308 177.086 90.9181 177.095C91.0499 177.109 91.18 177.136 91.3065 177.175Z" fill="#3F3D56"/>
<path d="M89.0816 198.036L88.5702 198.895L88.0461 197.328C88.3308 197.321 88.746 197.595 89.0816 198.036Z" fill="#3F3D56"/>
<path d="M259.061 193.577C258.881 193.888 258.642 194.161 258.356 194.381C258.07 194.6 257.744 194.761 257.395 194.855C256.691 195.046 255.94 194.951 255.307 194.592C254.673 194.232 254.21 193.638 254.018 192.94C253.826 192.242 253.922 191.497 254.284 190.869C254.29 190.858 254.296 190.848 254.303 190.837C254.379 190.709 254.466 190.587 254.562 190.472L252.247 174.114L252.178 173.624L251.708 170.286L251.639 169.805L251.895 169.817L256.379 170.02L257.581 170.074L257.732 173.119L258.584 190.239C259.03 190.662 259.319 191.221 259.406 191.826C259.492 192.432 259.37 193.049 259.061 193.577H259.061Z" fill="#FFB8B8"/>
<path d="M252.191 173.772L257.885 173.254C258.18 173.226 258.453 173.084 258.642 172.858C258.832 172.632 258.924 172.341 258.899 172.048L257.844 160.306C257.742 159.175 257.192 158.13 256.313 157.402C255.435 156.674 254.301 156.321 253.16 156.422C252.02 156.523 250.967 157.069 250.232 157.94C249.498 158.811 249.143 159.936 249.245 161.067C249.252 161.148 249.261 161.229 249.273 161.309L250.981 172.826C251.02 173.09 251.153 173.331 251.357 173.506C251.56 173.68 251.82 173.776 252.089 173.777C252.123 173.777 252.157 173.776 252.191 173.772Z" fill="#DAAD11"/>
<path d="M256.507 164.286C257.083 162.668 257.11 160.908 256.583 159.274C256.056 157.64 255.005 156.221 253.59 155.235C251.443 153.778 248.505 153.255 245.342 156.99C241.513 161.551 238.782 166.916 237.356 172.679L250.313 174.771C250.313 174.771 254.72 169.429 256.507 164.286Z" fill="#DAAD11"/>
<path d="M235.55 248.441H231.856L230.099 234.309H235.551L235.55 248.441Z" fill="#FFB8B8"/>
<path d="M224.732 251.842H236.343V247.394H229.218C228.029 247.394 226.888 247.862 226.046 248.697C225.205 249.531 224.732 250.662 224.732 251.842Z" fill="#2F2E41"/>
<path d="M265.923 245.245L262.415 246.395L256.274 233.525L261.451 231.827L265.923 245.245Z" fill="#FFB8B8"/>
<path d="M256.727 251.842L267.751 248.229L266.343 244.005L259.578 246.222C258.449 246.592 257.514 247.392 256.979 248.446C256.444 249.5 256.354 250.722 256.727 251.842Z" fill="#2F2E41"/>
<path d="M248.373 151.529C252.461 151.529 255.774 148.243 255.774 144.189C255.774 140.136 252.461 136.85 248.373 136.85C244.286 136.85 240.972 140.136 240.972 144.189C240.972 148.243 244.286 151.529 248.373 151.529Z" fill="#FFB8B8"/>
<path d="M241.893 244.507L245.324 222.051C245.36 221.811 245.48 221.592 245.662 221.43C245.843 221.268 246.076 221.173 246.32 221.163C246.565 221.152 246.805 221.226 247 221.372C247.196 221.517 247.334 221.726 247.392 221.961L252.616 243.362C252.698 243.69 252.901 243.975 253.185 244.162C253.468 244.349 253.812 244.425 254.149 244.373L268.56 242.077C268.751 242.046 268.934 241.975 269.095 241.869C269.256 241.763 269.393 241.624 269.495 241.461C269.598 241.299 269.664 241.116 269.69 240.926C269.715 240.735 269.699 240.542 269.643 240.358L250.852 178.917C250.798 178.742 250.792 178.557 250.833 178.379L251.459 175.69C251.528 175.398 251.496 175.092 251.369 174.82C251.242 174.549 251.027 174.327 250.758 174.191C248.199 172.896 241.718 170.204 236.827 173.153C236.668 173.249 236.531 173.376 236.423 173.527C236.315 173.677 236.24 173.847 236.2 174.028L221.521 242.453C221.481 242.639 221.481 242.831 221.522 243.017C221.562 243.203 221.642 243.378 221.756 243.531C221.87 243.684 222.015 243.812 222.183 243.905C222.35 243.998 222.535 244.055 222.726 244.072L240.431 245.645C240.472 245.648 240.512 245.65 240.552 245.65C240.876 245.649 241.189 245.534 241.435 245.324C241.681 245.115 241.843 244.825 241.892 244.507L241.893 244.507Z" fill="#2F2E41"/>
<path d="M253.281 139.004C252.723 138.671 252.228 138.244 251.818 137.743C251.615 137.489 251.482 137.189 251.431 136.869C251.38 136.55 251.412 136.223 251.525 135.92C251.899 135.102 253.01 134.844 253.872 135.122C254.733 135.399 255.398 136.07 256.027 136.715C256.581 137.283 257.151 137.879 257.413 138.625C257.675 139.372 257.541 140.319 256.887 140.772C256.245 141.217 255.323 141.035 254.705 140.558C254.123 140.035 253.658 139.397 253.342 138.684L253.281 139.004Z" fill="#2F2E41"/>
<path d="M255.788 136.913C255.828 134.845 258.205 133.362 260.258 133.728C262.311 134.095 263.889 135.831 264.679 137.745C266.348 141.79 265.095 146.405 263.487 150.475C261.879 154.546 259.889 158.675 260.124 163.039C260.283 165.398 261.081 167.671 262.434 169.617C263.787 171.563 265.646 173.111 267.812 174.096C265.496 175.138 262.727 174.062 260.78 172.439C256.456 168.833 254.787 162.414 256.814 157.185C257.813 154.605 259.575 152.399 260.95 149.996C262.325 147.593 263.335 144.761 262.624 142.089C261.914 139.417 258.892 137.254 256.309 138.288L255.788 136.913Z" fill="#2F2E41"/>
<path d="M247.929 147.447C248.575 146.365 249.225 144.946 248.046 144.001C247.79 143.804 247.497 143.661 247.183 143.579C246.87 143.497 246.544 143.478 246.223 143.522C244.894 143.681 243.446 143.747 242.159 143.268C241.676 143.103 241.232 142.844 240.852 142.506C240.472 142.167 240.165 141.757 239.949 141.298C239.286 139.737 240.116 137.84 241.505 136.853C242.355 136.272 243.359 135.952 244.391 135.933C245.423 135.915 246.438 136.2 247.308 136.751C249.107 135.963 251.29 136.314 252.924 137.399C254.558 138.483 255.677 140.221 256.284 142.076C256.844 143.672 256.94 145.392 256.562 147.041C256.258 148.187 255.68 149.244 254.877 150.122C254.073 151 253.068 151.674 251.947 152.085C251.51 152.256 251.036 152.31 250.571 152.242C250.107 152.173 249.669 151.985 249.301 151.696C248.702 151.164 248.243 150.496 247.962 149.75C247.716 148.932 247.585 148.024 247.929 147.447Z" fill="#2F2E41"/>
<path d="M225.974 153.996C226.011 154.157 226.035 154.321 226.046 154.486L238.99 161.892L242.136 160.095L245.49 164.45L240.232 168.167C239.807 168.467 239.296 168.623 238.774 168.61C238.252 168.598 237.749 168.418 237.339 168.097L223.991 157.654C223.388 157.875 222.732 157.909 222.109 157.752C221.487 157.594 220.927 157.252 220.505 156.772C220.083 156.291 219.819 155.694 219.747 155.061C219.676 154.428 219.8 153.788 220.104 153.227C220.408 152.665 220.878 152.209 221.45 151.919C222.022 151.628 222.669 151.517 223.306 151.601C223.943 151.684 224.539 151.958 225.016 152.386C225.492 152.814 225.826 153.375 225.972 153.996L225.974 153.996Z" fill="#FFB8B8"/>
<path d="M239.423 162.243L243.607 167.62C243.726 167.773 243.877 167.899 244.049 167.988C244.221 168.078 244.411 168.13 244.606 168.141C244.8 168.151 244.994 168.12 245.176 168.05C245.357 167.979 245.521 167.871 245.656 167.732L250.392 162.854C250.79 162.562 251.126 162.195 251.381 161.773C251.636 161.352 251.805 160.885 251.878 160.398C251.95 159.912 251.925 159.417 251.805 158.94C251.684 158.464 251.469 158.015 251.173 157.621C250.877 157.227 250.506 156.894 250.08 156.643C249.655 156.391 249.183 156.225 248.693 156.154C248.202 156.084 247.703 156.11 247.223 156.231C246.742 156.352 246.291 156.566 245.894 156.861C245.853 156.891 245.813 156.922 245.773 156.954L239.834 160.248C239.664 160.342 239.516 160.472 239.401 160.628C239.286 160.784 239.206 160.963 239.167 161.152C239.128 161.341 239.131 161.537 239.175 161.725C239.219 161.913 239.303 162.09 239.422 162.243H239.423Z" fill="#DAAD11"/>
<path d="M79.5606 247.982L83.5763 247.982L85.4869 232.62L79.5599 232.62L79.5606 247.982Z" fill="#A0616A"/>
<path d="M78.5361 246.681L86.4447 246.681H86.4451C87.7817 246.681 89.0636 247.208 90.0088 248.145C90.9539 249.082 91.485 250.354 91.4851 251.679V251.842L78.5363 251.842L78.5361 246.681Z" fill="#2F2E41"/>
<path d="M48.2919 246.258L52.2626 246.853L56.4671 231.947L51.2616 231.069L48.2919 246.258Z" fill="#A0616A"/>
<path d="M47.4749 244.82L55.2947 245.992L55.295 245.993C56.6166 246.191 57.8047 246.902 58.598 247.968C59.3913 249.035 59.7247 250.371 59.525 251.682L59.5005 251.842L46.6972 249.923L47.4749 244.82Z" fill="#2F2E41"/>
<path d="M60.6737 171.853L65.1326 173.012L64.8359 180.181L64.7992 193.234C65.2385 193.535 65.5752 193.962 65.7647 194.457C65.9543 194.952 65.9878 195.493 65.8608 196.007C65.7338 196.522 65.4523 196.986 65.0536 197.339C64.6548 197.691 64.1575 197.915 63.6276 197.981C63.0976 198.047 62.5599 197.952 62.0857 197.708C61.6114 197.465 61.2228 197.084 60.9714 196.617C60.72 196.149 60.6176 195.617 60.6778 195.091C60.7379 194.565 60.9578 194.069 61.3082 193.669L59.938 180.568L60.6737 171.853Z" fill="#A0616A"/>
<path d="M59.8976 163.641C59.9222 162.948 60.1474 162.277 60.5464 161.708C60.9455 161.139 61.5013 160.695 62.1476 160.431C62.7526 160.163 63.4235 160.075 64.0778 160.18C64.7322 160.284 65.3416 160.576 65.8312 161.019C66.1831 161.33 66.4621 161.715 66.6489 162.144C66.8357 162.574 66.9257 163.039 66.9127 163.507C66.9244 167.707 65.9684 173.829 65.9587 173.89L65.9434 173.987L59.4261 176.164L59.8976 163.641Z" fill="#DAAD11"/>
<path d="M71.551 175.563L81.5195 173.004L86.1274 188.395L86.2912 245.732L78.6682 245.684L75.4817 199.278L55.1729 242.158L46.9839 241.184L64.836 195.217C64.836 195.217 63.8533 187.096 66.9651 183.035L66.31 178.812L71.551 175.563Z" fill="#2F2E41"/>
<path d="M64.8293 179.393C64.69 179.225 64.5887 179.029 64.5325 178.819C64.4763 178.608 64.4664 178.389 64.5034 178.174L59.9565 164.646C59.7442 164.013 59.7216 163.333 59.8916 162.689C60.0615 162.044 60.4165 161.462 60.9136 161.013L62.8875 159.234L64.2252 153.927L71.9135 155.791L71.2801 158.304L74.7596 157.677L82.0885 173.865L66.7693 179.937L66.0148 179.949C65.7879 179.949 65.5638 179.9 65.3588 179.803C65.1537 179.707 64.9728 179.567 64.8293 179.393Z" fill="#DAAD11"/>
<path d="M75.5006 167.97L79.8935 166.586L83.5069 172.802L90.5114 183.854C91.045 183.875 91.5595 184.057 91.9866 184.375C92.4137 184.693 92.7335 185.133 92.9035 185.635C93.0735 186.137 93.0857 186.678 92.9387 187.188C92.7916 187.697 92.4921 188.15 92.0798 188.487C91.6675 188.823 91.1618 189.028 90.6297 189.074C90.0975 189.119 89.5639 189.003 89.0996 188.742C88.6352 188.48 88.2619 188.085 88.029 187.608C87.7962 187.131 87.7147 186.595 87.7955 186.072L79.5762 175.726L75.5006 167.97Z" fill="#A0616A"/>
<path d="M70.4185 161.441C70.0659 160.843 69.8945 160.156 69.925 159.463C69.9554 158.771 70.1862 158.102 70.59 157.536C70.9568 156.988 71.4766 156.559 72.0859 156.3C72.6951 156.042 73.3672 155.965 74.0198 156.08C74.4853 156.157 74.9282 156.333 75.3177 156.598C75.7072 156.862 76.0339 157.207 76.275 157.609C78.5486 161.153 81.0402 166.833 81.0651 166.89L81.1045 166.981L76.7696 172.275L70.4185 161.441Z" fill="#DAAD11"/>
<path d="M69.9136 152.94C73.2873 152.94 76.0222 150.228 76.0222 146.882C76.0222 143.536 73.2873 140.824 69.9136 140.824C66.5399 140.824 63.8049 143.536 63.8049 146.882C63.8049 150.228 66.5399 152.94 69.9136 152.94Z" fill="#A0616A"/>
<path d="M59.1183 144.326C62.3681 144.326 65.0025 141.714 65.0025 138.491C65.0025 135.268 62.3681 132.655 59.1183 132.655C55.8686 132.655 53.2341 135.268 53.2341 138.491C53.2341 141.714 55.8686 144.326 59.1183 144.326Z" fill="#2F2E41"/>
<path d="M54.0429 143.323C54.8045 143.869 55.6868 144.226 56.6161 144.364C57.5454 144.503 58.4946 144.418 59.3842 144.118C60.2739 143.818 61.0782 143.311 61.7298 142.64C62.3814 141.968 62.8614 141.152 63.1296 140.259C63.0281 141.059 62.7604 141.83 62.3434 142.523C61.9263 143.215 61.369 143.815 60.7066 144.283C60.0442 144.751 59.2911 145.078 58.4949 145.243C57.6986 145.408 56.8765 145.408 56.0805 145.242C55.2844 145.076 54.5317 144.748 53.8699 144.279C53.2081 143.81 52.6515 143.21 52.2352 142.517C51.819 141.824 51.5522 141.052 51.4517 140.252C51.3512 139.451 51.4191 138.639 51.6512 137.866C51.5194 138.904 51.6719 139.959 52.0927 140.92C52.5135 141.88 53.1871 142.71 54.0429 143.323Z" fill="#2F2E41"/>
<path d="M77.2645 143.329C76.2372 141.505 75.8442 140.744 74.5197 139.635C73.3484 138.654 71.9078 138.366 70.7458 139.295C69.3711 138.706 67.8415 138.572 66.3843 138.914C64.927 139.256 63.6197 140.055 62.6566 141.192C61.6936 142.329 61.1261 143.744 61.0385 145.227C60.951 146.709 61.3479 148.18 62.1705 149.421C62.993 150.662 64.1973 151.607 65.6043 152.115C67.0114 152.623 68.5463 152.668 69.9809 152.242C71.4155 151.816 72.6733 150.943 73.5676 149.752C74.4618 148.561 74.9447 147.115 74.9446 145.63C74.9436 145.369 74.9277 145.109 74.8972 144.85C75.9073 144.709 76.2544 143.47 77.2645 143.329Z" fill="#2F2E41"/>
<path d="M136.901 254H0.35838C0.263331 254 0.172176 253.945 0.104967 253.847C0.0377575 253.748 0 253.615 0 253.476C0 253.337 0.0377575 253.204 0.104967 253.106C0.172176 253.008 0.263331 252.952 0.35838 252.952H136.901C136.996 252.952 137.087 253.008 137.154 253.106C137.222 253.204 137.259 253.337 137.259 253.476C137.259 253.615 137.222 253.748 137.154 253.847C137.087 253.945 136.996 254 136.901 254Z" fill="#CBCBCB"/>
<path d="M306.669 252.952H180.463C180.375 252.952 180.291 252.918 180.229 252.856C180.166 252.795 180.132 252.711 180.132 252.624C180.132 252.537 180.166 252.453 180.229 252.392C180.291 252.33 180.375 252.295 180.463 252.295H306.669C306.757 252.295 306.841 252.33 306.903 252.392C306.965 252.453 307 252.537 307 252.624C307 252.711 306.965 252.795 306.903 252.856C306.841 252.918 306.757 252.952 306.669 252.952Z" fill="#CBCBCB"/>
<path d="M141.089 93.8906H140.426V193.442H141.089V93.8906Z" fill="#CBCBCB"/>
</svg>
