<svg width="16" height="18" viewBox="0 0 16 18" fill="none" xmlns="http://www.w3.org/2000/svg">
<path d="M8.89 17.1C8.89 17.5977 8.49173 18 8.001 18H4.445C1.99403 18 0 15.9813 0 13.5V4.5C0 2.0187 1.99403 0 4.445 0H8.001C8.49173 0 8.89 0.4023 8.89 0.9C8.89 1.3977 8.49173 1.8 8.001 1.8H4.445C2.97459 1.8 1.778 3.0114 1.778 4.5V13.5C1.778 14.9886 2.97459 16.2 4.445 16.2H8.001C8.49173 16.2 8.89 16.6023 8.89 17.1ZM15.9327 9.34376C16.0224 9.12416 16.0224 8.87584 15.9327 8.65624C15.8873 8.54554 15.8224 8.44649 15.7397 8.36279L12.1846 4.76367C11.837 4.41177 11.2752 4.41177 10.9276 4.76367C10.58 5.11557 10.58 5.68443 10.9276 6.03633L12.9661 8.1H6.22211C5.73138 8.1 5.33311 8.5023 5.33311 9C5.33311 9.4977 5.73138 9.9 6.22211 9.9H12.9661L10.9276 11.9637C10.58 12.3156 10.58 12.8844 10.9276 13.2363C11.1009 13.4118 11.3285 13.5 11.5561 13.5C11.7837 13.5 12.0113 13.4118 12.1846 13.2363L15.7397 9.63721C15.8224 9.55351 15.8882 9.45446 15.9327 9.34376Z" fill="white"/>
</svg>
