<svg width="375" height="812" viewBox="0 0 375 812" fill="none" xmlns="http://www.w3.org/2000/svg">
<rect width="375" height="812" fill="url(#paint0_linear_1902_130)"/>
<path d="M187.499 325C218.143 325 243 349.857 243 380.5C243 411.155 218.143 436 187.499 436C156.853 436 132 411.153 132 380.5C132 349.857 156.855 325 187.499 325ZM216.986 406.958C218.657 406.958 220.015 405.61 220.015 403.938C220.015 402.832 219.392 401.91 218.495 401.384V373.721H215.475V401.384C214.586 401.91 213.963 402.828 213.963 403.943C213.965 405.61 215.321 406.958 216.986 406.958ZM161.585 396.072C161.585 399.648 173.192 405.138 187.501 405.138C201.808 405.138 213.417 399.649 213.417 396.072V378.209L187.501 387.462L161.585 378.209V396.072ZM187.499 384.256L213.997 374.792L189.924 371.086C189.346 371.812 188.506 372.299 187.511 372.299C185.771 372.299 184.361 370.892 184.361 369.142C184.361 367.394 185.763 365.991 187.511 365.991C188.884 365.991 190.016 366.887 190.449 368.105L219.973 372.649L229.801 369.139L187.506 354.032L145.212 369.139L187.499 384.256Z" fill="#B7A675"/>
<path d="M105.404 477.4H97.6037L96.1157 481H92.1317L99.6197 464.2H103.46L110.972 481H106.892L105.404 477.4ZM104.18 474.448L101.516 468.016L98.8517 474.448H104.18ZM112.451 463.192H116.195V481H112.451V463.192ZM119.669 463.192H123.413V481H119.669V463.192ZM133.949 464.2H137.837V481H133.949V464.2ZM149.408 467.896C151.008 467.896 152.296 468.376 153.272 469.336C154.264 470.296 154.76 471.72 154.76 473.608V481H151.016V474.184C151.016 473.16 150.792 472.4 150.344 471.904C149.896 471.392 149.248 471.136 148.4 471.136C147.456 471.136 146.704 471.432 146.144 472.024C145.584 472.6 145.304 473.464 145.304 474.616V481H141.56V468.088H145.136V469.6C145.632 469.056 146.248 468.64 146.984 468.352C147.72 468.048 148.528 467.896 149.408 467.896ZM176.279 477.4H168.479L166.991 481H163.007L170.495 464.2H174.335L181.847 481H177.767L176.279 477.4ZM175.055 474.448L172.391 468.016L169.727 474.448H175.055ZM189.448 481.192C188.072 481.192 186.832 480.912 185.728 480.352C184.64 479.776 183.784 478.984 183.16 477.976C182.552 476.968 182.248 475.824 182.248 474.544C182.248 473.264 182.552 472.12 183.16 471.112C183.784 470.104 184.64 469.32 185.728 468.76C186.832 468.184 188.072 467.896 189.448 467.896C190.808 467.896 191.992 468.184 193 468.76C194.024 469.32 194.768 470.128 195.232 471.184L192.328 472.744C191.656 471.56 190.688 470.968 189.424 470.968C188.448 470.968 187.64 471.288 187 471.928C186.36 472.568 186.04 473.44 186.04 474.544C186.04 475.648 186.36 476.52 187 477.16C187.64 477.8 188.448 478.12 189.424 478.12C190.704 478.12 191.672 477.528 192.328 476.344L195.232 477.928C194.768 478.952 194.024 479.752 193 480.328C191.992 480.904 190.808 481.192 189.448 481.192ZM202.596 467.896C204.596 467.896 206.132 468.376 207.204 469.336C208.276 470.28 208.812 471.712 208.812 473.632V481H205.308V479.392C204.604 480.592 203.292 481.192 201.372 481.192C200.38 481.192 199.516 481.024 198.78 480.688C198.06 480.352 197.508 479.888 197.124 479.296C196.74 478.704 196.548 478.032 196.548 477.28C196.548 476.08 196.996 475.136 197.892 474.448C198.804 473.76 200.204 473.416 202.092 473.416H205.068C205.068 472.6 204.82 471.976 204.324 471.544C203.828 471.096 203.084 470.872 202.092 470.872C201.404 470.872 200.724 470.984 200.052 471.208C199.396 471.416 198.836 471.704 198.372 472.072L197.028 469.456C197.732 468.96 198.572 468.576 199.548 468.304C200.54 468.032 201.556 467.896 202.596 467.896ZM202.308 478.672C202.948 478.672 203.516 478.528 204.012 478.24C204.508 477.936 204.86 477.496 205.068 476.92V475.6H202.5C200.964 475.6 200.196 476.104 200.196 477.112C200.196 477.592 200.38 477.976 200.748 478.264C201.132 478.536 201.652 478.672 202.308 478.672ZM225.493 463.192V481H221.917V479.512C220.989 480.632 219.645 481.192 217.885 481.192C216.669 481.192 215.565 480.92 214.573 480.376C213.597 479.832 212.829 479.056 212.269 478.048C211.709 477.04 211.429 475.872 211.429 474.544C211.429 473.216 211.709 472.048 212.269 471.04C212.829 470.032 213.597 469.256 214.573 468.712C215.565 468.168 216.669 467.896 217.885 467.896C219.533 467.896 220.821 468.416 221.749 469.456V463.192H225.493ZM218.533 478.12C219.477 478.12 220.261 477.8 220.885 477.16C221.509 476.504 221.821 475.632 221.821 474.544C221.821 473.456 221.509 472.592 220.885 471.952C220.261 471.296 219.477 470.968 218.533 470.968C217.573 470.968 216.781 471.296 216.157 471.952C215.533 472.592 215.221 473.456 215.221 474.544C215.221 475.632 215.533 476.504 216.157 477.16C216.781 477.8 217.573 478.12 218.533 478.12ZM241.606 474.592C241.606 474.64 241.582 474.976 241.534 475.6H231.766C231.942 476.4 232.358 477.032 233.014 477.496C233.67 477.96 234.486 478.192 235.462 478.192C236.134 478.192 236.726 478.096 237.238 477.904C237.766 477.696 238.254 477.376 238.702 476.944L240.694 479.104C239.478 480.496 237.702 481.192 235.366 481.192C233.91 481.192 232.622 480.912 231.502 480.352C230.382 479.776 229.518 478.984 228.91 477.976C228.302 476.968 227.998 475.824 227.998 474.544C227.998 473.28 228.294 472.144 228.886 471.136C229.494 470.112 230.318 469.32 231.358 468.76C232.414 468.184 233.59 467.896 234.886 467.896C236.15 467.896 237.294 468.168 238.318 468.712C239.342 469.256 240.142 470.04 240.718 471.064C241.31 472.072 241.606 473.248 241.606 474.592ZM234.91 470.728C234.062 470.728 233.35 470.968 232.774 471.448C232.198 471.928 231.846 472.584 231.718 473.416H238.078C237.95 472.6 237.598 471.952 237.022 471.472C236.446 470.976 235.742 470.728 234.91 470.728ZM260.635 467.896C262.251 467.896 263.531 468.376 264.475 469.336C265.435 470.28 265.915 471.704 265.915 473.608V481H262.171V474.184C262.171 473.16 261.955 472.4 261.523 471.904C261.107 471.392 260.507 471.136 259.723 471.136C258.843 471.136 258.147 471.424 257.635 472C257.123 472.56 256.867 473.4 256.867 474.52V481H253.123V474.184C253.123 472.152 252.307 471.136 250.675 471.136C249.811 471.136 249.123 471.424 248.611 472C248.099 472.56 247.843 473.4 247.843 474.52V481H244.099V468.088H247.675V469.576C248.155 469.032 248.739 468.616 249.427 468.328C250.131 468.04 250.899 467.896 251.731 467.896C252.643 467.896 253.467 468.08 254.203 468.448C254.939 468.8 255.531 469.32 255.979 470.008C256.507 469.336 257.171 468.816 257.971 468.448C258.787 468.08 259.675 467.896 260.635 467.896ZM281.853 468.088L276.021 481.792C275.429 483.28 274.693 484.328 273.813 484.936C272.949 485.544 271.901 485.848 270.669 485.848C269.997 485.848 269.333 485.744 268.677 485.536C268.021 485.328 267.485 485.04 267.069 484.672L268.437 482.008C268.725 482.264 269.053 482.464 269.421 482.608C269.805 482.752 270.181 482.824 270.549 482.824C271.061 482.824 271.477 482.696 271.797 482.44C272.117 482.2 272.405 481.792 272.661 481.216L272.709 481.096L267.117 468.088H270.981L274.605 476.848L278.253 468.088H281.853Z" fill="#B7A675"/>
<defs>
<linearGradient id="paint0_linear_1902_130" x1="187.5" y1="0" x2="187.5" y2="812" gradientUnits="userSpaceOnUse">
<stop stop-color="#0D0D0D"/>
<stop offset="1" stop-color="#2D2D2D"/>
</linearGradient>
</defs>
</svg>
