<svg width="375" height="812" viewBox="0 0 375 812" fill="none" xmlns="http://www.w3.org/2000/svg">
<rect width="375" height="812" fill="url(#paint0_linear_1902_130)"/>
<path d="M187.499 325C218.143 325 243 349.857 243 380.5C243 411.155 218.143 436 187.499 436C156.853 436 132 411.153 132 380.5C132 349.857 156.855 325 187.499 325ZM216.986 406.958C218.657 406.958 220.015 405.61 220.015 403.938C220.015 402.832 219.392 401.91 218.495 401.384V373.721H215.475V401.384C214.586 401.91 213.963 402.828 213.963 403.943C213.965 405.61 215.321 406.958 216.986 406.958ZM161.585 396.072C161.585 399.648 173.192 405.138 187.501 405.138C201.808 405.138 213.417 399.649 213.417 396.072V378.209L187.501 387.462L161.585 378.209V396.072ZM187.499 384.256L213.997 374.792L189.924 371.086C189.346 371.812 188.506 372.299 187.511 372.299C185.771 372.299 184.361 370.892 184.361 369.142C184.361 367.394 185.763 365.991 187.511 365.991C188.884 365.991 190.016 366.887 190.449 368.105L219.973 372.649L229.801 369.139L187.506 354.032L145.212 369.139L187.499 384.256Z" fill="#B7A675"/>
<path d="M154.211 477.112H145.811L144.155 481H140.939L148.499 464.2H151.571L159.155 481H155.891L154.211 477.112ZM153.179 474.664L150.011 467.32L146.867 474.664H153.179ZM166.766 481.168C165.438 481.168 164.246 480.888 163.19 480.328C162.134 479.768 161.31 478.992 160.718 478C160.126 476.992 159.83 475.856 159.83 474.592C159.83 473.328 160.126 472.2 160.718 471.208C161.31 470.216 162.126 469.44 163.166 468.88C164.222 468.32 165.422 468.04 166.766 468.04C168.03 468.04 169.134 468.296 170.078 468.808C171.038 469.32 171.758 470.056 172.238 471.016L169.934 472.36C169.566 471.768 169.102 471.328 168.542 471.04C167.998 470.736 167.398 470.584 166.742 470.584C165.622 470.584 164.694 470.952 163.958 471.688C163.222 472.408 162.854 473.376 162.854 474.592C162.854 475.808 163.214 476.784 163.934 477.52C164.67 478.24 165.606 478.6 166.742 478.6C167.398 478.6 167.998 478.456 168.542 478.168C169.102 477.864 169.566 477.416 169.934 476.824L172.238 478.168C171.742 479.128 171.014 479.872 170.054 480.4C169.11 480.912 168.014 481.168 166.766 481.168ZM179.727 468.04C181.615 468.04 183.055 468.496 184.047 469.408C185.055 470.304 185.559 471.664 185.559 473.488V481H182.727V479.44C182.359 480 181.831 480.432 181.143 480.736C180.471 481.024 179.655 481.168 178.695 481.168C177.735 481.168 176.895 481.008 176.175 480.688C175.455 480.352 174.895 479.896 174.495 479.32C174.111 478.728 173.919 478.064 173.919 477.328C173.919 476.176 174.343 475.256 175.191 474.568C176.055 473.864 177.407 473.512 179.247 473.512H182.559V473.32C182.559 472.424 182.287 471.736 181.743 471.256C181.215 470.776 180.423 470.536 179.367 470.536C178.647 470.536 177.935 470.648 177.231 470.872C176.543 471.096 175.959 471.408 175.479 471.808L174.303 469.624C174.975 469.112 175.783 468.72 176.727 468.448C177.671 468.176 178.671 468.04 179.727 468.04ZM179.319 478.984C180.071 478.984 180.735 478.816 181.311 478.48C181.903 478.128 182.319 477.632 182.559 476.992V475.504H179.463C177.735 475.504 176.871 476.072 176.871 477.208C176.871 477.752 177.087 478.184 177.519 478.504C177.951 478.824 178.551 478.984 179.319 478.984ZM202.079 463.192V481H199.199V479.344C198.703 479.952 198.087 480.408 197.351 480.712C196.631 481.016 195.831 481.168 194.951 481.168C193.719 481.168 192.607 480.896 191.615 480.352C190.639 479.808 189.871 479.04 189.311 478.048C188.751 477.04 188.471 475.888 188.471 474.592C188.471 473.296 188.751 472.152 189.311 471.16C189.871 470.168 190.639 469.4 191.615 468.856C192.607 468.312 193.719 468.04 194.951 468.04C195.799 468.04 196.575 468.184 197.279 468.472C197.983 468.76 198.583 469.192 199.079 469.768V463.192H202.079ZM195.311 478.6C196.031 478.6 196.679 478.44 197.255 478.12C197.831 477.784 198.287 477.312 198.623 476.704C198.959 476.096 199.127 475.392 199.127 474.592C199.127 473.792 198.959 473.088 198.623 472.48C198.287 471.872 197.831 471.408 197.255 471.088C196.679 470.752 196.031 470.584 195.311 470.584C194.591 470.584 193.943 470.752 193.367 471.088C192.791 471.408 192.335 471.872 191.999 472.48C191.663 473.088 191.495 473.792 191.495 474.592C191.495 475.392 191.663 476.096 191.999 476.704C192.335 477.312 192.791 477.784 193.367 478.12C193.943 478.44 194.591 478.6 195.311 478.6ZM206.003 468.184H209.003V481H206.003V468.184ZM207.515 466.072C206.971 466.072 206.515 465.904 206.147 465.568C205.779 465.216 205.595 464.784 205.595 464.272C205.595 463.76 205.779 463.336 206.147 463C206.515 462.648 206.971 462.472 207.515 462.472C208.059 462.472 208.515 462.64 208.883 462.976C209.251 463.296 209.435 463.704 209.435 464.2C209.435 464.728 209.251 465.176 208.883 465.544C208.531 465.896 208.075 466.072 207.515 466.072ZM218.149 465.448C216.885 465.448 216.253 466.136 216.253 467.512V468.28H219.781V470.68H216.349V481H213.349V470.68H211.237V468.28H213.349V467.464C213.349 466.088 213.749 465.008 214.549 464.224C215.349 463.424 216.477 463.024 217.933 463.024C219.085 463.024 219.989 463.256 220.645 463.72L219.805 465.976C219.293 465.624 218.741 465.448 218.149 465.448ZM234.034 468.184L228.034 482.032C227.474 483.424 226.794 484.4 225.994 484.96C225.194 485.536 224.226 485.824 223.09 485.824C222.45 485.824 221.818 485.72 221.194 485.512C220.57 485.304 220.058 485.016 219.658 484.648L220.858 482.44C221.146 482.712 221.482 482.928 221.866 483.088C222.266 483.248 222.666 483.328 223.066 483.328C223.594 483.328 224.026 483.192 224.362 482.92C224.714 482.648 225.034 482.192 225.322 481.552L225.538 481.048L219.946 468.184H223.066L227.098 477.664L231.154 468.184H234.034Z" fill="#B7A675"/>
<defs>
<linearGradient id="paint0_linear_1902_130" x1="187.5" y1="0" x2="187.5" y2="812" gradientUnits="userSpaceOnUse">
<stop stop-color="#0D0D0D"/>
<stop offset="1" stop-color="#2D2D2D"/>
</linearGradient>
</defs>
</svg>
