<svg width="17" height="25" viewBox="0 0 17 25" fill="none" xmlns="http://www.w3.org/2000/svg">
<path d="M4.63636 9.07863C4.36574 9.07863 4.14636 9.29801 4.14636 9.56863C4.14636 9.83925 4.36574 10.0586 4.63636 10.0586V9.07863ZM12.3636 10.0586C12.6343 10.0586 12.8536 9.83925 12.8536 9.56863C12.8536 9.29801 12.6343 9.07863 12.3636 9.07863V10.0586ZM4.63636 12.2355C4.36574 12.2355 4.14636 12.4549 4.14636 12.7255C4.14636 12.9961 4.36574 13.2155 4.63636 13.2155V12.2355ZM12.3636 13.2155C12.6343 13.2155 12.8536 12.9961 12.8536 12.7255C12.8536 12.4549 12.6343 12.2355 12.3636 12.2355V13.2155ZM4.63636 14.9414C4.36574 14.9414 4.14636 15.1608 4.14636 15.4314C4.14636 15.702 4.36574 15.9214 4.63636 15.9214V14.9414ZM12.3636 15.9214C12.6343 15.9214 12.8536 15.702 12.8536 15.4314C12.8536 15.1608 12.6343 14.9414 12.3636 14.9414V15.9214ZM4.21429 4.19588C4.48491 4.19588 4.70429 3.9765 4.70429 3.70588C4.70429 3.43526 4.48491 3.21588 4.21429 3.21588V4.19588ZM12.5714 3.21588C12.3008 3.21588 12.0814 3.43526 12.0814 3.70588C12.0814 3.9765 12.3008 4.19588 12.5714 4.19588V3.21588ZM4.21429 23.1371C4.48491 23.1371 4.70429 22.9177 4.70429 22.6471C4.70429 22.3764 4.48491 22.1571 4.21429 22.1571V23.1371ZM12.7857 22.1571C12.5151 22.1571 12.2957 22.3764 12.2957 22.6471C12.2957 22.9177 12.5151 23.1371 12.7857 23.1371V22.1571ZM6.87384 20.8151C6.7338 20.5835 6.43255 20.5093 6.20098 20.6493C5.96941 20.7894 5.89521 21.0906 6.03525 21.3222L6.87384 20.8151ZM7.13636 22.1961L6.71707 22.4496C6.78487 22.5618 6.89474 22.642 7.02214 22.6726C7.14955 22.7031 7.28388 22.6814 7.39513 22.6122L7.13636 22.1961ZM10.147 20.7919C10.3678 20.6355 10.4199 20.3296 10.2634 20.1088C10.1069 19.888 9.80111 19.8359 9.58031 19.9924L10.147 20.7919ZM10.9645 2.80392V4.60784H11.9445V2.80392H10.9645ZM11 4.56882H6V5.54882H11V4.56882ZM6.03545 4.60784V2.80392H5.05545V4.60784H6.03545ZM6 4.56882C6.01594 4.56882 6.03545 4.58266 6.03545 4.60784H5.05545C5.05545 5.13116 5.48199 5.54882 6 5.54882V4.56882ZM10.9645 4.60784C10.9645 4.58266 10.9841 4.56882 11 4.56882V5.54882C11.518 5.54882 11.9445 5.13116 11.9445 4.60784H10.9645ZM11 2.84294C10.9841 2.84294 10.9645 2.8291 10.9645 2.80392H11.9445C11.9445 2.2806 11.518 1.86294 11 1.86294V2.84294ZM6 1.86294C5.48199 1.86294 5.05545 2.2806 5.05545 2.80392H6.03545C6.03545 2.8291 6.01594 2.84294 6 2.84294V1.86294ZM10.9645 20.8431C10.9645 22.3124 9.76302 23.51 8.27273 23.51V24.49C10.297 24.49 11.9445 22.8609 11.9445 20.8431H10.9645ZM8.27273 23.51C6.78243 23.51 5.58091 22.3124 5.58091 20.8431H4.60091C4.60091 22.8609 6.24848 24.49 8.27273 24.49V23.51ZM5.58091 20.8431C5.58091 19.3739 6.78243 18.1763 8.27273 18.1763V17.1963C6.24848 17.1963 4.60091 18.8254 4.60091 20.8431H5.58091ZM8.27273 18.1763C9.76302 18.1763 10.9645 19.3739 10.9645 20.8431H11.9445C11.9445 18.8254 10.297 17.1963 8.27273 17.1963V18.1763ZM12.3636 9.07863H4.63636V10.0586H12.3636V9.07863ZM12.3636 12.2355H4.63636V13.2155H12.3636V12.2355ZM12.3636 14.9414H4.63636V15.9214H12.3636V14.9414ZM15.51 6.86275V19.4902H16.49V6.86275H15.51ZM1.49 19.4902V6.86275H0.51V19.4902H1.49ZM4.18182 4.19588H4.21429V3.21588H4.18182V4.19588ZM12.5714 4.19588H12.8182V3.21588H12.5714V4.19588ZM4.21429 22.1571H4.18182V23.1371H4.21429V22.1571ZM12.8182 22.1571H12.7857V23.1371H12.8182V22.1571ZM0.51 19.4902C0.51 21.5079 2.15757 23.1371 4.18182 23.1371V22.1571C2.69152 22.1571 1.49 20.9594 1.49 19.4902H0.51ZM15.51 19.4902C15.51 20.9594 14.3085 22.1571 12.8182 22.1571V23.1371C14.8424 23.1371 16.49 21.5079 16.49 19.4902H15.51ZM16.49 6.86275C16.49 4.84501 14.8424 3.21588 12.8182 3.21588V4.19588C14.3085 4.19588 15.51 5.39351 15.51 6.86275H16.49ZM1.49 6.86275C1.49 5.39351 2.69152 4.19588 4.18182 4.19588V3.21588C2.15757 3.21588 0.51 4.84501 0.51 6.86275H1.49ZM6.03525 21.3222L6.71707 22.4496L7.55566 21.9425L6.87384 20.8151L6.03525 21.3222ZM7.13636 22.1961C7.39513 22.6122 7.39515 22.6122 7.39517 22.6122C7.39519 22.6121 7.39521 22.6121 7.39524 22.6121C7.3953 22.6121 7.39539 22.612 7.39549 22.612C7.3957 22.6118 7.396 22.6116 7.39639 22.6114C7.39716 22.6109 7.39829 22.6102 7.39978 22.6093C7.40274 22.6074 7.40711 22.6047 7.41282 22.6012C7.42424 22.594 7.44105 22.5835 7.46282 22.5699C7.50637 22.5426 7.56979 22.5027 7.6497 22.4522C7.8095 22.3511 8.0354 22.2072 8.30035 22.0356C8.82944 21.6931 9.51768 21.2379 10.147 20.7919L9.58031 19.9924C8.96701 20.427 8.29162 20.8738 7.76771 21.213C7.50617 21.3824 7.28324 21.5244 7.12583 21.6239C7.04713 21.6737 6.98485 21.7129 6.94235 21.7395C6.9211 21.7528 6.9048 21.763 6.89387 21.7698C6.8884 21.7732 6.88427 21.7758 6.88154 21.7775C6.88018 21.7784 6.87916 21.779 6.8785 21.7794C6.87817 21.7796 6.87793 21.7798 6.87778 21.7799C6.8777 21.7799 6.87765 21.7799 6.87762 21.78C6.8776 21.78 6.8776 21.78 6.87759 21.78C6.87759 21.78 6.87759 21.78 7.13636 22.1961ZM7.43706 2.46141C7.57334 1.861 8.03115 1.49 8.5 1.49V0.51C7.48625 0.51 6.6983 1.2888 6.48137 2.24448L7.43706 2.46141ZM6 2.84294H6.95921V1.86294H6V2.84294ZM6.95921 2.84294H10.0408V1.86294H6.95921V2.84294ZM10.0408 2.84294H11V1.86294H10.0408V2.84294ZM8.5 1.49C8.96885 1.49 9.42666 1.861 9.56294 2.46141L10.5186 2.24448C10.3017 1.2888 9.51375 0.51 8.5 0.51V1.49Z" fill="white"/>
</svg>
