<svg width="12" height="15" viewBox="0 0 12 15" fill="none" xmlns="http://www.w3.org/2000/svg">
<path d="M5.99922 8.07672C8.2408 8.07672 10.0643 6.26522 10.0643 4.03836C10.0643 1.81149 8.2408 0 5.99922 0C3.75764 0 1.93418 1.81149 1.93418 4.03836C1.93418 6.26522 3.75764 8.07672 5.99922 8.07672ZM5.99922 1.15382C7.60046 1.15382 8.90282 2.44763 8.90282 4.03836C8.90282 5.62909 7.60046 6.9229 5.99922 6.9229C4.39798 6.9229 3.09562 5.62909 3.09562 4.03836C3.09562 2.44763 4.39798 1.15382 5.99922 1.15382ZM12 12.0897V12.8674C12 13.5866 11.736 14.2758 11.2559 14.8073C11.1413 14.935 10.9826 14.9996 10.8231 14.9996C10.6852 14.9996 10.5466 14.9511 10.4359 14.8527C10.1967 14.6404 10.1773 14.2758 10.391 14.0381C10.6798 13.7173 10.8393 13.302 10.8393 12.8681V12.0905C10.8393 10.9259 10.0619 9.91818 8.94772 9.64049C8.75182 9.59126 8.54124 9.61824 8.37012 9.71439C6.89818 10.5282 5.09715 10.5251 3.63451 9.71664C3.45952 9.61741 3.24893 9.58897 3.05304 9.63974C1.93883 9.91819 1.16064 10.9259 1.16064 12.0905V12.8681C1.16064 13.3027 1.32017 13.7181 1.60899 14.0381C1.82269 14.2758 1.80252 14.6404 1.56404 14.8527C1.32401 15.0657 0.957026 15.045 0.744096 14.8081C0.264033 14.2758 0 13.5866 0 12.8681V12.0905C0 10.3967 1.13896 8.929 2.76962 8.52132C3.25201 8.39979 3.77621 8.46905 4.20517 8.71212C5.31241 9.32441 6.68449 9.32668 7.80102 8.70977C8.22456 8.46978 8.74876 8.40131 9.23269 8.52207C10.861 8.92745 12 10.3951 12 12.0897Z" fill="white"/>
</svg>
