<svg width="27" height="22" viewBox="0 0 27 22" fill="none" xmlns="http://www.w3.org/2000/svg">
<path d="M15.3063 16.675V14.922C16.4125 14.6335 17.3927 14.0943 18.2171 13.285C18.4582 13.0605 18.6733 12.8051 18.8624 12.5535L20.0512 12.2622L20.0536 12.2616C23.4985 11.3993 25.9444 8.46871 25.9444 5.10992V3.22222V2.72222H25.4444H21.205V1V0.5H20.705H5.76525H5.26525V1V2.72222H1H0.5V3.22222V5.10992C0.5 8.46871 2.94599 11.3993 6.39082 12.2616L6.39323 12.2622L7.58355 12.5539C7.77875 12.8084 7.99059 13.0437 8.21577 13.2735L8.2215 13.2793L8.22741 13.285C9.05285 14.0739 10.033 14.6101 11.1381 14.9153V16.675C11.1381 17.8218 10.1358 18.8035 8.80471 18.8035H8.30471V19.3035V21V21.5H8.80471H17.6397H18.1397V21V19.3035V18.8035H17.6397C16.3086 18.8035 15.3063 17.8218 15.3063 16.675ZM5.81635 8.94933C4.54037 8.20775 3.69518 6.97102 3.53632 5.58602H5.28591C5.32932 6.38027 5.44826 7.61944 5.81635 8.94933ZM22.9339 5.58602C22.775 6.97125 21.9296 8.20816 20.6532 8.94969C21.0206 7.61907 21.1401 6.37369 21.1838 5.58602H22.9339Z" stroke="white"/>
<path d="M13.2351 9.50655L15.7336 10.7491L15.2185 8.16844L17.2791 6.35243L14.4715 5.99401L13.2351 3.62842L11.9987 5.99401L9.19106 6.35243L11.2517 8.16844L10.7365 10.7491L13.2351 9.50655Z" fill="white"/>
</svg>
