<svg width="23" height="21" viewBox="0 0 23 21" fill="none" xmlns="http://www.w3.org/2000/svg">
<path d="M18.3369 13.8457C20.8093 12.5153 22.5 10.4213 22.5 7.97788C22.5 5.83114 21.1906 3.94944 19.2014 2.62741C17.2085 1.30296 14.4843 0.5 11.5004 0.5C8.51609 0.5 5.7917 1.30296 3.79871 2.62741C1.80936 3.94944 0.5 5.83114 0.5 7.97788C0.5 10.1248 1.80926 12.0067 3.7986 13.3289C5.79157 14.6534 8.51596 15.4565 11.5004 15.4565C11.9944 15.4565 12.4817 15.4344 12.9594 15.3911C12.9661 15.3925 12.9791 15.3956 12.9995 15.4025C13.0494 15.4192 13.1201 15.4504 13.2133 15.5017C13.4002 15.6045 13.6346 15.7638 13.9094 15.9711C14.4377 16.3696 15.0624 16.9045 15.7039 17.4538L15.7783 17.5175C16.437 18.0815 17.1114 18.6568 17.6795 19.0732C17.9624 19.2806 18.2368 19.4621 18.4818 19.584C18.6043 19.645 18.7346 19.6987 18.8656 19.7303C18.9917 19.7608 19.1597 19.7809 19.3339 19.7287C19.3341 19.7286 19.3342 19.7286 19.3344 19.7285L19.1906 19.2497C19.5785 19.1335 19.0727 17.7206 18.5719 16.3215C18.0925 14.9824 17.6177 13.656 17.9356 13.492C20.4087 12.2149 22 10.2199 22 7.97788C22 4.12428 17.2989 1 11.5004 1C5.70108 1 1 4.12428 1 7.97788C1 11.8319 5.70084 14.9565 11.5004 14.9565C11.9853 14.9565 12.4632 14.9346 12.931 14.8917L18.3369 13.8457Z" stroke="white"/>
<circle cx="6.93478" cy="7.84784" r="1.36957" fill="white"/>
<circle cx="11.5" cy="7.84784" r="1.36957" fill="white"/>
<circle cx="16.0652" cy="7.84784" r="1.36957" fill="white"/>
</svg>
