<svg width="23" height="21" viewBox="0 0 23 21" fill="none" xmlns="http://www.w3.org/2000/svg">
<path d="M6.44822 9.88885C7.24243 9.88885 7.88627 9.24502 7.88627 8.4508C7.88627 7.65659 7.24243 7.01276 6.44822 7.01276C5.65401 7.01276 5.01017 7.65659 5.01017 8.4508C5.01017 9.24502 5.65401 9.88885 6.44822 9.88885Z" fill="white"/>
<path d="M11.2417 9.88885C12.0359 9.88885 12.6798 9.24502 12.6798 8.4508C12.6798 7.65659 12.0359 7.01276 11.2417 7.01276C10.4475 7.01276 9.80367 7.65659 9.80367 8.4508C9.80367 9.24502 10.4475 9.88885 11.2417 9.88885Z" fill="white"/>
<path d="M16.0352 9.88885C16.8294 9.88885 17.4732 9.24502 17.4732 8.4508C17.4732 7.65659 16.8294 7.01276 16.0352 7.01276C15.241 7.01276 14.5971 7.65659 14.5971 8.4508C14.5971 9.24502 15.241 9.88885 16.0352 9.88885Z" fill="white"/>
<path d="M12.479 14.9317L12.4784 14.9318C12.0033 14.9754 11.5175 14.9977 11.0242 14.9977C8.06829 14.9977 5.41623 14.2005 3.51853 12.9392C1.61702 11.6755 0.523804 9.98758 0.523804 8.19515C0.523804 6.40294 1.61704 4.71534 3.5186 3.45165C5.41633 2.19051 8.06841 1.39337 11.0242 1.39337C13.9796 1.39337 16.6314 2.1905 18.5291 3.45164C20.4305 4.71533 21.5238 6.40293 21.5238 8.19515C21.5238 10.2788 20.0399 12.2276 17.5403 13.5185C17.3272 13.6286 17.2297 13.8182 17.188 13.9621C17.1476 14.1015 17.144 14.2444 17.1502 14.3636C17.1629 14.6046 17.2254 14.8916 17.3047 15.1826C17.4574 15.7429 17.7086 16.4447 17.9515 17.1231C17.9639 17.1579 17.9764 17.1926 17.9888 17.2272C18.2485 17.9533 18.4923 18.6426 18.6244 19.1637C18.6424 19.2346 18.6575 19.2995 18.67 19.3585C18.5187 19.2701 18.3389 19.1494 18.133 18.9985C17.575 18.5893 16.8989 18.0135 16.1988 17.4141C16.1686 17.3883 16.1384 17.3624 16.1081 17.3364C15.4458 16.7692 14.7675 16.1884 14.1859 15.7498C13.8822 15.5207 13.5898 15.3187 13.329 15.1752C13.1982 15.1034 13.0643 15.0398 12.9324 14.9956C12.8055 14.9529 12.647 14.9166 12.479 14.9317ZM19.0184 19.5175C19.0202 19.5176 19.0212 19.5178 19.0213 19.5178L19.0184 19.5175Z" stroke="white"/>
</svg>
