<svg width="26" height="23" viewBox="0 0 26 23" fill="none" xmlns="http://www.w3.org/2000/svg">
<path d="M0.5 7.4801V3.20576C0.5 1.71092 1.70725 0.5 3.18182 0.5H24.9546V1.71951C24.3371 1.92959 23.894 2.51776 23.894 3.20576V7.4801C23.894 8.1681 24.3371 8.75627 24.9546 8.96635V10.1859H3.18182C1.70725 10.1859 0.5 8.97494 0.5 7.4801Z" stroke="white"/>
<path d="M20.9091 5.59729H12.9546H5" stroke="white"/>
<path d="M24.9546 19.7942V15.5199C24.9546 14.0251 23.7473 12.8141 22.2728 12.8141H0.500017V14.0337C1.11751 14.2437 1.56063 14.8319 1.56063 15.5199V19.7942C1.56063 20.4822 1.11751 21.0704 0.500017 21.2805V22.5H22.2728C23.7473 22.5 24.9546 21.2891 24.9546 19.7942Z" stroke="white"/>
<path d="M4.54548 17.9114H12.5H20.4546" stroke="white"/>
</svg>
