<svg width="23" height="23" viewBox="0 0 23 23" fill="none" xmlns="http://www.w3.org/2000/svg">
<path d="M14.6352 1.84418L14.6353 1.84423L20.3851 6.46773C20.3852 6.46777 20.3852 6.46781 20.3853 6.46785C21.571 7.42191 22.25 8.8396 22.25 10.3611V17.2546C22.25 20.0081 20.0069 22.25 17.25 22.25H14.55V17.2535C14.55 15.5723 13.1812 14.2083 11.5 14.2083C9.81901 14.2083 8.45 15.5709 8.45 17.2535V22.25H5.75C2.99307 22.25 0.75 20.0081 0.75 17.2546V10.3611C0.75 8.8396 1.42899 7.42191 2.61474 6.46785C2.61479 6.46781 2.61484 6.46777 2.61489 6.46773L8.36465 1.84431C10.1798 0.38517 12.8214 0.385333 14.6352 1.84418Z" stroke="#B7A675" stroke-width="1.5"/>
</svg>
