<svg width="25" height="23" viewBox="0 0 25 23" fill="none" xmlns="http://www.w3.org/2000/svg">
<path d="M6.06 0.5H18.94C22.0468 0.5 24.5 3.24537 24.5 6.52632V20.8947C24.5 21.5166 24.1567 22.111 23.5838 22.3707C23.3897 22.4595 23.1868 22.5 22.988 22.5C22.58 22.5 22.1886 22.3249 21.9037 22.0138L22.2725 21.6762L21.9037 22.0138L19.4617 19.3466C19.4615 19.3465 19.4614 19.3463 19.4612 19.3461C19.3587 19.235 19.2356 19.1842 19.113 19.1842H6.06C2.9532 19.1842 0.5 16.4388 0.5 13.1579V6.52632C0.5 3.24537 2.9532 0.5 6.06 0.5Z" stroke="#B7A675"/>
<path d="M17.175 11.7632C16.416 11.7632 15.8 11.1442 15.8 10.3816C15.8 9.61895 16.416 9 17.175 9C17.934 9 18.55 9.61895 18.55 10.3816C18.55 11.1442 17.934 11.7632 17.175 11.7632Z" fill="#B7A675"/>
<path d="M12.775 11.7632C12.016 11.7632 11.4 11.1442 11.4 10.3816C11.4 9.61895 12.016 9 12.775 9C13.534 9 14.15 9.61895 14.15 10.3816C14.15 11.1442 13.534 11.7632 12.775 11.7632Z" fill="#B7A675"/>
<path d="M8.37505 11.7632C7.61605 11.7632 7.00005 11.1442 7.00005 10.3816C7.00005 9.61895 7.61605 9 8.37505 9C9.13405 9 9.75005 9.61895 9.75005 10.3816C9.75005 11.1442 9.13405 11.7632 8.37505 11.7632Z" fill="#B7A675"/>
</svg>
