<svg width="21" height="21" viewBox="0 0 21 21" fill="none" xmlns="http://www.w3.org/2000/svg">
<path d="M10.5583 6.41669C8.28334 6.41669 6.47501 8.22502 6.47501 10.5C6.47501 12.775 8.28334 14.5834 10.5583 14.5834C12.8333 14.5834 14.6417 12.775 14.6417 10.5C14.6417 8.22502 12.8333 6.41669 10.5583 6.41669ZM10.5583 13.4167C8.92501 13.4167 7.64167 12.1334 7.64167 10.5C7.64167 8.86669 8.92501 7.58335 10.5583 7.58335C12.1917 7.58335 13.475 8.86669 13.475 10.5C13.475 12.1334 12.1917 13.4167 10.5583 13.4167Z" fill="white"/>
<path d="M19.1333 8.57502L17.5 8.05002L17.15 7.17502L17.9667 5.65835C18.1417 5.30835 18.0833 4.84169 17.7917 4.55002L16.3917 3.15002C16.1 2.85835 15.6333 2.80002 15.2833 2.97502L13.7667 3.79169L12.8917 3.44169L12.3667 1.80835C12.25 1.45835 11.9 1.16669 11.4917 1.16669H9.50834C9.1 1.16669 8.75 1.45835 8.69167 1.86669L8.16667 3.50002C7.81667 3.55835 7.525 3.67502 7.23334 3.85002L5.71667 3.03335C5.36667 2.85835 4.90001 2.91669 4.60834 3.20835L3.20834 4.60835C2.91667 4.90002 2.85834 5.36669 3.03334 5.71669L3.79167 7.17502C3.675 7.46669 3.55834 7.81669 3.44167 8.10835L1.80834 8.63335C1.45834 8.75002 1.16667 9.10002 1.16667 9.50835V11.4917C1.16667 11.9 1.45834 12.25 1.86667 12.3667L3.50001 12.8917L3.85 13.7667L3.03334 15.2834C2.85834 15.6334 2.91667 16.1 3.20834 16.3917L4.60834 17.7917C4.90001 18.0834 5.36667 18.1417 5.71667 17.9667L7.23334 17.15L8.10834 17.5L8.63334 19.1917C8.75 19.5417 9.1 19.8334 9.50834 19.8334H11.4917C11.9 19.8334 12.25 19.5417 12.3667 19.1917L12.8917 17.5L13.7667 17.15L15.2833 17.9667C15.6333 18.1417 16.1 18.0834 16.3917 17.7917L17.7917 16.3917C18.0833 16.1 18.1417 15.6334 17.9667 15.2834L17.15 13.7667L17.5 12.8917L19.1917 12.3667C19.5417 12.25 19.8333 11.9 19.8333 11.4917V9.50835C19.8333 9.10002 19.5417 8.69169 19.1333 8.57502V8.57502ZM18.6667 11.3167L16.5667 11.9584L16.5083 12.25L15.9833 13.475L15.8083 13.7667L16.8583 15.6917L15.6917 16.8584L13.7667 15.8084L13.475 15.9834C13.0667 16.2167 12.6583 16.3917 12.25 16.5084L11.9583 16.5667L11.3167 18.6667H9.68334L9.04167 16.5667L8.75 16.5084L7.525 15.9834L7.23334 15.8084L5.30834 16.8584L4.14167 15.6917L5.19167 13.7667L5.01667 13.475C4.78334 13.0667 4.60834 12.6584 4.49167 12.25L4.43334 11.9584L2.33334 11.3167V9.68335L4.31667 9.10002L4.43334 8.80835C4.55 8.34169 4.725 7.93335 4.95834 7.52502L5.13334 7.23335L4.14167 5.30835L5.30834 4.14169L7.175 5.19169L7.46667 5.01669C7.875 4.78335 8.28334 4.60835 8.75 4.49169L9.04167 4.37502L9.68334 2.33335H11.3167L11.9583 4.37502L12.25 4.49169C12.6583 4.60835 13.0667 4.78335 13.475 5.01669L13.7667 5.19169L15.6917 4.14169L16.8583 5.30835L15.8083 7.23335L15.9833 7.52502C16.2167 7.93335 16.3917 8.34169 16.5083 8.75002L16.5667 9.04169L18.6667 9.68335V11.3167V11.3167Z" fill="white"/>
</svg>
