<svg width="21" height="20" viewBox="0 0 21 20" fill="none" xmlns="http://www.w3.org/2000/svg">
<path d="M3.06271 3.56909H17.3554C18.7697 3.56909 19.9181 4.71834 19.9181 6.1382V16.3686C19.9181 17.7884 18.7697 18.9377 17.3554 18.9377H3.06271C1.64835 18.9377 0.5 17.7884 0.5 16.3686V6.1382C0.5 4.71834 1.64835 3.56909 3.06271 3.56909Z" stroke="white"/>
<path d="M3.06271 3.56909H17.3554C18.7697 3.56909 19.9181 4.71834 19.9181 6.13821V7.16124C19.9181 7.37758 19.7856 7.57093 19.5856 7.64885L10.3975 11.2295C10.2763 11.2767 10.1418 11.2767 10.0206 11.2295L0.832433 7.64885C0.632506 7.57094 0.5 7.37758 0.5 7.16124V6.13821C0.5 4.71834 1.64835 3.56909 3.06271 3.56909Z" stroke="white"/>
<path d="M9.18815 0.5H11.23C12.6443 0.5 13.7927 1.64924 13.7927 3.06911V3.66792H6.62543V3.06911C6.62543 1.64924 7.77378 0.5 9.18815 0.5Z" stroke="white"/>
</svg>
