<svg width="21" height="21" viewBox="0 0 21 21" fill="none" xmlns="http://www.w3.org/2000/svg">
<mask id="path-1-inside-1_11_991" fill="white">
<path d="M9.96154 21H11.0385C11.3595 20.9997 11.6774 20.9359 11.9736 20.8121C12.2699 20.6884 12.5387 20.5072 12.7646 20.279C12.9905 20.0509 13.1689 19.7802 13.2896 19.4827C13.4104 19.1852 13.471 18.8667 13.468 18.5457C13.4713 18.4722 13.4958 18.4012 13.5386 18.3414C13.5815 18.2816 13.6407 18.2354 13.7092 18.2086C13.78 18.1803 13.8578 18.1745 13.932 18.1921C14.0062 18.2096 14.0732 18.2496 14.1238 18.3066C14.5849 18.7483 15.1987 18.9948 15.8372 18.9948C16.4757 18.9948 17.0895 18.7483 17.5506 18.3066L18.3045 17.5463C18.5312 17.3197 18.7107 17.0505 18.8327 16.754C18.9546 16.4576 19.0165 16.1399 19.0148 15.8194C19.0131 15.4989 18.9478 15.1819 18.8227 14.8868C18.6977 14.5917 18.5153 14.3243 18.2862 14.1002C18.2372 14.0447 18.2049 13.9766 18.1929 13.9037C18.1809 13.8307 18.1897 13.7559 18.2183 13.6877C18.2475 13.6176 18.2976 13.5583 18.3618 13.5178C18.426 13.4774 18.5011 13.4577 18.5769 13.4615C19.2194 13.461 19.8354 13.2055 20.2897 12.7512C20.744 12.2969 20.9994 11.6809 21 11.0385V9.96154C20.9997 9.64011 20.9357 9.32192 20.8117 9.02537C20.6877 8.72883 20.5062 8.45981 20.2775 8.23388C20.0489 8.00795 19.7777 7.82959 19.4797 7.70912C19.1817 7.58864 18.8628 7.52844 18.5414 7.532C18.47 7.53162 18.4004 7.50988 18.3414 7.46957C18.2825 7.42926 18.237 7.37224 18.2108 7.30585L18.2043 7.29077C18.1758 7.22 18.17 7.14215 18.1875 7.06791C18.2051 6.99367 18.2452 6.92669 18.3023 6.87615C18.5273 6.65115 18.7058 6.38403 18.8276 6.09005C18.9493 5.79606 19.012 5.48098 19.012 5.16277C19.012 4.84456 18.9493 4.52947 18.8276 4.23549C18.7058 3.94151 18.5273 3.67439 18.3023 3.44938L17.542 2.69554C17.3175 2.46982 17.0505 2.29087 16.7564 2.16905C16.4623 2.04723 16.147 1.98496 15.8286 1.98585C15.5065 1.9857 15.1876 2.05004 14.8908 2.17507C14.5939 2.3001 14.3251 2.48329 14.1002 2.71385C14.0449 2.76315 13.9768 2.79571 13.9038 2.80772C13.8307 2.81974 13.7558 2.81071 13.6877 2.78169C13.6176 2.7525 13.5583 2.70238 13.5178 2.63819C13.4774 2.574 13.4577 2.49887 13.4615 2.42308C13.461 1.78061 13.2055 1.16462 12.7512 0.710333C12.2969 0.256041 11.6809 0.00057032 11.0385 0H9.96154C9.64074 0.000977838 9.32331 0.0654201 9.02753 0.189615C8.73175 0.313809 8.46347 0.495301 8.23814 0.723634C8.01281 0.951968 7.83488 1.22263 7.71462 1.52003C7.59435 1.81743 7.53411 2.13568 7.53738 2.45646C7.53676 2.52822 7.51468 2.59814 7.474 2.65725C7.43331 2.71636 7.37588 2.76195 7.30908 2.78815C7.23622 2.81737 7.15629 2.82416 7.07954 2.80766C7.0028 2.79116 6.93273 2.75212 6.87831 2.69554C6.41723 2.25387 5.80341 2.00732 5.16492 2.00732C4.52644 2.00732 3.91262 2.25387 3.45154 2.69554L2.688 3.45908C2.46155 3.68592 2.28235 3.95544 2.16079 4.25202C2.03923 4.5486 1.97772 4.86635 1.97982 5.18688C1.98193 5.5074 2.0476 5.82432 2.17305 6.11928C2.29849 6.41424 2.48121 6.68138 2.71062 6.90523C2.76024 6.95507 2.79406 7.01843 2.80785 7.08738C2.82164 7.15634 2.81479 7.22784 2.78815 7.29292V7.30154C2.758 7.37303 2.70708 7.43382 2.642 7.47606C2.57691 7.5183 2.50065 7.54004 2.42308 7.53846C1.78061 7.53903 1.16462 7.7945 0.710332 8.24879C0.256041 8.70309 0.00057032 9.31907 0 9.96154V11.0385C0.000695313 11.3593 0.0648939 11.6769 0.188894 11.9729C0.312895 12.2688 0.494245 12.5373 0.722493 12.7629C0.95074 12.9884 1.22137 13.1666 1.51878 13.287C1.8162 13.4075 2.13452 13.4679 2.45539 13.4648C2.52747 13.4658 2.59762 13.4883 2.65688 13.5293C2.71615 13.5703 2.76185 13.6281 2.78815 13.6952C2.81695 13.7662 2.82444 13.844 2.80971 13.9192C2.79499 13.9944 2.75868 14.0636 2.70523 14.1185C2.47954 14.3436 2.30049 14.6111 2.17832 14.9056C2.05615 15.2001 1.99327 15.5157 1.99327 15.8345C1.99327 16.1533 2.05615 16.469 2.17832 16.7635C2.30049 17.058 2.47954 17.3254 2.70523 17.5506L3.45908 18.3109C3.92286 18.7576 4.54288 19.0052 5.18676 19.001C5.83064 18.9968 6.44735 18.741 6.90523 18.2883C6.95491 18.2384 7.01828 18.2045 7.0873 18.1907C7.15632 18.1768 7.22789 18.1838 7.29292 18.2108H7.30154C7.37294 18.2414 7.43361 18.2925 7.4758 18.3577C7.518 18.423 7.53981 18.4993 7.53846 18.5769C7.53903 19.2194 7.7945 19.8354 8.24879 20.2897C8.70309 20.744 9.31907 20.9994 9.96154 21Z"/>
</mask>
<path d="M9.96154 21H11.0385C11.3595 20.9997 11.6774 20.9359 11.9736 20.8121C12.2699 20.6884 12.5387 20.5072 12.7646 20.279C12.9905 20.0509 13.1689 19.7802 13.2896 19.4827C13.4104 19.1852 13.471 18.8667 13.468 18.5457C13.4713 18.4722 13.4958 18.4012 13.5386 18.3414C13.5815 18.2816 13.6407 18.2354 13.7092 18.2086C13.78 18.1803 13.8578 18.1745 13.932 18.1921C14.0062 18.2096 14.0732 18.2496 14.1238 18.3066C14.5849 18.7483 15.1987 18.9948 15.8372 18.9948C16.4757 18.9948 17.0895 18.7483 17.5506 18.3066L18.3045 17.5463C18.5312 17.3197 18.7107 17.0505 18.8327 16.754C18.9546 16.4576 19.0165 16.1399 19.0148 15.8194C19.0131 15.4989 18.9478 15.1819 18.8227 14.8868C18.6977 14.5917 18.5153 14.3243 18.2862 14.1002C18.2372 14.0447 18.2049 13.9766 18.1929 13.9037C18.1809 13.8307 18.1897 13.7559 18.2183 13.6877C18.2475 13.6176 18.2976 13.5583 18.3618 13.5178C18.426 13.4774 18.5011 13.4577 18.5769 13.4615C19.2194 13.461 19.8354 13.2055 20.2897 12.7512C20.744 12.2969 20.9994 11.6809 21 11.0385V9.96154C20.9997 9.64011 20.9357 9.32192 20.8117 9.02537C20.6877 8.72883 20.5062 8.45981 20.2775 8.23388C20.0489 8.00795 19.7777 7.82959 19.4797 7.70912C19.1817 7.58864 18.8628 7.52844 18.5414 7.532C18.47 7.53162 18.4004 7.50988 18.3414 7.46957C18.2825 7.42926 18.237 7.37224 18.2108 7.30585L18.2043 7.29077C18.1758 7.22 18.17 7.14215 18.1875 7.06791C18.2051 6.99367 18.2452 6.92669 18.3023 6.87615C18.5273 6.65115 18.7058 6.38403 18.8276 6.09005C18.9493 5.79606 19.012 5.48098 19.012 5.16277C19.012 4.84456 18.9493 4.52947 18.8276 4.23549C18.7058 3.94151 18.5273 3.67439 18.3023 3.44938L17.542 2.69554C17.3175 2.46982 17.0505 2.29087 16.7564 2.16905C16.4623 2.04723 16.147 1.98496 15.8286 1.98585C15.5065 1.9857 15.1876 2.05004 14.8908 2.17507C14.5939 2.3001 14.3251 2.48329 14.1002 2.71385C14.0449 2.76315 13.9768 2.79571 13.9038 2.80772C13.8307 2.81974 13.7558 2.81071 13.6877 2.78169C13.6176 2.7525 13.5583 2.70238 13.5178 2.63819C13.4774 2.574 13.4577 2.49887 13.4615 2.42308C13.461 1.78061 13.2055 1.16462 12.7512 0.710333C12.2969 0.256041 11.6809 0.00057032 11.0385 0H9.96154C9.64074 0.000977838 9.32331 0.0654201 9.02753 0.189615C8.73175 0.313809 8.46347 0.495301 8.23814 0.723634C8.01281 0.951968 7.83488 1.22263 7.71462 1.52003C7.59435 1.81743 7.53411 2.13568 7.53738 2.45646C7.53676 2.52822 7.51468 2.59814 7.474 2.65725C7.43331 2.71636 7.37588 2.76195 7.30908 2.78815C7.23622 2.81737 7.15629 2.82416 7.07954 2.80766C7.0028 2.79116 6.93273 2.75212 6.87831 2.69554C6.41723 2.25387 5.80341 2.00732 5.16492 2.00732C4.52644 2.00732 3.91262 2.25387 3.45154 2.69554L2.688 3.45908C2.46155 3.68592 2.28235 3.95544 2.16079 4.25202C2.03923 4.5486 1.97772 4.86635 1.97982 5.18688C1.98193 5.5074 2.0476 5.82432 2.17305 6.11928C2.29849 6.41424 2.48121 6.68138 2.71062 6.90523C2.76024 6.95507 2.79406 7.01843 2.80785 7.08738C2.82164 7.15634 2.81479 7.22784 2.78815 7.29292V7.30154C2.758 7.37303 2.70708 7.43382 2.642 7.47606C2.57691 7.5183 2.50065 7.54004 2.42308 7.53846C1.78061 7.53903 1.16462 7.7945 0.710332 8.24879C0.256041 8.70309 0.00057032 9.31907 0 9.96154V11.0385C0.000695313 11.3593 0.0648939 11.6769 0.188894 11.9729C0.312895 12.2688 0.494245 12.5373 0.722493 12.7629C0.95074 12.9884 1.22137 13.1666 1.51878 13.287C1.8162 13.4075 2.13452 13.4679 2.45539 13.4648C2.52747 13.4658 2.59762 13.4883 2.65688 13.5293C2.71615 13.5703 2.76185 13.6281 2.78815 13.6952C2.81695 13.7662 2.82444 13.844 2.80971 13.9192C2.79499 13.9944 2.75868 14.0636 2.70523 14.1185C2.47954 14.3436 2.30049 14.6111 2.17832 14.9056C2.05615 15.2001 1.99327 15.5157 1.99327 15.8345C1.99327 16.1533 2.05615 16.469 2.17832 16.7635C2.30049 17.058 2.47954 17.3254 2.70523 17.5506L3.45908 18.3109C3.92286 18.7576 4.54288 19.0052 5.18676 19.001C5.83064 18.9968 6.44735 18.741 6.90523 18.2883C6.95491 18.2384 7.01828 18.2045 7.0873 18.1907C7.15632 18.1768 7.22789 18.1838 7.29292 18.2108H7.30154C7.37294 18.2414 7.43361 18.2925 7.4758 18.3577C7.518 18.423 7.53981 18.4993 7.53846 18.5769C7.53903 19.2194 7.7945 19.8354 8.24879 20.2897C8.70309 20.744 9.31907 20.9994 9.96154 21Z" stroke="white" stroke-width="2" mask="url(#path-1-inside-1_11_991)"/>
</svg>
